<?xml version="1.0" standalone="no"?>
<!DOCTYPE svg PUBLIC "-//W3C//DTD SVG 20010904//EN"
 "http://www.w3.org/TR/2001/REC-SVG-20010904/DTD/svg10.dtd">
<svg version="1.0" xmlns="http://www.w3.org/2000/svg"
 width="8150.000000pt" height="661.000000pt" viewBox="0 0 8150.000000 661.000000"
 preserveAspectRatio="xMidYMid meet">

<g transform="translate(0.000000,661.000000) scale(0.100000,-0.100000)"
fill="#000000" stroke="none">
<path d="M35495 4404 c-192 -29 -318 -85 -421 -188 -112 -113 -151 -217 -141
-381 11 -190 96 -316 273 -404 79 -39 186 -65 370 -91 241 -33 326 -63 375
-132 27 -37 36 -120 20 -171 -17 -51 -88 -112 -153 -132 -123 -36 -279 -29
-386 20 -96 44 -204 178 -226 282 l-7 31 -180 -60 c-202 -67 -186 -51 -147
-154 45 -122 159 -255 280 -327 251 -149 706 -154 962 -11 96 54 187 156 225
252 77 194 32 417 -110 546 -121 109 -258 160 -547 201 -97 14 -199 32 -226
41 -65 22 -122 79 -131 133 -26 157 119 265 332 247 151 -12 260 -85 324 -214
l34 -70 172 61 172 60 -19 49 c-51 136 -167 261 -301 327 -121 59 -217 81
-379 86 -74 2 -148 1 -165 -1z"/>
<path d="M39292 4400 c-366 -52 -632 -277 -739 -627 -25 -82 -27 -101 -27
-283 -1 -175 1 -203 22 -275 75 -260 254 -463 496 -561 128 -52 228 -69 406
-69 178 0 278 17 406 69 242 98 421 301 496 561 21 72 23 100 22 275 0 182 -2
201 -27 283 -49 160 -124 284 -239 393 -163 157 -356 231 -618 239 -74 2 -163
0 -198 -5z m334 -331 c161 -50 291 -195 338 -376 52 -199 20 -424 -81 -575
-100 -152 -239 -222 -438 -222 -254 1 -441 149 -511 404 -22 82 -25 290 -5
370 71 283 283 443 561 423 41 -3 103 -14 136 -24z"/>
<path d="M45975 4400 c-94 -15 -214 -56 -284 -97 -79 -47 -170 -144 -205 -216
-86 -183 -51 -421 83 -555 60 -60 182 -124 286 -151 44 -11 150 -29 235 -41
247 -33 345 -72 383 -153 20 -42 22 -116 4 -160 -21 -48 -88 -104 -149 -122
-125 -37 -279 -29 -385 19 -97 45 -205 179 -227 283 l-7 31 -180 -60 c-168
-56 -179 -61 -173 -81 62 -200 190 -352 369 -433 222 -102 568 -110 807 -20
247 93 383 312 348 563 -15 110 -56 191 -133 267 -117 115 -258 169 -555 211
-97 14 -199 32 -226 41 -65 22 -122 79 -131 133 -26 157 119 265 332 247 151
-12 260 -85 324 -214 l34 -69 172 60 172 59 -19 49 c-31 83 -70 141 -146 216
-57 57 -92 81 -166 117 -51 24 -127 52 -168 61 -88 20 -310 28 -395 15z"/>
<path d="M49292 4400 c-366 -52 -632 -277 -739 -627 -25 -82 -27 -101 -27
-283 -1 -175 1 -203 22 -275 75 -260 254 -463 496 -561 128 -52 228 -69 406
-69 178 0 278 17 406 69 242 98 421 301 496 561 21 72 23 100 22 275 0 182 -2
201 -27 283 -49 160 -124 284 -239 393 -163 157 -356 231 -618 239 -74 2 -163
0 -198 -5z m334 -331 c161 -50 291 -195 338 -376 52 -199 20 -424 -81 -575
-100 -152 -239 -222 -438 -222 -254 1 -441 149 -511 404 -22 82 -25 290 -5
370 71 283 283 443 561 423 41 -3 103 -14 136 -24z"/>
<path d="M29000 4215 l0 -155 298 -2 297 -3 3 -717 2 -718 185 0 185 0 2 718
3 717 298 3 297 2 0 155 0 155 -785 0 -785 0 0 -155z"/>
<path d="M30810 3495 l0 -875 190 0 190 0 0 370 0 370 375 0 375 0 0 -370 0
-370 190 0 190 0 0 875 0 875 -190 0 -190 0 0 -345 0 -345 -375 0 -375 0 0
345 0 345 -190 0 -190 0 0 -875z"/>
<path d="M32740 3495 l0 -875 660 0 660 0 0 155 0 155 -470 0 -470 0 0 220 0
220 355 0 355 0 0 150 0 150 -355 0 -355 0 0 195 0 195 470 0 470 0 0 155 0
155 -660 0 -660 0 0 -875z"/>
<path d="M36690 3495 l0 -875 190 0 190 0 0 370 0 370 375 0 375 0 0 -370 0
-370 190 0 190 0 0 875 0 875 -190 0 -190 0 0 -345 0 -345 -375 0 -375 0 0
345 0 345 -190 0 -190 0 0 -875z"/>
<path d="M40700 3495 l0 -875 190 0 190 0 0 310 0 310 263 0 c230 0 274 3 341
20 165 42 298 142 367 275 48 92 63 159 63 275 -1 224 -108 396 -306 490 -134
64 -193 70 -684 70 l-424 0 0 -875z m851 541 c61 -22 127 -80 150 -130 47
-103 9 -240 -83 -302 -67 -45 -122 -54 -343 -54 l-195 0 0 256 0 256 213 -4
c165 -4 222 -9 258 -22z"/>
<path d="M42390 3495 l0 -875 660 0 660 0 0 160 0 160 -470 0 -470 0 0 715 0
715 -190 0 -190 0 0 -875z"/>
<path d="M43210 4365 c0 -3 142 -237 315 -520 l315 -515 0 -355 0 -355 190 0
190 0 0 359 0 360 310 515 309 516 -213 0 -212 0 -185 -335 c-101 -184 -188
-333 -192 -332 -5 1 -95 151 -201 332 l-192 330 -217 3 c-119 1 -217 0 -217
-3z"/>
<path d="M46930 4215 l0 -155 298 -2 297 -3 3 -717 2 -718 185 0 185 0 2 718
3 717 298 3 297 2 0 155 0 155 -785 0 -785 0 0 -155z"/>
<path d="M50700 3496 l0 -876 190 0 190 0 0 335 0 335 168 0 c270 -1 366 -24
423 -103 41 -56 55 -112 84 -326 14 -102 28 -198 31 -213 l6 -28 199 0 c109 0
199 2 199 5 0 16 -82 468 -91 500 -17 62 -69 153 -106 185 -44 39 -118 76
-179 90 -27 7 -56 14 -64 17 -8 2 17 15 57 28 238 75 365 253 351 490 -7 112
-36 182 -109 259 -68 73 -144 117 -256 148 -75 21 -100 22 -585 26 l-508 3 0
-875z m917 541 c103 -39 148 -104 148 -212 -1 -90 -27 -144 -91 -185 -68 -43
-122 -50 -369 -50 l-225 0 0 236 0 236 248 -4 c196 -4 256 -8 289 -21z"/>
<path d="M52510 3495 l0 -875 660 0 660 0 0 155 0 155 -470 0 -470 0 0 220 0
220 355 0 355 0 0 150 0 150 -355 0 -355 0 0 195 0 195 470 0 470 0 0 155 0
155 -660 0 -660 0 0 -875z"/>
</g>
</svg>
