<svg xmlns="http://www.w3.org/2000/svg" xmlns:xlink="http://www.w3.org/1999/xlink" width="475" zoomAndPan="magnify" viewBox="0 0 356.25 146.249994" height="195" preserveAspectRatio="xMidYMid meet" version="1.0"><defs><g/><clipPath id="b810095858"><path d="M 199 20.578125 L 203 20.578125 L 203 28 L 199 28 Z M 199 20.578125 " clip-rule="nonzero"/></clipPath><clipPath id="d74602ea56"><path d="M 199 27 L 203 27 L 203 34.007812 L 199 34.007812 Z M 199 27 " clip-rule="nonzero"/></clipPath><clipPath id="1c2ac85326"><path d="M 193.789062 26 L 201 26 L 201 29 L 193.789062 29 Z M 193.789062 26 " clip-rule="nonzero"/></clipPath><clipPath id="7a55bf0941"><path d="M 200 26 L 207.964844 26 L 207.964844 29 L 200 29 Z M 200 26 " clip-rule="nonzero"/></clipPath><clipPath id="4a74eb7547"><path d="M 199.496094 42.023438 L 214.417969 42.023438 L 214.417969 54.707031 L 199.496094 54.707031 Z M 199.496094 42.023438 " clip-rule="nonzero"/></clipPath><clipPath id="565345f11f"><path d="M 128.496094 63.300781 L 143.417969 63.300781 L 143.417969 78.222656 L 128.496094 78.222656 Z M 128.496094 63.300781 " clip-rule="nonzero"/></clipPath><clipPath id="363620b73f"><path d="M 185.945312 61.960938 L 202.359375 61.960938 L 202.359375 78.375 L 185.945312 78.375 Z M 185.945312 61.960938 " clip-rule="nonzero"/></clipPath><clipPath id="d167d48434"><path d="M 195 71 L 202.359375 71 L 202.359375 78.375 L 195 78.375 Z M 195 71 " clip-rule="nonzero"/></clipPath><clipPath id="953e076b67"><path d="M 186 61.960938 L 194 61.960938 L 194 70 L 186 70 Z M 186 61.960938 " clip-rule="nonzero"/></clipPath><clipPath id="207b5882b3"><path d="M 167.046875 86.996094 L 183.460938 86.996094 L 183.460938 103.410156 L 167.046875 103.410156 Z M 167.046875 86.996094 " clip-rule="nonzero"/></clipPath><clipPath id="999323a874"><path d="M 222.351562 87 L 238.765625 87 L 238.765625 103.410156 L 222.351562 103.410156 Z M 222.351562 87 " clip-rule="nonzero"/></clipPath><clipPath id="6945e21005"><path d="M 132.679688 107.570312 L 150.589844 107.570312 L 150.589844 123.238281 L 132.679688 123.238281 Z M 132.679688 107.570312 " clip-rule="nonzero"/></clipPath><clipPath id="c5c0a07a78"><path d="M 87 86.507812 L 90 86.507812 L 90 92 L 87 92 Z M 87 86.507812 " clip-rule="nonzero"/></clipPath><clipPath id="6a9c3e5f4b"><path d="M 87 98 L 90 98 L 90 102.925781 L 87 102.925781 Z M 87 98 " clip-rule="nonzero"/></clipPath><clipPath id="db363302fa"><path d="M 80.003906 93 L 85 93 L 85 96 L 80.003906 96 Z M 80.003906 93 " clip-rule="nonzero"/></clipPath><clipPath id="5992def9fb"><path d="M 91 93 L 96.417969 93 L 96.417969 96 L 91 96 Z M 91 93 " clip-rule="nonzero"/></clipPath></defs><g clip-path="url(#b810095858)"><path fill="#c7b9ff" d="M 199.703125 20.578125 L 202.003906 20.578125 L 201.234375 27.292969 L 200.46875 27.292969 Z M 199.703125 20.578125 " fill-opacity="1" fill-rule="nonzero"/></g><g clip-path="url(#d74602ea56)"><path fill="#c7b9ff" d="M 202.003906 34.007812 L 199.703125 34.007812 L 200.46875 27.292969 L 201.238281 27.292969 Z M 202.003906 34.007812 " fill-opacity="1" fill-rule="nonzero"/></g><path fill="#c7b9ff" d="M 196.789062 32.832031 L 195.164062 31.25 L 200.582031 27.03125 L 201.125 27.558594 Z M 196.789062 32.832031 " fill-opacity="1" fill-rule="nonzero"/><path fill="#c7b9ff" d="M 204.917969 21.753906 L 206.542969 23.335938 L 201.125 27.558594 L 200.582031 27.03125 Z M 204.917969 21.753906 " fill-opacity="1" fill-rule="nonzero"/><path fill="#c7b9ff" d="M 195.167969 23.335938 L 196.792969 21.753906 L 201.125 27.03125 L 200.582031 27.558594 Z M 195.167969 23.335938 " fill-opacity="1" fill-rule="nonzero"/><path fill="#c7b9ff" d="M 206.542969 31.25 L 204.917969 32.832031 L 200.582031 27.558594 L 201.125 27.03125 Z M 206.542969 31.25 " fill-opacity="1" fill-rule="nonzero"/><g clip-path="url(#1c2ac85326)"><path fill="#c7b9ff" d="M 193.960938 28.414062 L 193.960938 26.175781 L 200.855469 26.921875 L 200.855469 27.667969 Z M 193.960938 28.414062 " fill-opacity="1" fill-rule="nonzero"/></g><g clip-path="url(#7a55bf0941)"><path fill="#c7b9ff" d="M 207.75 26.175781 L 207.75 28.414062 L 200.855469 27.667969 L 200.855469 26.921875 Z M 207.75 26.175781 " fill-opacity="1" fill-rule="nonzero"/></g><g clip-path="url(#4a74eb7547)"><path fill="#f24e1e" d="M 199.671875 43.605469 L 199.671875 42.023438 L 214.242188 42.023438 L 214.242188 43.605469 C 211.003906 43.605469 208.578125 45.984375 208.578125 48.363281 C 208.578125 50.742188 211.003906 53.121094 214.242188 53.121094 L 214.242188 54.707031 L 199.671875 54.707031 L 199.671875 53.121094 C 202.910156 53.121094 205.339844 50.742188 205.339844 48.363281 C 205.339844 45.984375 202.910156 43.605469 199.671875 43.605469 Z M 199.671875 43.605469 " fill-opacity="1" fill-rule="nonzero"/></g><g clip-path="url(#565345f11f)"><path fill="#f24e1e" d="M 131.082031 63.300781 L 137.535156 63.300781 L 143.179688 67.445312 L 135.113281 73.25 L 140.761719 78.222656 L 134.308594 78.222656 L 128.660156 73.25 L 136.726562 67.445312 Z M 131.082031 63.300781 " fill-opacity="1" fill-rule="nonzero"/></g><g clip-path="url(#363620b73f)"><path stroke-linecap="butt" transform="matrix(0.420238, 0, 0, 0.431995, 185.957292, 61.959468)" fill="none" stroke-linejoin="miter" d="M 36.297628 8.439912 C 36.297628 9.28085 36.139607 10.094661 35.814271 10.863261 C 35.488935 11.640903 35.033464 12.328121 34.438563 12.924916 C 33.843662 13.512669 33.165103 13.973828 32.384296 14.299353 C 31.612784 14.615835 30.80409 14.778597 29.967511 14.778597 C 29.121636 14.778597 28.312943 14.615835 27.541431 14.299353 C 26.760623 13.973828 26.082065 13.512669 25.487164 12.924916 C 24.892263 12.328121 24.436792 11.640903 24.111456 10.863261 C 23.786119 10.094661 23.628099 9.28085 23.628099 8.439912 C 23.628099 7.608016 23.786119 6.794205 24.111456 6.016563 C 24.436792 5.247963 24.892263 4.560745 25.487164 3.96395 C 26.082065 3.376197 26.760623 2.915038 27.541431 2.589513 C 28.312943 2.273031 29.121636 2.110269 29.967511 2.110269 C 30.80409 2.110269 31.612784 2.273031 32.384296 2.589513 C 33.165103 2.915038 33.843662 3.376197 34.438563 3.96395 C 35.033464 4.560745 35.488935 5.247963 35.814271 6.016563 C 36.139607 6.794205 36.297628 7.608016 36.297628 8.439912 Z M 36.297628 8.439912 " stroke="#0fa958" stroke-width="4.222" stroke-opacity="1" stroke-miterlimit="4"/><path stroke-linecap="butt" transform="matrix(0.420238, 0, 0, 0.431995, 185.957292, 61.959468)" fill="none" stroke-linejoin="miter" d="M 15.187943 29.553793 C 15.187943 30.394731 15.029922 31.1995 14.704586 31.977142 C 14.379249 32.754784 13.923778 33.442002 13.328877 34.029755 C 12.733976 34.62655 12.055418 35.08771 11.27461 35.404192 C 10.503098 35.729716 9.694405 35.892479 8.857825 35.892479 C 8.011951 35.892479 7.203257 35.729716 6.431745 35.404192 C 5.650938 35.08771 4.972379 34.62655 4.377478 34.029755 C 3.782577 33.442002 3.327106 32.754784 3.00177 31.977142 C 2.685729 31.1995 2.518413 30.394731 2.518413 29.553793 C 2.518413 28.712855 2.685729 27.908086 3.00177 27.130444 C 3.327106 26.352802 3.782577 25.674626 4.377478 25.077831 C 4.972379 24.481036 5.650938 24.028919 6.431745 23.703394 C 7.203257 23.386912 8.011951 23.22415 8.857825 23.22415 C 9.694405 23.22415 10.503098 23.386912 11.27461 23.703394 C 12.055418 24.028919 12.733976 24.481036 13.328877 25.077831 C 13.923778 25.674626 14.379249 26.352802 14.704586 27.130444 C 15.029922 27.908086 15.187943 28.712855 15.187943 29.553793 Z M 15.187943 29.553793 " stroke="#0fa958" stroke-width="4.222" stroke-opacity="1" stroke-miterlimit="4"/></g><g clip-path="url(#d167d48434)"><path stroke-linecap="butt" transform="matrix(0.420238, 0, 0, 0.431995, 185.957292, 61.959468)" fill="none" stroke-linejoin="miter" d="M 23.628099 23.22415 L 36.297628 23.22415 L 36.297628 35.892479 L 23.628099 35.892479 Z M 23.628099 23.22415 " stroke="#0fa958" stroke-width="4.222" stroke-opacity="1" stroke-miterlimit="4"/></g><g clip-path="url(#953e076b67)"><path stroke-linecap="butt" transform="matrix(0.420238, 0, 0, 0.431995, 185.957292, 61.959468)" fill="none" stroke-linejoin="miter" d="M 2.518413 2.110269 L 15.187943 2.110269 L 15.187943 14.778597 L 2.518413 14.778597 Z M 2.518413 2.110269 " stroke="#0fa958" stroke-width="4.222" stroke-opacity="1" stroke-miterlimit="4"/></g><g clip-path="url(#207b5882b3)"><path stroke-linecap="butt" transform="matrix(0.443671, 0, 0, 0.443671, 167.045454, 86.995372)" fill="none" stroke-linejoin="miter" d="M 28.908016 3.285665 L 8.332156 18.006605 C 4.37018 20.850423 3.903548 26.564473 7.354869 30.006989 C 10.797385 33.440702 16.50263 32.965265 19.328839 29.020898 L 34.067389 8.453842 C 35.115111 6.992313 34.956632 4.993716 33.706409 3.708275 C 32.429772 2.405226 30.387154 2.229138 28.908016 3.285665 Z M 28.908016 3.285665 " stroke="#c7b9ff" stroke-width="4.132" stroke-opacity="1" stroke-miterlimit="4"/></g><g clip-path="url(#999323a874)"><path fill="#ffc700" d="M 230.546875 96.09375 C 227.941406 96.09375 227.070312 98.1875 227.070312 99.664062 C 227.070312 101.144531 227.941406 103.234375 230.546875 103.234375 L 236.625 103.234375 L 236.625 100.558594 L 230.546875 100.558594 C 230.066406 100.558594 229.675781 100.160156 229.675781 99.664062 C 229.675781 99.171875 230.066406 98.773438 230.546875 98.773438 L 234.886719 98.773438 C 236.625 98.773438 238.363281 97.878906 238.363281 95.203125 C 238.363281 92.527344 236.539062 91.632812 234.886719 91.632812 L 226.203125 91.632812 C 225.722656 91.632812 225.335938 91.234375 225.335938 90.742188 C 225.335938 90.25 225.722656 89.847656 226.203125 89.847656 L 232.71875 89.847656 C 233.4375 89.847656 234.019531 89.25 234.019531 88.511719 C 234.019531 87.769531 233.4375 87.171875 232.71875 87.171875 L 226.203125 87.171875 C 223.597656 87.171875 222.730469 89.261719 222.730469 90.742188 C 222.730469 92.21875 223.597656 94.3125 226.203125 94.3125 L 234.886719 94.3125 C 235.367188 94.3125 235.757812 94.710938 235.757812 95.203125 C 235.757812 95.695312 235.367188 96.09375 234.886719 96.09375 Z M 230.546875 96.09375 " fill-opacity="1" fill-rule="nonzero"/></g><g clip-path="url(#6945e21005)"><path stroke-linecap="butt" transform="matrix(0.471048, 0, 0, 0.460872, 132.683935, 107.570054)" fill="none" stroke-linejoin="miter" d="M 18.649524 4.687669 L 33.70904 31.462671 L 3.590009 31.462671 Z M 18.649524 4.687669 " stroke="#0fa958" stroke-width="4.132" stroke-opacity="1" stroke-miterlimit="4"/></g><path fill="#0fa958" d="M 143.609375 119.214844 L 139.328125 119.214844 L 141.46875 115.40625 Z M 143.609375 119.214844 " fill-opacity="1" fill-rule="nonzero"/><g clip-path="url(#c5c0a07a78)"><path fill="#ffc700" d="M 87.320312 86.6875 L 89.105469 86.6875 L 89.105469 91.148438 L 87.320312 91.148438 Z M 87.320312 86.6875 " fill-opacity="1" fill-rule="nonzero"/></g><g clip-path="url(#6a9c3e5f4b)"><path fill="#ffc700" d="M 87.320312 98.285156 L 89.105469 98.285156 L 89.105469 102.75 L 87.320312 102.75 Z M 87.320312 98.285156 " fill-opacity="1" fill-rule="nonzero"/></g><path fill="#ffc700" d="M 81.789062 89.542969 L 83.039062 88.296875 L 86.371094 91.628906 L 85.121094 92.878906 Z M 81.789062 89.542969 " fill-opacity="1" fill-rule="nonzero"/><path fill="#ffc700" d="M 89.996094 97.75 L 91.242188 96.503906 L 94.574219 99.835938 L 93.328125 101.082031 Z M 89.996094 97.75 " fill-opacity="1" fill-rule="nonzero"/><path fill="#ffc700" d="M 94.578125 89.542969 L 93.328125 88.296875 L 89.996094 91.628906 L 91.246094 92.878906 Z M 94.578125 89.542969 " fill-opacity="1" fill-rule="nonzero"/><path fill="#ffc700" d="M 86.371094 97.75 L 85.125 96.503906 L 81.789062 99.835938 L 83.039062 101.082031 Z M 86.371094 97.75 " fill-opacity="1" fill-rule="nonzero"/><g clip-path="url(#db363302fa)"><path fill="#ffc700" d="M 80.179688 95.609375 L 80.179688 93.824219 L 84.640625 93.824219 L 84.640625 95.609375 Z M 80.179688 95.609375 " fill-opacity="1" fill-rule="nonzero"/></g><g clip-path="url(#5992def9fb)"><path fill="#ffc700" d="M 91.78125 95.609375 L 91.78125 93.824219 L 96.242188 93.824219 L 96.242188 95.609375 Z M 91.78125 95.609375 " fill-opacity="1" fill-rule="nonzero"/></g><g fill="#000000" fill-opacity="1"><g transform="translate(137.48422, 31.42489)"><g><path d="M 0.34375 -2.40625 L 2.046875 -2.96875 C 2.148438 -2.488281 2.378906 -2.082031 2.734375 -1.75 C 3.097656 -1.425781 3.578125 -1.265625 4.171875 -1.265625 C 4.710938 -1.265625 5.117188 -1.359375 5.390625 -1.546875 C 5.671875 -1.742188 5.8125 -2.007812 5.8125 -2.34375 C 5.8125 -2.894531 5.359375 -3.238281 4.453125 -3.375 L 3.40625 -3.515625 C 1.632812 -3.765625 0.75 -4.601562 0.75 -6.03125 C 0.75 -6.757812 1.046875 -7.367188 1.640625 -7.859375 C 2.242188 -8.347656 3.054688 -8.59375 4.078125 -8.59375 C 5.054688 -8.59375 5.835938 -8.382812 6.421875 -7.96875 C 7.015625 -7.5625 7.414062 -7.019531 7.625 -6.34375 L 5.953125 -5.765625 C 5.660156 -6.679688 5.035156 -7.140625 4.078125 -7.140625 C 3.609375 -7.140625 3.253906 -7.039062 3.015625 -6.84375 C 2.773438 -6.65625 2.65625 -6.410156 2.65625 -6.109375 C 2.65625 -5.609375 3.015625 -5.304688 3.734375 -5.203125 L 4.78125 -5.0625 C 5.71875 -4.9375 6.441406 -4.648438 6.953125 -4.203125 C 7.460938 -3.765625 7.71875 -3.179688 7.71875 -2.453125 C 7.71875 -1.679688 7.410156 -1.046875 6.796875 -0.546875 C 6.191406 -0.0546875 5.316406 0.1875 4.171875 0.1875 C 3.097656 0.1875 2.234375 -0.0507812 1.578125 -0.53125 C 0.921875 -1.007812 0.507812 -1.632812 0.34375 -2.40625 Z M 0.34375 -2.40625 "/></g></g></g><g fill="#000000" fill-opacity="1"><g transform="translate(145.707632, 31.42489)"><g><path d="M 1.015625 0 L 1.015625 -8.40625 L 2.828125 -8.40625 L 2.828125 -5.078125 L 6.4375 -5.078125 L 6.4375 -8.40625 L 8.25 -8.40625 L 8.25 0 L 6.4375 0 L 6.4375 -3.5625 L 2.828125 -3.5625 L 2.828125 0 Z M 1.015625 0 "/></g></g></g><g fill="#000000" fill-opacity="1"><g transform="translate(154.975478, 31.42489)"><g><path d="M 0.5 -4.171875 C 0.5 -5.453125 0.910156 -6.507812 1.734375 -7.34375 C 2.554688 -8.175781 3.640625 -8.59375 4.984375 -8.59375 C 6.335938 -8.59375 7.425781 -8.175781 8.25 -7.34375 C 9.070312 -6.507812 9.484375 -5.453125 9.484375 -4.171875 C 9.492188 -2.898438 9.085938 -1.851562 8.265625 -1.03125 C 7.441406 -0.207031 6.347656 0.195312 4.984375 0.1875 C 3.628906 0.195312 2.539062 -0.207031 1.71875 -1.03125 C 0.894531 -1.851562 0.488281 -2.898438 0.5 -4.171875 Z M 7.578125 -4.1875 C 7.578125 -5.039062 7.34375 -5.734375 6.875 -6.265625 C 6.414062 -6.804688 5.789062 -7.078125 5 -7.078125 C 4.195312 -7.078125 3.5625 -6.804688 3.09375 -6.265625 C 2.632812 -5.734375 2.40625 -5.039062 2.40625 -4.1875 C 2.40625 -3.34375 2.632812 -2.648438 3.09375 -2.109375 C 3.5625 -1.578125 4.195312 -1.3125 5 -1.3125 C 5.789062 -1.3125 6.414062 -1.578125 6.875 -2.109375 C 7.34375 -2.648438 7.578125 -3.34375 7.578125 -4.1875 Z M 7.578125 -4.1875 "/></g></g></g><g fill="#000000" fill-opacity="1"><g transform="translate(164.963624, 31.42489)"><g><path d="M 1.015625 0 L 1.015625 -8.40625 L 4.78125 -8.40625 C 5.675781 -8.40625 6.40625 -8.15625 6.96875 -7.65625 C 7.53125 -7.164062 7.8125 -6.507812 7.8125 -5.6875 C 7.8125 -4.863281 7.53125 -4.203125 6.96875 -3.703125 C 6.40625 -3.203125 5.675781 -2.953125 4.78125 -2.953125 L 2.828125 -2.953125 L 2.828125 0 Z M 2.828125 -4.46875 L 4.453125 -4.46875 C 4.890625 -4.46875 5.242188 -4.578125 5.515625 -4.796875 C 5.785156 -5.015625 5.921875 -5.3125 5.921875 -5.6875 C 5.921875 -6.050781 5.78125 -6.34375 5.5 -6.5625 C 5.226562 -6.78125 4.878906 -6.890625 4.453125 -6.890625 L 2.828125 -6.890625 Z M 2.828125 -4.46875 "/></g></g></g><g fill="#000000" fill-opacity="1"><g transform="translate(173.066987, 31.42489)"><g><path d="M 1.015625 0 L 1.015625 -8.40625 L 2.828125 -8.40625 L 2.828125 -1.546875 L 7.359375 -1.546875 L 7.359375 0 Z M 1.015625 0 "/></g></g></g><g fill="#000000" fill-opacity="1"><g transform="translate(180.54609, 31.42489)"><g><path d="M 3.15625 0 L 3.15625 -3.421875 L 0.109375 -8.40625 L 2.21875 -8.40625 L 3.171875 -6.765625 C 3.347656 -6.472656 3.476562 -6.191406 3.5625 -5.921875 C 3.6875 -5.566406 3.753906 -5.015625 3.765625 -4.265625 L 4.421875 -4.265625 C 4.429688 -4.828125 4.472656 -5.269531 4.546875 -5.59375 C 4.617188 -5.925781 4.785156 -6.328125 5.046875 -6.796875 L 5.921875 -8.40625 L 7.96875 -8.40625 L 4.984375 -3.421875 L 4.984375 0 Z M 3.15625 0 "/></g></g></g><g fill="#000000" fill-opacity="1"><g transform="translate(110.736126, 52.854951)"><g><path d="M 0.484375 -4.21875 C 0.472656 -5.445312 0.882812 -6.484375 1.71875 -7.328125 C 2.550781 -8.179688 3.597656 -8.601562 4.859375 -8.59375 C 5.828125 -8.59375 6.65625 -8.351562 7.34375 -7.875 C 8.039062 -7.394531 8.503906 -6.769531 8.734375 -6 L 7.09375 -5.359375 C 6.6875 -6.503906 5.9375 -7.078125 4.84375 -7.078125 C 4.082031 -7.078125 3.484375 -6.820312 3.046875 -6.3125 C 2.617188 -5.8125 2.40625 -5.113281 2.40625 -4.21875 C 2.40625 -3.300781 2.617188 -2.585938 3.046875 -2.078125 C 3.472656 -1.578125 4.070312 -1.328125 4.84375 -1.328125 C 5.957031 -1.328125 6.722656 -1.90625 7.140625 -3.0625 L 8.75 -2.40625 C 8.4375 -1.570312 7.945312 -0.929688 7.28125 -0.484375 C 6.625 -0.0351562 5.8125 0.1875 4.84375 0.1875 C 3.539062 0.1875 2.488281 -0.222656 1.6875 -1.046875 C 0.882812 -1.867188 0.484375 -2.925781 0.484375 -4.21875 Z M 0.484375 -4.21875 "/></g></g></g><g fill="#000000" fill-opacity="1"><g transform="translate(119.799887, 52.854951)"><g><path d="M 0.5 -4.171875 C 0.5 -5.453125 0.910156 -6.507812 1.734375 -7.34375 C 2.554688 -8.175781 3.640625 -8.59375 4.984375 -8.59375 C 6.335938 -8.59375 7.425781 -8.175781 8.25 -7.34375 C 9.070312 -6.507812 9.484375 -5.453125 9.484375 -4.171875 C 9.492188 -2.898438 9.085938 -1.851562 8.265625 -1.03125 C 7.441406 -0.207031 6.347656 0.195312 4.984375 0.1875 C 3.628906 0.195312 2.539062 -0.207031 1.71875 -1.03125 C 0.894531 -1.851562 0.488281 -2.898438 0.5 -4.171875 Z M 7.578125 -4.1875 C 7.578125 -5.039062 7.34375 -5.734375 6.875 -6.265625 C 6.414062 -6.804688 5.789062 -7.078125 5 -7.078125 C 4.195312 -7.078125 3.5625 -6.804688 3.09375 -6.265625 C 2.632812 -5.734375 2.40625 -5.039062 2.40625 -4.1875 C 2.40625 -3.34375 2.632812 -2.648438 3.09375 -2.109375 C 3.5625 -1.578125 4.195312 -1.3125 5 -1.3125 C 5.789062 -1.3125 6.414062 -1.578125 6.875 -2.109375 C 7.34375 -2.648438 7.578125 -3.34375 7.578125 -4.1875 Z M 7.578125 -4.1875 "/></g></g></g><g fill="#000000" fill-opacity="1"><g transform="translate(129.788032, 52.854951)"><g><path d="M 1.015625 0 L 1.015625 -8.40625 L 2.828125 -8.40625 L 2.828125 -1.546875 L 7.359375 -1.546875 L 7.359375 0 Z M 1.015625 0 "/></g></g></g><g fill="#000000" fill-opacity="1"><g transform="translate(137.267135, 52.854951)"><g><path d="M 1.015625 0 L 1.015625 -8.40625 L 2.828125 -8.40625 L 2.828125 -1.546875 L 7.359375 -1.546875 L 7.359375 0 Z M 1.015625 0 "/></g></g></g><g fill="#000000" fill-opacity="1"><g transform="translate(144.746239, 52.854951)"><g><path d="M 1.015625 0 L 1.015625 -8.40625 L 7.359375 -8.40625 L 7.359375 -6.890625 L 2.828125 -6.890625 L 2.828125 -5.0625 L 6.25 -5.0625 L 6.25 -3.578125 L 2.828125 -3.578125 L 2.828125 -1.515625 L 7.359375 -1.515625 L 7.359375 0 Z M 1.015625 0 "/></g></g></g><g fill="#000000" fill-opacity="1"><g transform="translate(152.669526, 52.854951)"><g><path d="M 0.484375 -4.21875 C 0.472656 -5.445312 0.882812 -6.484375 1.71875 -7.328125 C 2.550781 -8.179688 3.597656 -8.601562 4.859375 -8.59375 C 5.828125 -8.59375 6.65625 -8.351562 7.34375 -7.875 C 8.039062 -7.394531 8.503906 -6.769531 8.734375 -6 L 7.09375 -5.359375 C 6.6875 -6.503906 5.9375 -7.078125 4.84375 -7.078125 C 4.082031 -7.078125 3.484375 -6.820312 3.046875 -6.3125 C 2.617188 -5.8125 2.40625 -5.113281 2.40625 -4.21875 C 2.40625 -3.300781 2.617188 -2.585938 3.046875 -2.078125 C 3.472656 -1.578125 4.070312 -1.328125 4.84375 -1.328125 C 5.957031 -1.328125 6.722656 -1.90625 7.140625 -3.0625 L 8.75 -2.40625 C 8.4375 -1.570312 7.945312 -0.929688 7.28125 -0.484375 C 6.625 -0.0351562 5.8125 0.1875 4.84375 0.1875 C 3.539062 0.1875 2.488281 -0.222656 1.6875 -1.046875 C 0.882812 -1.867188 0.484375 -2.925781 0.484375 -4.21875 Z M 0.484375 -4.21875 "/></g></g></g><g fill="#000000" fill-opacity="1"><g transform="translate(161.733286, 52.854951)"><g><path d="M 3 0 L 3 -6.890625 L 0.125 -6.890625 L 0.125 -8.40625 L 7.703125 -8.40625 L 7.703125 -6.890625 L 4.828125 -6.890625 L 4.828125 0 Z M 3 0 "/></g></g></g><g fill="#000000" fill-opacity="1"><g transform="translate(169.560534, 52.854951)"><g><path d="M 1.015625 0 L 1.015625 -8.40625 L 2.828125 -8.40625 L 2.828125 0 Z M 1.015625 0 "/></g></g></g><g fill="#000000" fill-opacity="1"><g transform="translate(173.402128, 52.854951)"><g><path d="M 0.5 -4.171875 C 0.5 -5.453125 0.910156 -6.507812 1.734375 -7.34375 C 2.554688 -8.175781 3.640625 -8.59375 4.984375 -8.59375 C 6.335938 -8.59375 7.425781 -8.175781 8.25 -7.34375 C 9.070312 -6.507812 9.484375 -5.453125 9.484375 -4.171875 C 9.492188 -2.898438 9.085938 -1.851562 8.265625 -1.03125 C 7.441406 -0.207031 6.347656 0.195312 4.984375 0.1875 C 3.628906 0.195312 2.539062 -0.207031 1.71875 -1.03125 C 0.894531 -1.851562 0.488281 -2.898438 0.5 -4.171875 Z M 7.578125 -4.1875 C 7.578125 -5.039062 7.34375 -5.734375 6.875 -6.265625 C 6.414062 -6.804688 5.789062 -7.078125 5 -7.078125 C 4.195312 -7.078125 3.5625 -6.804688 3.09375 -6.265625 C 2.632812 -5.734375 2.40625 -5.039062 2.40625 -4.1875 C 2.40625 -3.34375 2.632812 -2.648438 3.09375 -2.109375 C 3.5625 -1.578125 4.195312 -1.3125 5 -1.3125 C 5.789062 -1.3125 6.414062 -1.578125 6.875 -2.109375 C 7.34375 -2.648438 7.578125 -3.34375 7.578125 -4.1875 Z M 7.578125 -4.1875 "/></g></g></g><g fill="#000000" fill-opacity="1"><g transform="translate(183.390274, 52.854951)"><g><path d="M 1.015625 0 L 1.015625 -8.40625 L 3.8125 -8.40625 L 7.546875 -2.15625 L 8.09375 -2.53125 C 7.757812 -3.082031 7.546875 -3.507812 7.453125 -3.8125 C 7.359375 -4.113281 7.3125 -4.585938 7.3125 -5.234375 L 7.3125 -8.40625 L 9.125 -8.40625 L 9.125 0 L 6.9375 0 L 2.578125 -7.296875 L 2.03125 -6.953125 C 2.320312 -6.398438 2.523438 -5.925781 2.640625 -5.53125 C 2.765625 -5.132812 2.828125 -4.628906 2.828125 -4.015625 L 2.828125 0 Z M 1.015625 0 "/></g></g></g><g fill="#000000" fill-opacity="1"><g transform="translate(220.015065, 52.854951)"><g><path d="M 0.5 -4.171875 C 0.5 -5.453125 0.910156 -6.507812 1.734375 -7.34375 C 2.554688 -8.175781 3.640625 -8.59375 4.984375 -8.59375 C 6.335938 -8.59375 7.425781 -8.175781 8.25 -7.34375 C 9.070312 -6.507812 9.484375 -5.453125 9.484375 -4.171875 C 9.492188 -2.898438 9.085938 -1.851562 8.265625 -1.03125 C 7.441406 -0.207031 6.347656 0.195312 4.984375 0.1875 C 3.628906 0.195312 2.539062 -0.207031 1.71875 -1.03125 C 0.894531 -1.851562 0.488281 -2.898438 0.5 -4.171875 Z M 7.578125 -4.1875 C 7.578125 -5.039062 7.34375 -5.734375 6.875 -6.265625 C 6.414062 -6.804688 5.789062 -7.078125 5 -7.078125 C 4.195312 -7.078125 3.5625 -6.804688 3.09375 -6.265625 C 2.632812 -5.734375 2.40625 -5.039062 2.40625 -4.1875 C 2.40625 -3.34375 2.632812 -2.648438 3.09375 -2.109375 C 3.5625 -1.578125 4.195312 -1.3125 5 -1.3125 C 5.789062 -1.3125 6.414062 -1.578125 6.875 -2.109375 C 7.34375 -2.648438 7.578125 -3.34375 7.578125 -4.1875 Z M 7.578125 -4.1875 "/></g></g></g><g fill="#000000" fill-opacity="1"><g transform="translate(230.003211, 52.854951)"><g><path d="M 1.015625 0 L 1.015625 -8.40625 L 7.46875 -8.40625 L 7.46875 -6.890625 L 2.828125 -6.890625 L 2.828125 -4.703125 L 6.546875 -4.703125 L 6.546875 -3.1875 L 2.828125 -3.1875 L 2.828125 0 Z M 1.015625 0 "/></g></g></g><g fill="#000000" fill-opacity="1"><g transform="translate(148.37073, 74.880445)"><g><path d="M 6.796875 0 L 6.125 -1.96875 L 2.71875 -1.96875 L 2.015625 0 L 0.0625 0 L 3.265625 -8.40625 L 5.625 -8.40625 L 8.8125 0 Z M 3.234375 -3.484375 L 5.609375 -3.484375 L 4.984375 -5.296875 C 4.835938 -5.703125 4.757812 -6.394531 4.75 -7.375 L 4.109375 -7.375 C 4.085938 -6.75 4.066406 -6.332031 4.046875 -6.125 C 4.023438 -5.851562 3.96875 -5.578125 3.875 -5.296875 Z M 3.234375 -3.484375 "/></g></g></g><g fill="#000000" fill-opacity="1"><g transform="translate(157.254419, 74.880445)"><g><path d="M 1.015625 0 L 1.015625 -8.40625 L 3.8125 -8.40625 L 7.546875 -2.15625 L 8.09375 -2.53125 C 7.757812 -3.082031 7.546875 -3.507812 7.453125 -3.8125 C 7.359375 -4.113281 7.3125 -4.585938 7.3125 -5.234375 L 7.3125 -8.40625 L 9.125 -8.40625 L 9.125 0 L 6.9375 0 L 2.578125 -7.296875 L 2.03125 -6.953125 C 2.320312 -6.398438 2.523438 -5.925781 2.640625 -5.53125 C 2.765625 -5.132812 2.828125 -4.628906 2.828125 -4.015625 L 2.828125 0 Z M 1.015625 0 "/></g></g></g><g fill="#000000" fill-opacity="1"><g transform="translate(167.398631, 74.880445)"><g><path d="M 1.015625 0 L 1.015625 -8.40625 L 4.171875 -8.40625 C 5.410156 -8.414062 6.460938 -8.035156 7.328125 -7.265625 C 8.203125 -6.503906 8.628906 -5.503906 8.609375 -4.265625 C 8.628906 -2.992188 8.203125 -1.957031 7.328125 -1.15625 C 6.460938 -0.363281 5.410156 0.0195312 4.171875 0 Z M 2.828125 -1.515625 L 4.09375 -1.515625 C 5.851562 -1.515625 6.734375 -2.414062 6.734375 -4.21875 C 6.734375 -5.039062 6.507812 -5.691406 6.0625 -6.171875 C 5.625 -6.648438 4.988281 -6.890625 4.15625 -6.890625 L 2.828125 -6.890625 Z M 2.828125 -1.515625 "/></g></g></g><g fill="#000000" fill-opacity="1"><g transform="translate(101.021495, 98.88099)"><g><path d="M 1.015625 0 L 1.015625 -8.40625 L 7.46875 -8.40625 L 7.46875 -6.890625 L 2.828125 -6.890625 L 2.828125 -4.703125 L 6.546875 -4.703125 L 6.546875 -3.1875 L 2.828125 -3.1875 L 2.828125 0 Z M 1.015625 0 "/></g></g></g><g fill="#000000" fill-opacity="1"><g transform="translate(108.776713, 98.88099)"><g><path d="M 0.5 -4.171875 C 0.5 -5.453125 0.910156 -6.507812 1.734375 -7.34375 C 2.554688 -8.175781 3.640625 -8.59375 4.984375 -8.59375 C 6.335938 -8.59375 7.425781 -8.175781 8.25 -7.34375 C 9.070312 -6.507812 9.484375 -5.453125 9.484375 -4.171875 C 9.492188 -2.898438 9.085938 -1.851562 8.265625 -1.03125 C 7.441406 -0.207031 6.347656 0.195312 4.984375 0.1875 C 3.628906 0.195312 2.539062 -0.207031 1.71875 -1.03125 C 0.894531 -1.851562 0.488281 -2.898438 0.5 -4.171875 Z M 7.578125 -4.1875 C 7.578125 -5.039062 7.34375 -5.734375 6.875 -6.265625 C 6.414062 -6.804688 5.789062 -7.078125 5 -7.078125 C 4.195312 -7.078125 3.5625 -6.804688 3.09375 -6.265625 C 2.632812 -5.734375 2.40625 -5.039062 2.40625 -4.1875 C 2.40625 -3.34375 2.632812 -2.648438 3.09375 -2.109375 C 3.5625 -1.578125 4.195312 -1.3125 5 -1.3125 C 5.789062 -1.3125 6.414062 -1.578125 6.875 -2.109375 C 7.34375 -2.648438 7.578125 -3.34375 7.578125 -4.1875 Z M 7.578125 -4.1875 "/></g></g></g><g fill="#000000" fill-opacity="1"><g transform="translate(118.764859, 98.88099)"><g><path d="M 1.015625 0 L 1.015625 -8.40625 L 5.15625 -8.40625 C 6.039062 -8.40625 6.738281 -8.203125 7.25 -7.796875 C 7.769531 -7.398438 8.03125 -6.863281 8.03125 -6.1875 C 8.03125 -5.632812 7.894531 -5.21875 7.625 -4.9375 C 7.382812 -4.675781 7.097656 -4.5 6.765625 -4.40625 C 6.429688 -4.3125 5.988281 -4.25 5.4375 -4.21875 L 5.4375 -3.59375 C 6.21875 -3.570312 6.78125 -3.457031 7.125 -3.25 C 7.46875 -3.039062 7.703125 -2.628906 7.828125 -2.015625 L 8.171875 0 L 6.234375 0 L 5.96875 -1.859375 C 5.90625 -2.347656 5.75 -2.691406 5.5 -2.890625 C 5.257812 -3.085938 4.878906 -3.1875 4.359375 -3.1875 L 2.828125 -3.1875 L 2.828125 0 Z M 2.828125 -4.671875 L 4.8125 -4.671875 C 5.21875 -4.671875 5.535156 -4.765625 5.765625 -4.953125 C 6.003906 -5.148438 6.125 -5.425781 6.125 -5.78125 C 6.125 -6.132812 6.003906 -6.40625 5.765625 -6.59375 C 5.535156 -6.789062 5.21875 -6.890625 4.8125 -6.890625 L 2.828125 -6.890625 Z M 2.828125 -4.671875 "/></g></g></g><g fill="#000000" fill-opacity="1"><g transform="translate(135.742723, 99.211704)"><g><path d="M 3.15625 0 L 3.15625 -3.421875 L 0.109375 -8.40625 L 2.21875 -8.40625 L 3.171875 -6.765625 C 3.347656 -6.472656 3.476562 -6.191406 3.5625 -5.921875 C 3.6875 -5.566406 3.753906 -5.015625 3.765625 -4.265625 L 4.421875 -4.265625 C 4.429688 -4.828125 4.472656 -5.269531 4.546875 -5.59375 C 4.617188 -5.925781 4.785156 -6.328125 5.046875 -6.796875 L 5.921875 -8.40625 L 7.96875 -8.40625 L 4.984375 -3.421875 L 4.984375 0 Z M 3.15625 0 "/></g></g></g><g fill="#000000" fill-opacity="1"><g transform="translate(143.858093, 99.211704)"><g><path d="M 0.5 -4.171875 C 0.5 -5.453125 0.910156 -6.507812 1.734375 -7.34375 C 2.554688 -8.175781 3.640625 -8.59375 4.984375 -8.59375 C 6.335938 -8.59375 7.425781 -8.175781 8.25 -7.34375 C 9.070312 -6.507812 9.484375 -5.453125 9.484375 -4.171875 C 9.492188 -2.898438 9.085938 -1.851562 8.265625 -1.03125 C 7.441406 -0.207031 6.347656 0.195312 4.984375 0.1875 C 3.628906 0.195312 2.539062 -0.207031 1.71875 -1.03125 C 0.894531 -1.851562 0.488281 -2.898438 0.5 -4.171875 Z M 7.578125 -4.1875 C 7.578125 -5.039062 7.34375 -5.734375 6.875 -6.265625 C 6.414062 -6.804688 5.789062 -7.078125 5 -7.078125 C 4.195312 -7.078125 3.5625 -6.804688 3.09375 -6.265625 C 2.632812 -5.734375 2.40625 -5.039062 2.40625 -4.1875 C 2.40625 -3.34375 2.632812 -2.648438 3.09375 -2.109375 C 3.5625 -1.578125 4.195312 -1.3125 5 -1.3125 C 5.789062 -1.3125 6.414062 -1.578125 6.875 -2.109375 C 7.34375 -2.648438 7.578125 -3.34375 7.578125 -4.1875 Z M 7.578125 -4.1875 "/></g></g></g><g fill="#000000" fill-opacity="1"><g transform="translate(153.846238, 99.211704)"><g><path d="M 0.90625 -3.28125 L 0.90625 -8.40625 L 2.734375 -8.40625 L 2.734375 -3.5625 C 2.734375 -2.84375 2.894531 -2.296875 3.21875 -1.921875 C 3.550781 -1.554688 4.039062 -1.375 4.6875 -1.375 C 5.976562 -1.375 6.625 -2.101562 6.625 -3.5625 L 6.625 -8.40625 L 8.453125 -8.40625 L 8.453125 -3.28125 C 8.453125 -2.21875 8.101562 -1.375 7.40625 -0.75 C 6.707031 -0.125 5.800781 0.1875 4.6875 0.1875 C 3.539062 0.1875 2.625 -0.125 1.9375 -0.75 C 1.25 -1.375 0.90625 -2.21875 0.90625 -3.28125 Z M 0.90625 -3.28125 "/></g></g></g><g fill="#000000" fill-opacity="1"><g transform="translate(187.581619, 98.326367)"><g><path d="M 6.796875 0 L 6.125 -1.96875 L 2.71875 -1.96875 L 2.015625 0 L 0.0625 0 L 3.265625 -8.40625 L 5.625 -8.40625 L 8.8125 0 Z M 3.234375 -3.484375 L 5.609375 -3.484375 L 4.984375 -5.296875 C 4.835938 -5.703125 4.757812 -6.394531 4.75 -7.375 L 4.109375 -7.375 C 4.085938 -6.75 4.066406 -6.332031 4.046875 -6.125 C 4.023438 -5.851562 3.96875 -5.578125 3.875 -5.296875 Z M 3.234375 -3.484375 "/></g></g></g><g fill="#000000" fill-opacity="1"><g transform="translate(196.465309, 98.326367)"><g><path d="M 1.015625 0 L 1.015625 -8.40625 L 3.8125 -8.40625 L 7.546875 -2.15625 L 8.09375 -2.53125 C 7.757812 -3.082031 7.546875 -3.507812 7.453125 -3.8125 C 7.359375 -4.113281 7.3125 -4.585938 7.3125 -5.234375 L 7.3125 -8.40625 L 9.125 -8.40625 L 9.125 0 L 6.9375 0 L 2.578125 -7.296875 L 2.03125 -6.953125 C 2.320312 -6.398438 2.523438 -5.925781 2.640625 -5.53125 C 2.765625 -5.132812 2.828125 -4.628906 2.828125 -4.015625 L 2.828125 0 Z M 1.015625 0 "/></g></g></g><g fill="#000000" fill-opacity="1"><g transform="translate(206.60952, 98.326367)"><g><path d="M 1.015625 0 L 1.015625 -8.40625 L 4.171875 -8.40625 C 5.410156 -8.414062 6.460938 -8.035156 7.328125 -7.265625 C 8.203125 -6.503906 8.628906 -5.503906 8.609375 -4.265625 C 8.628906 -2.992188 8.203125 -1.957031 7.328125 -1.15625 C 6.460938 -0.363281 5.410156 0.0195312 4.171875 0 Z M 2.828125 -1.515625 L 4.09375 -1.515625 C 5.851562 -1.515625 6.734375 -2.414062 6.734375 -4.21875 C 6.734375 -5.039062 6.507812 -5.691406 6.0625 -6.171875 C 5.625 -6.648438 4.988281 -6.890625 4.15625 -6.890625 L 2.828125 -6.890625 Z M 2.828125 -1.515625 "/></g></g></g><g fill="#000000" fill-opacity="1"><g transform="translate(244.573368, 98.326367)"><g><path d="M 3.15625 0 L 3.15625 -3.421875 L 0.109375 -8.40625 L 2.21875 -8.40625 L 3.171875 -6.765625 C 3.347656 -6.472656 3.476562 -6.191406 3.5625 -5.921875 C 3.6875 -5.566406 3.753906 -5.015625 3.765625 -4.265625 L 4.421875 -4.265625 C 4.429688 -4.828125 4.472656 -5.269531 4.546875 -5.59375 C 4.617188 -5.925781 4.785156 -6.328125 5.046875 -6.796875 L 5.921875 -8.40625 L 7.96875 -8.40625 L 4.984375 -3.421875 L 4.984375 0 Z M 3.15625 0 "/></g></g></g><g fill="#000000" fill-opacity="1"><g transform="translate(252.688738, 98.326367)"><g><path d="M 0.5 -4.171875 C 0.5 -5.453125 0.910156 -6.507812 1.734375 -7.34375 C 2.554688 -8.175781 3.640625 -8.59375 4.984375 -8.59375 C 6.335938 -8.59375 7.425781 -8.175781 8.25 -7.34375 C 9.070312 -6.507812 9.484375 -5.453125 9.484375 -4.171875 C 9.492188 -2.898438 9.085938 -1.851562 8.265625 -1.03125 C 7.441406 -0.207031 6.347656 0.195312 4.984375 0.1875 C 3.628906 0.195312 2.539062 -0.207031 1.71875 -1.03125 C 0.894531 -1.851562 0.488281 -2.898438 0.5 -4.171875 Z M 7.578125 -4.1875 C 7.578125 -5.039062 7.34375 -5.734375 6.875 -6.265625 C 6.414062 -6.804688 5.789062 -7.078125 5 -7.078125 C 4.195312 -7.078125 3.5625 -6.804688 3.09375 -6.265625 C 2.632812 -5.734375 2.40625 -5.039062 2.40625 -4.1875 C 2.40625 -3.34375 2.632812 -2.648438 3.09375 -2.109375 C 3.5625 -1.578125 4.195312 -1.3125 5 -1.3125 C 5.789062 -1.3125 6.414062 -1.578125 6.875 -2.109375 C 7.34375 -2.648438 7.578125 -3.34375 7.578125 -4.1875 Z M 7.578125 -4.1875 "/></g></g></g><g fill="#000000" fill-opacity="1"><g transform="translate(262.676883, 98.326367)"><g><path d="M 0.90625 -3.28125 L 0.90625 -8.40625 L 2.734375 -8.40625 L 2.734375 -3.5625 C 2.734375 -2.84375 2.894531 -2.296875 3.21875 -1.921875 C 3.550781 -1.554688 4.039062 -1.375 4.6875 -1.375 C 5.976562 -1.375 6.625 -2.101562 6.625 -3.5625 L 6.625 -8.40625 L 8.453125 -8.40625 L 8.453125 -3.28125 C 8.453125 -2.21875 8.101562 -1.375 7.40625 -0.75 C 6.707031 -0.125 5.800781 0.1875 4.6875 0.1875 C 3.539062 0.1875 2.625 -0.125 1.9375 -0.75 C 1.25 -1.375 0.90625 -2.21875 0.90625 -3.28125 Z M 0.90625 -3.28125 "/></g></g></g><g fill="#000000" fill-opacity="1"><g transform="translate(272.040769, 98.326367)"><g><path d="M 1.015625 0 L 1.015625 -8.40625 L 5.15625 -8.40625 C 6.039062 -8.40625 6.738281 -8.203125 7.25 -7.796875 C 7.769531 -7.398438 8.03125 -6.863281 8.03125 -6.1875 C 8.03125 -5.632812 7.894531 -5.21875 7.625 -4.9375 C 7.382812 -4.675781 7.097656 -4.5 6.765625 -4.40625 C 6.429688 -4.3125 5.988281 -4.25 5.4375 -4.21875 L 5.4375 -3.59375 C 6.21875 -3.570312 6.78125 -3.457031 7.125 -3.25 C 7.46875 -3.039062 7.703125 -2.628906 7.828125 -2.015625 L 8.171875 0 L 6.234375 0 L 5.96875 -1.859375 C 5.90625 -2.347656 5.75 -2.691406 5.5 -2.890625 C 5.257812 -3.085938 4.878906 -3.1875 4.359375 -3.1875 L 2.828125 -3.1875 L 2.828125 0 Z M 2.828125 -4.671875 L 4.8125 -4.671875 C 5.21875 -4.671875 5.535156 -4.765625 5.765625 -4.953125 C 6.003906 -5.148438 6.125 -5.425781 6.125 -5.78125 C 6.125 -6.132812 6.003906 -6.40625 5.765625 -6.59375 C 5.535156 -6.789062 5.21875 -6.890625 4.8125 -6.890625 L 2.828125 -6.890625 Z M 2.828125 -4.671875 "/></g></g></g><g fill="#000000" fill-opacity="1"><g transform="translate(156.445221, 120.347504)"><g><path d="M 1.015625 0 L 1.015625 -8.40625 L 7.46875 -8.40625 L 7.46875 -6.890625 L 2.828125 -6.890625 L 2.828125 -4.703125 L 6.546875 -4.703125 L 6.546875 -3.1875 L 2.828125 -3.1875 L 2.828125 0 Z M 1.015625 0 "/></g></g></g><g fill="#000000" fill-opacity="1"><g transform="translate(164.200439, 120.347504)"><g><path d="M 1.015625 0 L 1.015625 -8.40625 L 5.15625 -8.40625 C 6.039062 -8.40625 6.738281 -8.203125 7.25 -7.796875 C 7.769531 -7.398438 8.03125 -6.863281 8.03125 -6.1875 C 8.03125 -5.632812 7.894531 -5.21875 7.625 -4.9375 C 7.382812 -4.675781 7.097656 -4.5 6.765625 -4.40625 C 6.429688 -4.3125 5.988281 -4.25 5.4375 -4.21875 L 5.4375 -3.59375 C 6.21875 -3.570312 6.78125 -3.457031 7.125 -3.25 C 7.46875 -3.039062 7.703125 -2.628906 7.828125 -2.015625 L 8.171875 0 L 6.234375 0 L 5.96875 -1.859375 C 5.90625 -2.347656 5.75 -2.691406 5.5 -2.890625 C 5.257812 -3.085938 4.878906 -3.1875 4.359375 -3.1875 L 2.828125 -3.1875 L 2.828125 0 Z M 2.828125 -4.671875 L 4.8125 -4.671875 C 5.21875 -4.671875 5.535156 -4.765625 5.765625 -4.953125 C 6.003906 -5.148438 6.125 -5.425781 6.125 -5.78125 C 6.125 -6.132812 6.003906 -6.40625 5.765625 -6.59375 C 5.535156 -6.789062 5.21875 -6.890625 4.8125 -6.890625 L 2.828125 -6.890625 Z M 2.828125 -4.671875 "/></g></g></g><g fill="#000000" fill-opacity="1"><g transform="translate(172.916055, 120.347504)"><g><path d="M 1.015625 0 L 1.015625 -8.40625 L 2.828125 -8.40625 L 2.828125 0 Z M 1.015625 0 "/></g></g></g><g fill="#000000" fill-opacity="1"><g transform="translate(176.757649, 120.347504)"><g><path d="M 1.015625 0 L 1.015625 -8.40625 L 7.359375 -8.40625 L 7.359375 -6.890625 L 2.828125 -6.890625 L 2.828125 -5.0625 L 6.25 -5.0625 L 6.25 -3.578125 L 2.828125 -3.578125 L 2.828125 -1.515625 L 7.359375 -1.515625 L 7.359375 0 Z M 1.015625 0 "/></g></g></g><g fill="#000000" fill-opacity="1"><g transform="translate(184.680937, 120.347504)"><g><path d="M 1.015625 0 L 1.015625 -8.40625 L 3.8125 -8.40625 L 7.546875 -2.15625 L 8.09375 -2.53125 C 7.757812 -3.082031 7.546875 -3.507812 7.453125 -3.8125 C 7.359375 -4.113281 7.3125 -4.585938 7.3125 -5.234375 L 7.3125 -8.40625 L 9.125 -8.40625 L 9.125 0 L 6.9375 0 L 2.578125 -7.296875 L 2.03125 -6.953125 C 2.320312 -6.398438 2.523438 -5.925781 2.640625 -5.53125 C 2.765625 -5.132812 2.828125 -4.628906 2.828125 -4.015625 L 2.828125 0 Z M 1.015625 0 "/></g></g></g><g fill="#000000" fill-opacity="1"><g transform="translate(194.825148, 120.347504)"><g><path d="M 1.015625 0 L 1.015625 -8.40625 L 4.171875 -8.40625 C 5.410156 -8.414062 6.460938 -8.035156 7.328125 -7.265625 C 8.203125 -6.503906 8.628906 -5.503906 8.609375 -4.265625 C 8.628906 -2.992188 8.203125 -1.957031 7.328125 -1.15625 C 6.460938 -0.363281 5.410156 0.0195312 4.171875 0 Z M 2.828125 -1.515625 L 4.09375 -1.515625 C 5.851562 -1.515625 6.734375 -2.414062 6.734375 -4.21875 C 6.734375 -5.039062 6.507812 -5.691406 6.0625 -6.171875 C 5.625 -6.648438 4.988281 -6.890625 4.15625 -6.890625 L 2.828125 -6.890625 Z M 2.828125 -1.515625 "/></g></g></g><g fill="#000000" fill-opacity="1"><g transform="translate(203.948935, 120.347504)"><g><path d="M 0.34375 -2.40625 L 2.046875 -2.96875 C 2.148438 -2.488281 2.378906 -2.082031 2.734375 -1.75 C 3.097656 -1.425781 3.578125 -1.265625 4.171875 -1.265625 C 4.710938 -1.265625 5.117188 -1.359375 5.390625 -1.546875 C 5.671875 -1.742188 5.8125 -2.007812 5.8125 -2.34375 C 5.8125 -2.894531 5.359375 -3.238281 4.453125 -3.375 L 3.40625 -3.515625 C 1.632812 -3.765625 0.75 -4.601562 0.75 -6.03125 C 0.75 -6.757812 1.046875 -7.367188 1.640625 -7.859375 C 2.242188 -8.347656 3.054688 -8.59375 4.078125 -8.59375 C 5.054688 -8.59375 5.835938 -8.382812 6.421875 -7.96875 C 7.015625 -7.5625 7.414062 -7.019531 7.625 -6.34375 L 5.953125 -5.765625 C 5.660156 -6.679688 5.035156 -7.140625 4.078125 -7.140625 C 3.609375 -7.140625 3.253906 -7.039062 3.015625 -6.84375 C 2.773438 -6.65625 2.65625 -6.410156 2.65625 -6.109375 C 2.65625 -5.609375 3.015625 -5.304688 3.734375 -5.203125 L 4.78125 -5.0625 C 5.71875 -4.9375 6.441406 -4.648438 6.953125 -4.203125 C 7.460938 -3.765625 7.71875 -3.179688 7.71875 -2.453125 C 7.71875 -1.679688 7.410156 -1.046875 6.796875 -0.546875 C 6.191406 -0.0546875 5.316406 0.1875 4.171875 0.1875 C 3.097656 0.1875 2.234375 -0.0507812 1.578125 -0.53125 C 0.921875 -1.007812 0.507812 -1.632812 0.34375 -2.40625 Z M 0.34375 -2.40625 "/></g></g></g><g fill="#000000" fill-opacity="1"><g transform="translate(78.519728, 75.166281)"><g><path d="M 0.34375 -2.40625 L 2.046875 -2.96875 C 2.148438 -2.488281 2.378906 -2.082031 2.734375 -1.75 C 3.097656 -1.425781 3.578125 -1.265625 4.171875 -1.265625 C 4.710938 -1.265625 5.117188 -1.359375 5.390625 -1.546875 C 5.671875 -1.742188 5.8125 -2.007812 5.8125 -2.34375 C 5.8125 -2.894531 5.359375 -3.238281 4.453125 -3.375 L 3.40625 -3.515625 C 1.632812 -3.765625 0.75 -4.601562 0.75 -6.03125 C 0.75 -6.757812 1.046875 -7.367188 1.640625 -7.859375 C 2.242188 -8.347656 3.054688 -8.59375 4.078125 -8.59375 C 5.054688 -8.59375 5.835938 -8.382812 6.421875 -7.96875 C 7.015625 -7.5625 7.414062 -7.019531 7.625 -6.34375 L 5.953125 -5.765625 C 5.660156 -6.679688 5.035156 -7.140625 4.078125 -7.140625 C 3.609375 -7.140625 3.253906 -7.039062 3.015625 -6.84375 C 2.773438 -6.65625 2.65625 -6.410156 2.65625 -6.109375 C 2.65625 -5.609375 3.015625 -5.304688 3.734375 -5.203125 L 4.78125 -5.0625 C 5.71875 -4.9375 6.441406 -4.648438 6.953125 -4.203125 C 7.460938 -3.765625 7.71875 -3.179688 7.71875 -2.453125 C 7.71875 -1.679688 7.410156 -1.046875 6.796875 -0.546875 C 6.191406 -0.0546875 5.316406 0.1875 4.171875 0.1875 C 3.097656 0.1875 2.234375 -0.0507812 1.578125 -0.53125 C 0.921875 -1.007812 0.507812 -1.632812 0.34375 -2.40625 Z M 0.34375 -2.40625 "/></g></g></g><g fill="#000000" fill-opacity="1"><g transform="translate(86.74314, 75.166281)"><g><path d="M 1.015625 0 L 1.015625 -8.40625 L 2.828125 -8.40625 L 2.828125 -5.078125 L 6.4375 -5.078125 L 6.4375 -8.40625 L 8.25 -8.40625 L 8.25 0 L 6.4375 0 L 6.4375 -3.5625 L 2.828125 -3.5625 L 2.828125 0 Z M 1.015625 0 "/></g></g></g><g fill="#000000" fill-opacity="1"><g transform="translate(96.010986, 75.166281)"><g><path d="M 0.5 -4.171875 C 0.5 -5.453125 0.910156 -6.507812 1.734375 -7.34375 C 2.554688 -8.175781 3.640625 -8.59375 4.984375 -8.59375 C 6.335938 -8.59375 7.425781 -8.175781 8.25 -7.34375 C 9.070312 -6.507812 9.484375 -5.453125 9.484375 -4.171875 C 9.492188 -2.898438 9.085938 -1.851562 8.265625 -1.03125 C 7.441406 -0.207031 6.347656 0.195312 4.984375 0.1875 C 3.628906 0.195312 2.539062 -0.207031 1.71875 -1.03125 C 0.894531 -1.851562 0.488281 -2.898438 0.5 -4.171875 Z M 7.578125 -4.1875 C 7.578125 -5.039062 7.34375 -5.734375 6.875 -6.265625 C 6.414062 -6.804688 5.789062 -7.078125 5 -7.078125 C 4.195312 -7.078125 3.5625 -6.804688 3.09375 -6.265625 C 2.632812 -5.734375 2.40625 -5.039062 2.40625 -4.1875 C 2.40625 -3.34375 2.632812 -2.648438 3.09375 -2.109375 C 3.5625 -1.578125 4.195312 -1.3125 5 -1.3125 C 5.789062 -1.3125 6.414062 -1.578125 6.875 -2.109375 C 7.34375 -2.648438 7.578125 -3.34375 7.578125 -4.1875 Z M 7.578125 -4.1875 "/></g></g></g><g fill="#000000" fill-opacity="1"><g transform="translate(105.999132, 75.166281)"><g><path d="M 1.015625 0 L 1.015625 -8.40625 L 7.359375 -8.40625 L 7.359375 -6.890625 L 2.828125 -6.890625 L 2.828125 -5.0625 L 6.25 -5.0625 L 6.25 -3.578125 L 2.828125 -3.578125 L 2.828125 -1.515625 L 7.359375 -1.515625 L 7.359375 0 Z M 1.015625 0 "/></g></g></g><g fill="#000000" fill-opacity="1"><g transform="translate(113.922419, 75.166281)"><g><path d="M 0.34375 -2.40625 L 2.046875 -2.96875 C 2.148438 -2.488281 2.378906 -2.082031 2.734375 -1.75 C 3.097656 -1.425781 3.578125 -1.265625 4.171875 -1.265625 C 4.710938 -1.265625 5.117188 -1.359375 5.390625 -1.546875 C 5.671875 -1.742188 5.8125 -2.007812 5.8125 -2.34375 C 5.8125 -2.894531 5.359375 -3.238281 4.453125 -3.375 L 3.40625 -3.515625 C 1.632812 -3.765625 0.75 -4.601562 0.75 -6.03125 C 0.75 -6.757812 1.046875 -7.367188 1.640625 -7.859375 C 2.242188 -8.347656 3.054688 -8.59375 4.078125 -8.59375 C 5.054688 -8.59375 5.835938 -8.382812 6.421875 -7.96875 C 7.015625 -7.5625 7.414062 -7.019531 7.625 -6.34375 L 5.953125 -5.765625 C 5.660156 -6.679688 5.035156 -7.140625 4.078125 -7.140625 C 3.609375 -7.140625 3.253906 -7.039062 3.015625 -6.84375 C 2.773438 -6.65625 2.65625 -6.410156 2.65625 -6.109375 C 2.65625 -5.609375 3.015625 -5.304688 3.734375 -5.203125 L 4.78125 -5.0625 C 5.71875 -4.9375 6.441406 -4.648438 6.953125 -4.203125 C 7.460938 -3.765625 7.71875 -3.179688 7.71875 -2.453125 C 7.71875 -1.679688 7.410156 -1.046875 6.796875 -0.546875 C 6.191406 -0.0546875 5.316406 0.1875 4.171875 0.1875 C 3.097656 0.1875 2.234375 -0.0507812 1.578125 -0.53125 C 0.921875 -1.007812 0.507812 -1.632812 0.34375 -2.40625 Z M 0.34375 -2.40625 "/></g></g></g><g fill="#000000" fill-opacity="1"><g transform="translate(208.714872, 74.030319)"><g><path d="M 0.484375 -4.21875 C 0.472656 -5.445312 0.882812 -6.484375 1.71875 -7.328125 C 2.550781 -8.179688 3.597656 -8.601562 4.859375 -8.59375 C 5.828125 -8.59375 6.65625 -8.351562 7.34375 -7.875 C 8.039062 -7.394531 8.503906 -6.769531 8.734375 -6 L 7.09375 -5.359375 C 6.6875 -6.503906 5.9375 -7.078125 4.84375 -7.078125 C 4.082031 -7.078125 3.484375 -6.820312 3.046875 -6.3125 C 2.617188 -5.8125 2.40625 -5.113281 2.40625 -4.21875 C 2.40625 -3.300781 2.617188 -2.585938 3.046875 -2.078125 C 3.472656 -1.578125 4.070312 -1.328125 4.84375 -1.328125 C 5.957031 -1.328125 6.722656 -1.90625 7.140625 -3.0625 L 8.75 -2.40625 C 8.4375 -1.570312 7.945312 -0.929688 7.28125 -0.484375 C 6.625 -0.0351562 5.8125 0.1875 4.84375 0.1875 C 3.539062 0.1875 2.488281 -0.222656 1.6875 -1.046875 C 0.882812 -1.867188 0.484375 -2.925781 0.484375 -4.21875 Z M 0.484375 -4.21875 "/></g></g></g><g fill="#000000" fill-opacity="1"><g transform="translate(217.778632, 74.030319)"><g><path d="M 1.015625 0 L 1.015625 -8.40625 L 2.828125 -8.40625 L 2.828125 -1.546875 L 7.359375 -1.546875 L 7.359375 0 Z M 1.015625 0 "/></g></g></g><g fill="#000000" fill-opacity="1"><g transform="translate(225.257735, 74.030319)"><g><path d="M 0.5 -4.171875 C 0.5 -5.453125 0.910156 -6.507812 1.734375 -7.34375 C 2.554688 -8.175781 3.640625 -8.59375 4.984375 -8.59375 C 6.335938 -8.59375 7.425781 -8.175781 8.25 -7.34375 C 9.070312 -6.507812 9.484375 -5.453125 9.484375 -4.171875 C 9.492188 -2.898438 9.085938 -1.851562 8.265625 -1.03125 C 7.441406 -0.207031 6.347656 0.195312 4.984375 0.1875 C 3.628906 0.195312 2.539062 -0.207031 1.71875 -1.03125 C 0.894531 -1.851562 0.488281 -2.898438 0.5 -4.171875 Z M 7.578125 -4.1875 C 7.578125 -5.039062 7.34375 -5.734375 6.875 -6.265625 C 6.414062 -6.804688 5.789062 -7.078125 5 -7.078125 C 4.195312 -7.078125 3.5625 -6.804688 3.09375 -6.265625 C 2.632812 -5.734375 2.40625 -5.039062 2.40625 -4.1875 C 2.40625 -3.34375 2.632812 -2.648438 3.09375 -2.109375 C 3.5625 -1.578125 4.195312 -1.3125 5 -1.3125 C 5.789062 -1.3125 6.414062 -1.578125 6.875 -2.109375 C 7.34375 -2.648438 7.578125 -3.34375 7.578125 -4.1875 Z M 7.578125 -4.1875 "/></g></g></g><g fill="#000000" fill-opacity="1"><g transform="translate(235.245881, 74.030319)"><g><path d="M 3 0 L 3 -6.890625 L 0.125 -6.890625 L 0.125 -8.40625 L 7.703125 -8.40625 L 7.703125 -6.890625 L 4.828125 -6.890625 L 4.828125 0 Z M 3 0 "/></g></g></g><g fill="#000000" fill-opacity="1"><g transform="translate(243.073129, 74.030319)"><g><path d="M 1.015625 0 L 1.015625 -8.40625 L 2.828125 -8.40625 L 2.828125 -5.078125 L 6.4375 -5.078125 L 6.4375 -8.40625 L 8.25 -8.40625 L 8.25 0 L 6.4375 0 L 6.4375 -3.5625 L 2.828125 -3.5625 L 2.828125 0 Z M 1.015625 0 "/></g></g></g><g fill="#000000" fill-opacity="1"><g transform="translate(252.340975, 74.030319)"><g><path d="M 1.015625 0 L 1.015625 -8.40625 L 7.359375 -8.40625 L 7.359375 -6.890625 L 2.828125 -6.890625 L 2.828125 -5.0625 L 6.25 -5.0625 L 6.25 -3.578125 L 2.828125 -3.578125 L 2.828125 -1.515625 L 7.359375 -1.515625 L 7.359375 0 Z M 1.015625 0 "/></g></g></g><g fill="#000000" fill-opacity="1"><g transform="translate(260.264262, 74.030319)"><g><path d="M 0.34375 -2.40625 L 2.046875 -2.96875 C 2.148438 -2.488281 2.378906 -2.082031 2.734375 -1.75 C 3.097656 -1.425781 3.578125 -1.265625 4.171875 -1.265625 C 4.710938 -1.265625 5.117188 -1.359375 5.390625 -1.546875 C 5.671875 -1.742188 5.8125 -2.007812 5.8125 -2.34375 C 5.8125 -2.894531 5.359375 -3.238281 4.453125 -3.375 L 3.40625 -3.515625 C 1.632812 -3.765625 0.75 -4.601562 0.75 -6.03125 C 0.75 -6.757812 1.046875 -7.367188 1.640625 -7.859375 C 2.242188 -8.347656 3.054688 -8.59375 4.078125 -8.59375 C 5.054688 -8.59375 5.835938 -8.382812 6.421875 -7.96875 C 7.015625 -7.5625 7.414062 -7.019531 7.625 -6.34375 L 5.953125 -5.765625 C 5.660156 -6.679688 5.035156 -7.140625 4.078125 -7.140625 C 3.609375 -7.140625 3.253906 -7.039062 3.015625 -6.84375 C 2.773438 -6.65625 2.65625 -6.410156 2.65625 -6.109375 C 2.65625 -5.609375 3.015625 -5.304688 3.734375 -5.203125 L 4.78125 -5.0625 C 5.71875 -4.9375 6.441406 -4.648438 6.953125 -4.203125 C 7.460938 -3.765625 7.71875 -3.179688 7.71875 -2.453125 C 7.71875 -1.679688 7.410156 -1.046875 6.796875 -0.546875 C 6.191406 -0.0546875 5.316406 0.1875 4.171875 0.1875 C 3.097656 0.1875 2.234375 -0.0507812 1.578125 -0.53125 C 0.921875 -1.007812 0.507812 -1.632812 0.34375 -2.40625 Z M 0.34375 -2.40625 "/></g></g></g></svg>