<svg xmlns="http://www.w3.org/2000/svg" xmlns:xlink="http://www.w3.org/1999/xlink" width="1240" zoomAndPan="magnify" viewBox="0 0 930 221.249992" height="295" preserveAspectRatio="xMidYMid meet" version="1.0"><defs><g/><clipPath id="24ac49843b"><path d="M 351 43.71875 L 358 43.71875 L 358 62 L 351 62 Z M 351 43.71875 " clip-rule="nonzero"/></clipPath><clipPath id="26f7612acd"><path d="M 351 61 L 358 61 L 358 79.597656 L 351 79.597656 Z M 351 61 " clip-rule="nonzero"/></clipPath><clipPath id="1336f8c611"><path d="M 336.554688 58 L 355 58 L 355 65 L 336.554688 65 Z M 336.554688 58 " clip-rule="nonzero"/></clipPath><clipPath id="d31dd7ba64"><path d="M 632 45.113281 L 669.683594 45.113281 L 669.683594 78 L 632 78 Z M 632 45.113281 " clip-rule="nonzero"/></clipPath><clipPath id="94257a8de7"><path d="M 228 89.101562 L 267 89.101562 L 267 127.96875 L 228 127.96875 Z M 228 89.101562 " clip-rule="nonzero"/></clipPath><clipPath id="aabe157aac"><path d="M 376.132812 87.148438 L 419.484375 87.148438 L 419.484375 129.753906 L 376.132812 129.753906 Z M 376.132812 87.148438 " clip-rule="nonzero"/></clipPath><clipPath id="3671a3f0df"><path d="M 400 110 L 419 110 L 419 129.753906 L 400 129.753906 Z M 400 110 " clip-rule="nonzero"/></clipPath><clipPath id="d02659af02"><path d="M 376.132812 87.148438 L 396 87.148438 L 396 107 L 376.132812 107 Z M 376.132812 87.148438 " clip-rule="nonzero"/></clipPath><clipPath id="5556ff0f83"><path d="M 307.46875 136.546875 L 350.824219 136.546875 L 350.824219 179.902344 L 307.46875 179.902344 Z M 307.46875 136.546875 " clip-rule="nonzero"/></clipPath><clipPath id="242557aa9c"><path d="M 453 136.546875 L 495 136.546875 L 495 178 L 453 178 Z M 453 136.546875 " clip-rule="nonzero"/></clipPath><clipPath id="9cb33ff164"><path d="M 621.277344 132.765625 L 669.117188 132.765625 L 669.117188 175.371094 L 621.277344 175.371094 Z M 621.277344 132.765625 " clip-rule="nonzero"/></clipPath><clipPath id="fac5fdbac0"><path d="M 627 86.136719 L 632 86.136719 L 632 99 L 627 99 Z M 627 86.136719 " clip-rule="nonzero"/></clipPath><clipPath id="b32ba7fdfd"><path d="M 627 117 L 632 117 L 632 129.488281 L 627 129.488281 Z M 627 117 " clip-rule="nonzero"/></clipPath></defs><g clip-path="url(#24ac49843b)"><path fill="#c7b9ff" d="M 351.835938 43.71875 L 357.773438 43.71875 L 355.792969 61.660156 L 353.816406 61.660156 Z M 351.835938 43.71875 " fill-opacity="1" fill-rule="nonzero"/></g><g clip-path="url(#26f7612acd)"><path fill="#c7b9ff" d="M 357.773438 79.597656 L 351.835938 79.597656 L 353.816406 61.660156 L 355.796875 61.660156 Z M 357.773438 79.597656 " fill-opacity="1" fill-rule="nonzero"/></g><path fill="#c7b9ff" d="M 344.308594 76.457031 L 340.109375 72.230469 L 354.105469 60.953125 L 355.507812 62.363281 Z M 344.308594 76.457031 " fill-opacity="1" fill-rule="nonzero"/><path fill="#c7b9ff" d="M 365.300781 46.859375 L 369.5 51.089844 L 355.503906 62.363281 L 354.105469 60.953125 Z M 365.300781 46.859375 " fill-opacity="1" fill-rule="nonzero"/><path fill="#c7b9ff" d="M 340.113281 51.085938 L 344.3125 46.859375 L 355.507812 60.953125 L 354.109375 62.363281 Z M 340.113281 51.085938 " fill-opacity="1" fill-rule="nonzero"/><path fill="#c7b9ff" d="M 369.503906 72.230469 L 365.304688 76.457031 L 354.105469 62.363281 L 355.507812 60.953125 Z M 369.503906 72.230469 " fill-opacity="1" fill-rule="nonzero"/><g clip-path="url(#1336f8c611)"><path fill="#c7b9ff" d="M 336.992188 64.648438 L 336.992188 58.667969 L 354.808594 60.660156 L 354.808594 62.65625 Z M 336.992188 64.648438 " fill-opacity="1" fill-rule="nonzero"/></g><path fill="#c7b9ff" d="M 372.621094 58.667969 L 372.621094 64.648438 L 354.808594 62.65625 L 354.808594 60.664062 Z M 372.621094 58.667969 " fill-opacity="1" fill-rule="nonzero"/><g clip-path="url(#d31dd7ba64)"><path fill="#f24e1e" d="M 632.027344 49.222656 L 632.027344 45.113281 L 669.21875 45.113281 L 669.21875 49.222656 C 660.953125 49.222656 654.753906 55.390625 654.753906 61.558594 C 654.753906 67.722656 660.953125 73.890625 669.21875 73.890625 L 669.21875 78 L 632.027344 78 L 632.027344 73.890625 C 640.292969 73.890625 646.492188 67.722656 646.492188 61.558594 C 646.492188 55.390625 640.292969 49.222656 632.027344 49.222656 Z M 632.027344 49.222656 " fill-opacity="1" fill-rule="nonzero"/></g><g clip-path="url(#94257a8de7)"><path fill="#f24e1e" d="M 234.722656 89.101562 L 251.847656 89.101562 L 266.832031 99.898438 L 245.425781 115.011719 L 260.410156 127.96875 L 243.285156 127.96875 L 228.300781 115.011719 L 249.707031 99.898438 Z M 234.722656 89.101562 " fill-opacity="1" fill-rule="nonzero"/></g><g clip-path="url(#aabe157aac)"><path stroke-linecap="butt" transform="matrix(1.109771, 0, 0, 1.121199, 376.168825, 87.147254)" fill="none" stroke-linejoin="miter" d="M 36.29612 8.44277 C 36.29612 8.860849 36.253882 9.27196 36.172925 9.679587 C 36.091968 10.087215 35.972292 10.48439 35.813898 10.867629 C 35.655504 11.250868 35.458391 11.616687 35.2296 11.961603 C 34.997288 12.306518 34.736818 12.627045 34.441149 12.923185 C 34.14548 13.21584 33.828692 13.47714 33.480225 13.710567 C 33.135277 13.940511 32.769211 14.135614 32.385545 14.295878 C 32.00188 14.452657 31.607654 14.574597 31.199349 14.654729 C 30.791044 14.734861 30.37922 14.776669 29.963875 14.776669 C 29.548531 14.776669 29.136706 14.734861 28.728401 14.654729 C 28.320096 14.574597 27.922351 14.452657 27.538685 14.295878 C 27.15502 14.135614 26.788953 13.940511 26.444006 13.710567 C 26.099059 13.47714 25.778751 13.21584 25.486602 12.923185 C 25.190932 12.627045 24.926942 12.306518 24.698151 11.961603 C 24.465839 11.616687 24.272247 11.250868 24.110333 10.867629 C 23.951939 10.48439 23.832263 10.087215 23.751306 9.679587 C 23.670349 9.27196 23.63163 8.860849 23.63163 8.44277 C 23.63163 8.028175 23.670349 7.617064 23.751306 7.209437 C 23.832263 6.801809 23.951939 6.404634 24.110333 6.021395 C 24.272247 5.634672 24.465839 5.272337 24.698151 4.923937 C 24.926942 4.579022 25.190932 4.258495 25.486602 3.965839 C 25.778751 3.673184 26.099059 3.4084 26.444006 3.178457 C 26.788953 2.948513 27.15502 2.75341 27.538685 2.593146 C 27.922351 2.432883 28.320096 2.314427 28.728401 2.234295 C 29.136706 2.150679 29.548531 2.112355 29.963875 2.112355 C 30.37922 2.112355 30.791044 2.150679 31.199349 2.234295 C 31.607654 2.314427 32.00188 2.432883 32.385545 2.593146 C 32.769211 2.75341 33.135277 2.948513 33.480225 3.178457 C 33.828692 3.4084 34.14548 3.673184 34.441149 3.965839 C 34.736818 4.258495 34.997288 4.579022 35.2296 4.923937 C 35.458391 5.272337 35.655504 5.634672 35.813898 6.021395 C 35.972292 6.404634 36.091968 6.801809 36.172925 7.209437 C 36.253882 7.617064 36.29612 8.028175 36.29612 8.44277 Z M 36.29612 8.44277 " stroke="#0fa958" stroke-width="4.222" stroke-opacity="1" stroke-miterlimit="4"/><path stroke-linecap="butt" transform="matrix(1.109771, 0, 0, 1.121199, 376.168825, 87.147254)" fill="none" stroke-linejoin="miter" d="M 15.187464 29.555766 C 15.187464 29.970361 15.145226 30.384956 15.064269 30.792583 C 14.983312 31.200211 14.863636 31.593902 14.705242 31.980625 C 14.546848 32.363864 14.349735 32.729683 14.120944 33.074599 C 13.888632 33.419514 13.624642 33.740041 13.332493 34.032697 C 13.036824 34.328836 12.716516 34.590135 12.371569 34.820079 C 12.026621 35.053507 11.660555 35.24861 11.276889 35.40539 C 10.893223 35.565653 10.498998 35.687593 10.090693 35.767725 C 9.682388 35.847857 9.270564 35.889665 8.855219 35.889665 C 8.439875 35.889665 8.02805 35.847857 7.619745 35.767725 C 7.21144 35.687593 6.813695 35.565653 6.430029 35.40539 C 6.046364 35.24861 5.680297 35.053507 5.33535 34.820079 C 4.990403 34.590135 4.670095 34.328836 4.374426 34.032697 C 4.082276 33.740041 3.818286 33.419514 3.589495 33.074599 C 3.357183 32.729683 3.163591 32.363864 3.001677 31.980625 C 2.843282 31.593902 2.723607 31.200211 2.64265 30.792583 C 2.561693 30.384956 2.519454 29.970361 2.519454 29.555766 C 2.519454 29.141171 2.561693 28.73006 2.64265 28.318949 C 2.723607 27.911321 2.843282 27.51763 3.001677 27.130907 C 3.163591 26.747668 3.357183 26.381849 3.589495 26.036933 C 3.818286 25.692018 4.082276 25.371491 4.374426 25.078835 C 4.670095 24.782696 4.990403 24.521396 5.33535 24.291453 C 5.680297 24.058025 6.046364 23.862922 6.430029 23.706142 C 6.813695 23.545879 7.21144 23.427423 7.619745 23.343807 C 8.02805 23.263675 8.439875 23.221867 8.855219 23.221867 C 9.270564 23.221867 9.682388 23.263675 10.090693 23.343807 C 10.498998 23.427423 10.893223 23.545879 11.276889 23.706142 C 11.660555 23.862922 12.026621 24.058025 12.371569 24.291453 C 12.716516 24.521396 13.036824 24.782696 13.332493 25.078835 C 13.624642 25.371491 13.888632 25.692018 14.120944 26.036933 C 14.349735 26.381849 14.546848 26.747668 14.705242 27.130907 C 14.863636 27.51763 14.983312 27.911321 15.064269 28.318949 C 15.145226 28.73006 15.187464 29.141171 15.187464 29.555766 Z M 15.187464 29.555766 " stroke="#0fa958" stroke-width="4.222" stroke-opacity="1" stroke-miterlimit="4"/></g><g clip-path="url(#3671a3f0df)"><path stroke-linecap="butt" transform="matrix(1.109771, 0, 0, 1.121199, 376.168825, 87.147254)" fill="none" stroke-linejoin="miter" d="M 23.63163 23.221867 L 36.29612 23.221867 L 36.29612 35.889665 L 23.63163 35.889665 Z M 23.63163 23.221867 " stroke="#0fa958" stroke-width="4.222" stroke-opacity="1" stroke-miterlimit="4"/></g><g clip-path="url(#d02659af02)"><path stroke-linecap="butt" transform="matrix(1.109771, 0, 0, 1.121199, 376.168825, 87.147254)" fill="none" stroke-linejoin="miter" d="M 2.519454 2.112355 L 15.187464 2.112355 L 15.187464 14.776669 L 2.519454 14.776669 Z M 2.519454 2.112355 " stroke="#0fa958" stroke-width="4.222" stroke-opacity="1" stroke-miterlimit="4"/></g><g clip-path="url(#5556ff0f83)"><path stroke-linecap="butt" transform="matrix(1.171704, 0, 0, 1.171704, 307.469823, 136.548053)" fill="none" stroke-linejoin="miter" d="M 28.903309 3.286142 L 8.333636 18.011627 C 4.366389 20.848709 3.902988 26.566211 7.353492 30.006714 C 10.797329 33.440549 16.498162 32.97048 19.33191 29.016569 L 34.067397 8.453564 C 35.114217 6.99335 34.960861 4.993058 33.70401 3.709537 C 32.427157 2.402679 30.390193 2.225987 28.903309 3.286142 Z M 28.903309 3.286142 " stroke="#c7b9ff" stroke-width="4.132" stroke-opacity="1" stroke-miterlimit="4"/></g><g clip-path="url(#242557aa9c)"><path fill="#ffc700" d="M 473.738281 159.753906 C 466.863281 159.753906 464.570312 165.085938 464.570312 168.855469 C 464.570312 172.625 466.863281 177.957031 473.738281 177.957031 L 489.785156 177.957031 L 489.785156 171.128906 L 473.738281 171.128906 C 472.472656 171.128906 471.445312 170.113281 471.445312 168.855469 C 471.445312 167.597656 472.472656 166.578125 473.738281 166.578125 L 485.199219 166.578125 C 489.785156 166.578125 494.371094 164.304688 494.371094 157.476562 C 494.371094 150.652344 489.554688 148.375 485.199219 148.375 L 462.277344 148.375 C 461.011719 148.375 459.984375 147.355469 459.984375 146.097656 C 459.984375 144.84375 461.011719 143.824219 462.277344 143.824219 L 479.46875 143.824219 C 481.367188 143.824219 482.910156 142.296875 482.910156 140.410156 C 482.910156 138.527344 481.367188 136.996094 479.46875 136.996094 L 462.277344 136.996094 C 455.398438 136.996094 453.109375 142.328125 453.109375 146.097656 C 453.109375 149.871094 455.398438 155.203125 462.277344 155.203125 L 485.199219 155.203125 C 486.46875 155.203125 487.492188 156.21875 487.492188 157.476562 C 487.492188 158.734375 486.46875 159.753906 485.199219 159.753906 Z M 473.738281 159.753906 " fill-opacity="1" fill-rule="nonzero"/></g><g clip-path="url(#9cb33ff164)"><path stroke-linecap="butt" transform="matrix(1.258692, 0, 0, 1.253105, 621.281664, 132.765465)" fill="none" stroke-linejoin="miter" d="M 18.651224 4.688481 L 33.71212 31.45948 L 3.590328 31.45948 Z M 18.651224 4.688481 " stroke="#0fa958" stroke-width="4.132" stroke-opacity="1" stroke-miterlimit="4"/></g><path fill="#0fa958" d="M 650.476562 164.421875 L 639.039062 164.421875 L 644.757812 154.070312 Z M 650.476562 164.421875 " fill-opacity="1" fill-rule="nonzero"/><g clip-path="url(#fac5fdbac0)"><path fill="#ffc700" d="M 627.144531 86.601562 L 631.859375 86.601562 L 631.859375 98.386719 L 627.144531 98.386719 Z M 627.144531 86.601562 " fill-opacity="1" fill-rule="nonzero"/></g><g clip-path="url(#b32ba7fdfd)"><path fill="#ffc700" d="M 627.144531 117.242188 L 631.859375 117.242188 L 631.859375 129.023438 L 627.144531 129.023438 Z M 627.144531 117.242188 " fill-opacity="1" fill-rule="nonzero"/></g><path fill="#ffc700" d="M 612.539062 94.152344 L 615.835938 90.855469 L 624.636719 99.65625 L 621.34375 102.953125 Z M 612.539062 94.152344 " fill-opacity="1" fill-rule="nonzero"/><path fill="#ffc700" d="M 634.210938 115.820312 L 637.507812 112.527344 L 646.308594 121.328125 L 643.011719 124.625 Z M 634.210938 115.820312 " fill-opacity="1" fill-rule="nonzero"/><path fill="#ffc700" d="M 646.3125 94.152344 L 643.015625 90.855469 L 634.214844 99.65625 L 637.507812 102.953125 Z M 646.3125 94.152344 " fill-opacity="1" fill-rule="nonzero"/><path fill="#ffc700" d="M 624.640625 115.824219 L 621.34375 112.527344 L 612.542969 121.328125 L 615.835938 124.625 Z M 624.640625 115.824219 " fill-opacity="1" fill-rule="nonzero"/><path fill="#ffc700" d="M 608.289062 110.171875 L 608.289062 105.457031 L 620.070312 105.457031 L 620.070312 110.171875 Z M 608.289062 110.171875 " fill-opacity="1" fill-rule="nonzero"/><path fill="#ffc700" d="M 638.925781 110.171875 L 638.925781 105.457031 L 650.710938 105.457031 L 650.710938 110.171875 Z M 638.925781 110.171875 " fill-opacity="1" fill-rule="nonzero"/><g fill="#000000" fill-opacity="1"><g transform="translate(189.315396, 72.084347)"><g><path d="M 0.875 -6.28125 L 5.375 -7.78125 C 5.644531 -6.507812 6.25 -5.441406 7.1875 -4.578125 C 8.125 -3.722656 9.367188 -3.296875 10.921875 -3.296875 C 12.347656 -3.296875 13.421875 -3.546875 14.140625 -4.046875 C 14.859375 -4.546875 15.21875 -5.238281 15.21875 -6.125 C 15.21875 -7.5625 14.023438 -8.460938 11.640625 -8.828125 L 8.921875 -9.203125 C 4.296875 -9.847656 1.984375 -12.046875 1.984375 -15.796875 C 1.984375 -17.691406 2.757812 -19.273438 4.3125 -20.546875 C 5.875 -21.828125 7.992188 -22.46875 10.671875 -22.46875 C 13.222656 -22.46875 15.269531 -21.929688 16.8125 -20.859375 C 18.363281 -19.785156 19.414062 -18.367188 19.96875 -16.609375 L 15.5625 -15.0625 C 14.789062 -17.46875 13.160156 -18.671875 10.671875 -18.671875 C 9.441406 -18.671875 8.507812 -18.421875 7.875 -17.921875 C 7.25 -17.421875 6.9375 -16.773438 6.9375 -15.984375 C 6.9375 -14.679688 7.878906 -13.894531 9.765625 -13.625 L 12.5 -13.25 C 14.945312 -12.914062 16.835938 -12.171875 18.171875 -11.015625 C 19.515625 -9.867188 20.1875 -8.34375 20.1875 -6.4375 C 20.1875 -4.40625 19.390625 -2.738281 17.796875 -1.4375 C 16.203125 -0.144531 13.910156 0.5 10.921875 0.5 C 8.117188 0.5 5.859375 -0.125 4.140625 -1.375 C 2.421875 -2.632812 1.332031 -4.269531 0.875 -6.28125 Z M 0.875 -6.28125 "/></g></g></g><g fill="#000000" fill-opacity="1"><g transform="translate(210.820023, 72.084347)"><g><path d="M 2.640625 0 L 2.640625 -21.96875 L 7.40625 -21.96875 L 7.40625 -13.28125 L 16.828125 -13.28125 L 16.828125 -21.96875 L 21.59375 -21.96875 L 21.59375 0 L 16.828125 0 L 16.828125 -9.328125 L 7.40625 -9.328125 L 7.40625 0 Z M 2.640625 0 "/></g></g></g><g fill="#000000" fill-opacity="1"><g transform="translate(235.055897, 72.084347)"><g><path d="M 1.3125 -10.921875 C 1.3125 -14.273438 2.382812 -17.035156 4.53125 -19.203125 C 6.675781 -21.378906 9.515625 -22.46875 13.046875 -22.46875 C 16.585938 -22.46875 19.429688 -21.378906 21.578125 -19.203125 C 23.722656 -17.035156 24.796875 -14.273438 24.796875 -10.921875 C 24.835938 -7.597656 23.78125 -4.859375 21.625 -2.703125 C 19.46875 -0.546875 16.613281 0.519531 13.0625 0.5 C 9.5 0.519531 6.640625 -0.546875 4.484375 -2.703125 C 2.328125 -4.859375 1.269531 -7.597656 1.3125 -10.921875 Z M 19.8125 -10.953125 C 19.8125 -13.191406 19.203125 -15.007812 17.984375 -16.40625 C 16.773438 -17.8125 15.144531 -18.515625 13.09375 -18.515625 C 11 -18.515625 9.34375 -17.8125 8.125 -16.40625 C 6.914062 -15.007812 6.3125 -13.191406 6.3125 -10.953125 C 6.3125 -8.734375 6.914062 -6.925781 8.125 -5.53125 C 9.34375 -4.144531 11 -3.453125 13.09375 -3.453125 C 15.144531 -3.453125 16.773438 -4.144531 17.984375 -5.53125 C 19.203125 -6.925781 19.8125 -8.734375 19.8125 -10.953125 Z M 19.8125 -10.953125 "/></g></g></g><g fill="#000000" fill-opacity="1"><g transform="translate(261.175389, 72.084347)"><g><path d="M 2.640625 0 L 2.640625 -21.96875 L 12.5 -21.96875 C 14.863281 -21.96875 16.773438 -21.320312 18.234375 -20.03125 C 19.703125 -18.75 20.4375 -17.03125 20.4375 -14.875 C 20.4375 -12.71875 19.703125 -10.984375 18.234375 -9.671875 C 16.773438 -8.367188 14.875 -7.71875 12.53125 -7.71875 L 7.40625 -7.71875 L 7.40625 0 Z M 7.40625 -11.671875 L 11.640625 -11.671875 C 12.796875 -11.671875 13.722656 -11.957031 14.421875 -12.53125 C 15.117188 -13.113281 15.46875 -13.894531 15.46875 -14.875 C 15.46875 -15.820312 15.113281 -16.582031 14.40625 -17.15625 C 13.695312 -17.726562 12.773438 -18.015625 11.640625 -18.015625 L 7.40625 -18.015625 Z M 7.40625 -11.671875 "/></g></g></g><g fill="#000000" fill-opacity="1"><g transform="translate(282.366083, 72.084347)"><g><path d="M 2.640625 0 L 2.640625 -21.96875 L 7.40625 -21.96875 L 7.40625 -4.046875 L 19.25 -4.046875 L 19.25 0 Z M 2.640625 0 "/></g></g></g><g fill="#000000" fill-opacity="1"><g transform="translate(301.924305, 72.084347)"><g><path d="M 8.25 0 L 8.25 -8.953125 L 0.28125 -21.96875 L 5.8125 -21.96875 L 8.28125 -17.703125 C 8.75 -16.929688 9.097656 -16.1875 9.328125 -15.46875 C 9.660156 -14.550781 9.835938 -13.109375 9.859375 -11.140625 L 11.546875 -11.140625 C 11.585938 -12.628906 11.703125 -13.800781 11.890625 -14.65625 C 12.078125 -15.519531 12.507812 -16.554688 13.1875 -17.765625 L 15.46875 -21.96875 L 20.84375 -21.96875 L 13.03125 -8.953125 L 13.03125 0 Z M 8.25 0 "/></g></g></g><g fill="#000000" fill-opacity="1"><g transform="translate(392.36662, 72.084347)"><g><path d="M 1.28125 -11.015625 C 1.238281 -14.242188 2.3125 -16.96875 4.5 -19.1875 C 6.6875 -21.414062 9.425781 -22.507812 12.71875 -22.46875 C 15.25 -22.46875 17.414062 -21.84375 19.21875 -20.59375 C 21.03125 -19.351562 22.242188 -17.722656 22.859375 -15.703125 L 18.546875 -14.03125 C 17.503906 -17.019531 15.539062 -18.515625 12.65625 -18.515625 C 10.664062 -18.515625 9.101562 -17.851562 7.96875 -16.53125 C 6.84375 -15.21875 6.28125 -13.378906 6.28125 -11.015625 C 6.28125 -8.628906 6.835938 -6.773438 7.953125 -5.453125 C 9.078125 -4.140625 10.644531 -3.484375 12.65625 -3.484375 C 15.582031 -3.484375 17.585938 -4.988281 18.671875 -8 L 22.890625 -6.3125 C 22.066406 -4.113281 20.789062 -2.425781 19.0625 -1.25 C 17.34375 -0.0820312 15.207031 0.5 12.65625 0.5 C 9.257812 0.5 6.515625 -0.578125 4.421875 -2.734375 C 2.328125 -4.890625 1.28125 -7.648438 1.28125 -11.015625 Z M 1.28125 -11.015625 "/></g></g></g><g fill="#000000" fill-opacity="1"><g transform="translate(416.0688, 72.084347)"><g><path d="M 1.3125 -10.921875 C 1.3125 -14.273438 2.382812 -17.035156 4.53125 -19.203125 C 6.675781 -21.378906 9.515625 -22.46875 13.046875 -22.46875 C 16.585938 -22.46875 19.429688 -21.378906 21.578125 -19.203125 C 23.722656 -17.035156 24.796875 -14.273438 24.796875 -10.921875 C 24.835938 -7.597656 23.78125 -4.859375 21.625 -2.703125 C 19.46875 -0.546875 16.613281 0.519531 13.0625 0.5 C 9.5 0.519531 6.640625 -0.546875 4.484375 -2.703125 C 2.328125 -4.859375 1.269531 -7.597656 1.3125 -10.921875 Z M 19.8125 -10.953125 C 19.8125 -13.191406 19.203125 -15.007812 17.984375 -16.40625 C 16.773438 -17.8125 15.144531 -18.515625 13.09375 -18.515625 C 11 -18.515625 9.34375 -17.8125 8.125 -16.40625 C 6.914062 -15.007812 6.3125 -13.191406 6.3125 -10.953125 C 6.3125 -8.734375 6.914062 -6.925781 8.125 -5.53125 C 9.34375 -4.144531 11 -3.453125 13.09375 -3.453125 C 15.144531 -3.453125 16.773438 -4.144531 17.984375 -5.53125 C 19.203125 -6.925781 19.8125 -8.734375 19.8125 -10.953125 Z M 19.8125 -10.953125 "/></g></g></g><g fill="#000000" fill-opacity="1"><g transform="translate(442.188292, 72.084347)"><g><path d="M 2.640625 0 L 2.640625 -21.96875 L 7.40625 -21.96875 L 7.40625 -4.046875 L 19.25 -4.046875 L 19.25 0 Z M 2.640625 0 "/></g></g></g><g fill="#000000" fill-opacity="1"><g transform="translate(461.746514, 72.084347)"><g><path d="M 2.640625 0 L 2.640625 -21.96875 L 7.40625 -21.96875 L 7.40625 -4.046875 L 19.25 -4.046875 L 19.25 0 Z M 2.640625 0 "/></g></g></g><g fill="#000000" fill-opacity="1"><g transform="translate(481.304737, 72.084347)"><g><path d="M 2.640625 0 L 2.640625 -21.96875 L 19.25 -21.96875 L 19.25 -18.015625 L 7.40625 -18.015625 L 7.40625 -13.25 L 16.359375 -13.25 L 16.359375 -9.359375 L 7.40625 -9.359375 L 7.40625 -3.953125 L 19.25 -3.953125 L 19.25 0 Z M 2.640625 0 "/></g></g></g><g fill="#000000" fill-opacity="1"><g transform="translate(502.024523, 72.084347)"><g><path d="M 1.28125 -11.015625 C 1.238281 -14.242188 2.3125 -16.96875 4.5 -19.1875 C 6.6875 -21.414062 9.425781 -22.507812 12.71875 -22.46875 C 15.25 -22.46875 17.414062 -21.84375 19.21875 -20.59375 C 21.03125 -19.351562 22.242188 -17.722656 22.859375 -15.703125 L 18.546875 -14.03125 C 17.503906 -17.019531 15.539062 -18.515625 12.65625 -18.515625 C 10.664062 -18.515625 9.101562 -17.851562 7.96875 -16.53125 C 6.84375 -15.21875 6.28125 -13.378906 6.28125 -11.015625 C 6.28125 -8.628906 6.835938 -6.773438 7.953125 -5.453125 C 9.078125 -4.140625 10.644531 -3.484375 12.65625 -3.484375 C 15.582031 -3.484375 17.585938 -4.988281 18.671875 -8 L 22.890625 -6.3125 C 22.066406 -4.113281 20.789062 -2.425781 19.0625 -1.25 C 17.34375 -0.0820312 15.207031 0.5 12.65625 0.5 C 9.257812 0.5 6.515625 -0.578125 4.421875 -2.734375 C 2.328125 -4.890625 1.28125 -7.648438 1.28125 -11.015625 Z M 1.28125 -11.015625 "/></g></g></g><g fill="#000000" fill-opacity="1"><g transform="translate(525.726702, 72.084347)"><g><path d="M 7.84375 0 L 7.84375 -18.015625 L 0.3125 -18.015625 L 0.3125 -21.96875 L 20.15625 -21.96875 L 20.15625 -18.015625 L 12.625 -18.015625 L 12.625 0 Z M 7.84375 0 "/></g></g></g><g fill="#000000" fill-opacity="1"><g transform="translate(546.19534, 72.084347)"><g><path d="M 2.640625 0 L 2.640625 -21.96875 L 7.40625 -21.96875 L 7.40625 0 Z M 2.640625 0 "/></g></g></g><g fill="#000000" fill-opacity="1"><g transform="translate(556.241299, 72.084347)"><g><path d="M 1.3125 -10.921875 C 1.3125 -14.273438 2.382812 -17.035156 4.53125 -19.203125 C 6.675781 -21.378906 9.515625 -22.46875 13.046875 -22.46875 C 16.585938 -22.46875 19.429688 -21.378906 21.578125 -19.203125 C 23.722656 -17.035156 24.796875 -14.273438 24.796875 -10.921875 C 24.835938 -7.597656 23.78125 -4.859375 21.625 -2.703125 C 19.46875 -0.546875 16.613281 0.519531 13.0625 0.5 C 9.5 0.519531 6.640625 -0.546875 4.484375 -2.703125 C 2.328125 -4.859375 1.269531 -7.597656 1.3125 -10.921875 Z M 19.8125 -10.953125 C 19.8125 -13.191406 19.203125 -15.007812 17.984375 -16.40625 C 16.773438 -17.8125 15.144531 -18.515625 13.09375 -18.515625 C 11 -18.515625 9.34375 -17.8125 8.125 -16.40625 C 6.914062 -15.007812 6.3125 -13.191406 6.3125 -10.953125 C 6.3125 -8.734375 6.914062 -6.925781 8.125 -5.53125 C 9.34375 -4.144531 11 -3.453125 13.09375 -3.453125 C 15.144531 -3.453125 16.773438 -4.144531 17.984375 -5.53125 C 19.203125 -6.925781 19.8125 -8.734375 19.8125 -10.953125 Z M 19.8125 -10.953125 "/></g></g></g><g fill="#000000" fill-opacity="1"><g transform="translate(582.36079, 72.084347)"><g><path d="M 2.640625 0 L 2.640625 -21.96875 L 9.984375 -21.96875 L 19.75 -5.65625 L 21.15625 -6.625 C 20.300781 -8.070312 19.75 -9.1875 19.5 -9.96875 C 19.257812 -10.75 19.128906 -11.988281 19.109375 -13.6875 L 19.109375 -21.96875 L 23.890625 -21.96875 L 23.890625 0 L 18.140625 0 L 6.75 -19.078125 L 5.3125 -18.171875 C 6.082031 -16.734375 6.625 -15.5 6.9375 -14.46875 C 7.25 -13.445312 7.40625 -12.117188 7.40625 -10.484375 L 7.40625 0 Z M 2.640625 0 "/></g></g></g><g fill="#000000" fill-opacity="1"><g transform="translate(688.93711, 72.084347)"><g><path d="M 1.3125 -10.921875 C 1.3125 -14.273438 2.382812 -17.035156 4.53125 -19.203125 C 6.675781 -21.378906 9.515625 -22.46875 13.046875 -22.46875 C 16.585938 -22.46875 19.429688 -21.378906 21.578125 -19.203125 C 23.722656 -17.035156 24.796875 -14.273438 24.796875 -10.921875 C 24.835938 -7.597656 23.78125 -4.859375 21.625 -2.703125 C 19.46875 -0.546875 16.613281 0.519531 13.0625 0.5 C 9.5 0.519531 6.640625 -0.546875 4.484375 -2.703125 C 2.328125 -4.859375 1.269531 -7.597656 1.3125 -10.921875 Z M 19.8125 -10.953125 C 19.8125 -13.191406 19.203125 -15.007812 17.984375 -16.40625 C 16.773438 -17.8125 15.144531 -18.515625 13.09375 -18.515625 C 11 -18.515625 9.34375 -17.8125 8.125 -16.40625 C 6.914062 -15.007812 6.3125 -13.191406 6.3125 -10.953125 C 6.3125 -8.734375 6.914062 -6.925781 8.125 -5.53125 C 9.34375 -4.144531 11 -3.453125 13.09375 -3.453125 C 15.144531 -3.453125 16.773438 -4.144531 17.984375 -5.53125 C 19.203125 -6.925781 19.8125 -8.734375 19.8125 -10.953125 Z M 19.8125 -10.953125 "/></g></g></g><g fill="#000000" fill-opacity="1"><g transform="translate(715.056602, 72.084347)"><g><path d="M 2.640625 0 L 2.640625 -21.96875 L 19.53125 -21.96875 L 19.53125 -18.015625 L 7.40625 -18.015625 L 7.40625 -12.3125 L 17.109375 -12.3125 L 17.109375 -8.34375 L 7.40625 -8.34375 L 7.40625 0 Z M 2.640625 0 "/></g></g></g><g fill="#000000" fill-opacity="1"><g transform="translate(279.828087, 119.383907)"><g><path d="M 17.765625 0 L 16.015625 -5.140625 L 7.09375 -5.140625 L 5.28125 0 L 0.15625 0 L 8.53125 -21.96875 L 14.71875 -21.96875 L 23.046875 0 Z M 8.46875 -9.109375 L 14.65625 -9.109375 L 13.03125 -13.875 C 12.65625 -14.914062 12.457031 -16.726562 12.4375 -19.3125 L 10.734375 -19.3125 C 10.691406 -17.675781 10.640625 -16.578125 10.578125 -16.015625 C 10.515625 -15.296875 10.367188 -14.570312 10.140625 -13.84375 Z M 8.46875 -9.109375 "/></g></g></g><g fill="#000000" fill-opacity="1"><g transform="translate(303.059371, 119.383907)"><g><path d="M 2.640625 0 L 2.640625 -21.96875 L 9.984375 -21.96875 L 19.75 -5.65625 L 21.15625 -6.625 C 20.300781 -8.070312 19.75 -9.1875 19.5 -9.96875 C 19.257812 -10.75 19.128906 -11.988281 19.109375 -13.6875 L 19.109375 -21.96875 L 23.890625 -21.96875 L 23.890625 0 L 18.140625 0 L 6.75 -19.078125 L 5.3125 -18.171875 C 6.082031 -16.734375 6.625 -15.5 6.9375 -14.46875 C 7.25 -13.445312 7.40625 -12.117188 7.40625 -10.484375 L 7.40625 0 Z M 2.640625 0 "/></g></g></g><g fill="#000000" fill-opacity="1"><g transform="translate(329.586983, 119.383907)"><g><path d="M 2.640625 0 L 2.640625 -21.96875 L 10.921875 -21.96875 C 14.171875 -22.007812 16.925781 -21.023438 19.1875 -19.015625 C 21.457031 -17.015625 22.570312 -14.390625 22.53125 -11.140625 C 22.570312 -7.816406 21.457031 -5.117188 19.1875 -3.046875 C 16.925781 -0.972656 14.171875 0.0390625 10.921875 0 Z M 7.40625 -3.953125 L 10.703125 -3.953125 C 15.304688 -3.953125 17.609375 -6.316406 17.609375 -11.046875 C 17.609375 -13.203125 17.03125 -14.898438 15.875 -16.140625 C 14.726562 -17.390625 13.066406 -18.015625 10.890625 -18.015625 L 7.40625 -18.015625 Z M 7.40625 -3.953125 "/></g></g></g><g fill="#000000" fill-opacity="1"><g transform="translate(659.321736, 117.965642)"><g><path d="M 2.640625 0 L 2.640625 -21.96875 L 19.53125 -21.96875 L 19.53125 -18.015625 L 7.40625 -18.015625 L 7.40625 -12.3125 L 17.109375 -12.3125 L 17.109375 -8.34375 L 7.40625 -8.34375 L 7.40625 0 Z M 2.640625 0 "/></g></g></g><g fill="#000000" fill-opacity="1"><g transform="translate(679.602013, 117.965642)"><g><path d="M 1.3125 -10.921875 C 1.3125 -14.273438 2.382812 -17.035156 4.53125 -19.203125 C 6.675781 -21.378906 9.515625 -22.46875 13.046875 -22.46875 C 16.585938 -22.46875 19.429688 -21.378906 21.578125 -19.203125 C 23.722656 -17.035156 24.796875 -14.273438 24.796875 -10.921875 C 24.835938 -7.597656 23.78125 -4.859375 21.625 -2.703125 C 19.46875 -0.546875 16.613281 0.519531 13.0625 0.5 C 9.5 0.519531 6.640625 -0.546875 4.484375 -2.703125 C 2.328125 -4.859375 1.269531 -7.597656 1.3125 -10.921875 Z M 19.8125 -10.953125 C 19.8125 -13.191406 19.203125 -15.007812 17.984375 -16.40625 C 16.773438 -17.8125 15.144531 -18.515625 13.09375 -18.515625 C 11 -18.515625 9.34375 -17.8125 8.125 -16.40625 C 6.914062 -15.007812 6.3125 -13.191406 6.3125 -10.953125 C 6.3125 -8.734375 6.914062 -6.925781 8.125 -5.53125 C 9.34375 -4.144531 11 -3.453125 13.09375 -3.453125 C 15.144531 -3.453125 16.773438 -4.144531 17.984375 -5.53125 C 19.203125 -6.925781 19.8125 -8.734375 19.8125 -10.953125 Z M 19.8125 -10.953125 "/></g></g></g><g fill="#000000" fill-opacity="1"><g transform="translate(705.721505, 117.965642)"><g><path d="M 2.640625 0 L 2.640625 -21.96875 L 13.5 -21.96875 C 15.820312 -21.96875 17.648438 -21.441406 18.984375 -20.390625 C 20.328125 -19.347656 21 -17.953125 21 -16.203125 C 21 -14.753906 20.644531 -13.664062 19.9375 -12.9375 C 19.300781 -12.238281 18.550781 -11.765625 17.6875 -11.515625 C 16.820312 -11.265625 15.664062 -11.109375 14.21875 -11.046875 L 14.21875 -9.421875 C 16.269531 -9.359375 17.742188 -9.050781 18.640625 -8.5 C 19.546875 -7.957031 20.15625 -6.882812 20.46875 -5.28125 L 21.375 0 L 16.296875 0 L 15.625 -4.859375 C 15.4375 -6.140625 15.03125 -7.039062 14.40625 -7.5625 C 13.78125 -8.082031 12.773438 -8.34375 11.390625 -8.34375 L 7.40625 -8.34375 L 7.40625 0 Z M 7.40625 -12.21875 L 12.59375 -12.21875 C 13.65625 -12.21875 14.492188 -12.46875 15.109375 -12.96875 C 15.734375 -13.46875 16.046875 -14.1875 16.046875 -15.125 C 16.046875 -16.050781 15.734375 -16.765625 15.109375 -17.265625 C 14.492188 -17.765625 13.65625 -18.015625 12.59375 -18.015625 L 7.40625 -18.015625 Z M 7.40625 -12.21875 "/></g></g></g><g fill="#000000" fill-opacity="1"><g transform="translate(225.611666, 168.494362)"><g><path d="M 8.25 0 L 8.25 -8.953125 L 0.28125 -21.96875 L 5.8125 -21.96875 L 8.28125 -17.703125 C 8.75 -16.929688 9.097656 -16.1875 9.328125 -15.46875 C 9.660156 -14.550781 9.835938 -13.109375 9.859375 -11.140625 L 11.546875 -11.140625 C 11.585938 -12.628906 11.703125 -13.800781 11.890625 -14.65625 C 12.078125 -15.519531 12.507812 -16.554688 13.1875 -17.765625 L 15.46875 -21.96875 L 20.84375 -21.96875 L 13.03125 -8.953125 L 13.03125 0 Z M 8.25 0 "/></g></g></g><g fill="#000000" fill-opacity="1"><g transform="translate(246.833758, 168.494362)"><g><path d="M 1.3125 -10.921875 C 1.3125 -14.273438 2.382812 -17.035156 4.53125 -19.203125 C 6.675781 -21.378906 9.515625 -22.46875 13.046875 -22.46875 C 16.585938 -22.46875 19.429688 -21.378906 21.578125 -19.203125 C 23.722656 -17.035156 24.796875 -14.273438 24.796875 -10.921875 C 24.835938 -7.597656 23.78125 -4.859375 21.625 -2.703125 C 19.46875 -0.546875 16.613281 0.519531 13.0625 0.5 C 9.5 0.519531 6.640625 -0.546875 4.484375 -2.703125 C 2.328125 -4.859375 1.269531 -7.597656 1.3125 -10.921875 Z M 19.8125 -10.953125 C 19.8125 -13.191406 19.203125 -15.007812 17.984375 -16.40625 C 16.773438 -17.8125 15.144531 -18.515625 13.09375 -18.515625 C 11 -18.515625 9.34375 -17.8125 8.125 -16.40625 C 6.914062 -15.007812 6.3125 -13.191406 6.3125 -10.953125 C 6.3125 -8.734375 6.914062 -6.925781 8.125 -5.53125 C 9.34375 -4.144531 11 -3.453125 13.09375 -3.453125 C 15.144531 -3.453125 16.773438 -4.144531 17.984375 -5.53125 C 19.203125 -6.925781 19.8125 -8.734375 19.8125 -10.953125 Z M 19.8125 -10.953125 "/></g></g></g><g fill="#000000" fill-opacity="1"><g transform="translate(272.95325, 168.494362)"><g><path d="M 2.390625 -8.5625 L 2.390625 -21.96875 L 7.15625 -21.96875 L 7.15625 -9.328125 C 7.15625 -7.441406 7.582031 -6.007812 8.4375 -5.03125 C 9.300781 -4.0625 10.570312 -3.578125 12.25 -3.578125 C 15.632812 -3.578125 17.328125 -5.492188 17.328125 -9.328125 L 17.328125 -21.96875 L 22.09375 -21.96875 L 22.09375 -8.5625 C 22.09375 -5.78125 21.179688 -3.570312 19.359375 -1.9375 C 17.546875 -0.3125 15.175781 0.5 12.25 0.5 C 9.25 0.5 6.851562 -0.3125 5.0625 -1.9375 C 3.28125 -3.570312 2.390625 -5.78125 2.390625 -8.5625 Z M 2.390625 -8.5625 "/></g></g></g><g fill="#000000" fill-opacity="1"><g transform="translate(361.172901, 166.179128)"><g><path d="M 17.765625 0 L 16.015625 -5.140625 L 7.09375 -5.140625 L 5.28125 0 L 0.15625 0 L 8.53125 -21.96875 L 14.71875 -21.96875 L 23.046875 0 Z M 8.46875 -9.109375 L 14.65625 -9.109375 L 13.03125 -13.875 C 12.65625 -14.914062 12.457031 -16.726562 12.4375 -19.3125 L 10.734375 -19.3125 C 10.691406 -17.675781 10.640625 -16.578125 10.578125 -16.015625 C 10.515625 -15.296875 10.367188 -14.570312 10.140625 -13.84375 Z M 8.46875 -9.109375 "/></g></g></g><g fill="#000000" fill-opacity="1"><g transform="translate(384.404185, 166.179128)"><g><path d="M 2.640625 0 L 2.640625 -21.96875 L 9.984375 -21.96875 L 19.75 -5.65625 L 21.15625 -6.625 C 20.300781 -8.070312 19.75 -9.1875 19.5 -9.96875 C 19.257812 -10.75 19.128906 -11.988281 19.109375 -13.6875 L 19.109375 -21.96875 L 23.890625 -21.96875 L 23.890625 0 L 18.140625 0 L 6.75 -19.078125 L 5.3125 -18.171875 C 6.082031 -16.734375 6.625 -15.5 6.9375 -14.46875 C 7.25 -13.445312 7.40625 -12.117188 7.40625 -10.484375 L 7.40625 0 Z M 2.640625 0 "/></g></g></g><g fill="#000000" fill-opacity="1"><g transform="translate(410.931797, 166.179128)"><g><path d="M 2.640625 0 L 2.640625 -21.96875 L 10.921875 -21.96875 C 14.171875 -22.007812 16.925781 -21.023438 19.1875 -19.015625 C 21.457031 -17.015625 22.570312 -14.390625 22.53125 -11.140625 C 22.570312 -7.816406 21.457031 -5.117188 19.1875 -3.046875 C 16.925781 -0.972656 14.171875 0.0390625 10.921875 0 Z M 7.40625 -3.953125 L 10.703125 -3.953125 C 15.304688 -3.953125 17.609375 -6.316406 17.609375 -11.046875 C 17.609375 -13.203125 17.03125 -14.898438 15.875 -16.140625 C 14.726562 -17.390625 13.066406 -18.015625 10.890625 -18.015625 L 7.40625 -18.015625 Z M 7.40625 -3.953125 "/></g></g></g><g fill="#000000" fill-opacity="1"><g transform="translate(510.209078, 166.179128)"><g><path d="M 8.25 0 L 8.25 -8.953125 L 0.28125 -21.96875 L 5.8125 -21.96875 L 8.28125 -17.703125 C 8.75 -16.929688 9.097656 -16.1875 9.328125 -15.46875 C 9.660156 -14.550781 9.835938 -13.109375 9.859375 -11.140625 L 11.546875 -11.140625 C 11.585938 -12.628906 11.703125 -13.800781 11.890625 -14.65625 C 12.078125 -15.519531 12.507812 -16.554688 13.1875 -17.765625 L 15.46875 -21.96875 L 20.84375 -21.96875 L 13.03125 -8.953125 L 13.03125 0 Z M 8.25 0 "/></g></g></g><g fill="#000000" fill-opacity="1"><g transform="translate(531.43117, 166.179128)"><g><path d="M 1.3125 -10.921875 C 1.3125 -14.273438 2.382812 -17.035156 4.53125 -19.203125 C 6.675781 -21.378906 9.515625 -22.46875 13.046875 -22.46875 C 16.585938 -22.46875 19.429688 -21.378906 21.578125 -19.203125 C 23.722656 -17.035156 24.796875 -14.273438 24.796875 -10.921875 C 24.835938 -7.597656 23.78125 -4.859375 21.625 -2.703125 C 19.46875 -0.546875 16.613281 0.519531 13.0625 0.5 C 9.5 0.519531 6.640625 -0.546875 4.484375 -2.703125 C 2.328125 -4.859375 1.269531 -7.597656 1.3125 -10.921875 Z M 19.8125 -10.953125 C 19.8125 -13.191406 19.203125 -15.007812 17.984375 -16.40625 C 16.773438 -17.8125 15.144531 -18.515625 13.09375 -18.515625 C 11 -18.515625 9.34375 -17.8125 8.125 -16.40625 C 6.914062 -15.007812 6.3125 -13.191406 6.3125 -10.953125 C 6.3125 -8.734375 6.914062 -6.925781 8.125 -5.53125 C 9.34375 -4.144531 11 -3.453125 13.09375 -3.453125 C 15.144531 -3.453125 16.773438 -4.144531 17.984375 -5.53125 C 19.203125 -6.925781 19.8125 -8.734375 19.8125 -10.953125 Z M 19.8125 -10.953125 "/></g></g></g><g fill="#000000" fill-opacity="1"><g transform="translate(557.550662, 166.179128)"><g><path d="M 2.390625 -8.5625 L 2.390625 -21.96875 L 7.15625 -21.96875 L 7.15625 -9.328125 C 7.15625 -7.441406 7.582031 -6.007812 8.4375 -5.03125 C 9.300781 -4.0625 10.570312 -3.578125 12.25 -3.578125 C 15.632812 -3.578125 17.328125 -5.492188 17.328125 -9.328125 L 17.328125 -21.96875 L 22.09375 -21.96875 L 22.09375 -8.5625 C 22.09375 -5.78125 21.179688 -3.570312 19.359375 -1.9375 C 17.546875 -0.3125 15.175781 0.5 12.25 0.5 C 9.25 0.5 6.851562 -0.3125 5.0625 -1.9375 C 3.28125 -3.570312 2.390625 -5.78125 2.390625 -8.5625 Z M 2.390625 -8.5625 "/></g></g></g><g fill="#000000" fill-opacity="1"><g transform="translate(582.037683, 166.179128)"><g><path d="M 2.640625 0 L 2.640625 -21.96875 L 13.5 -21.96875 C 15.820312 -21.96875 17.648438 -21.441406 18.984375 -20.390625 C 20.328125 -19.347656 21 -17.953125 21 -16.203125 C 21 -14.753906 20.644531 -13.664062 19.9375 -12.9375 C 19.300781 -12.238281 18.550781 -11.765625 17.6875 -11.515625 C 16.820312 -11.265625 15.664062 -11.109375 14.21875 -11.046875 L 14.21875 -9.421875 C 16.269531 -9.359375 17.742188 -9.050781 18.640625 -8.5 C 19.546875 -7.957031 20.15625 -6.882812 20.46875 -5.28125 L 21.375 0 L 16.296875 0 L 15.625 -4.859375 C 15.4375 -6.140625 15.03125 -7.039062 14.40625 -7.5625 C 13.78125 -8.082031 12.773438 -8.34375 11.390625 -8.34375 L 7.40625 -8.34375 L 7.40625 0 Z M 7.40625 -12.21875 L 12.59375 -12.21875 C 13.65625 -12.21875 14.492188 -12.46875 15.109375 -12.96875 C 15.734375 -13.46875 16.046875 -14.1875 16.046875 -15.125 C 16.046875 -16.050781 15.734375 -16.765625 15.109375 -17.265625 C 14.492188 -17.765625 13.65625 -18.015625 12.59375 -18.015625 L 7.40625 -18.015625 Z M 7.40625 -12.21875 "/></g></g></g><g fill="#000000" fill-opacity="1"><g transform="translate(692.954741, 166.179128)"><g><path d="M 2.640625 0 L 2.640625 -21.96875 L 19.53125 -21.96875 L 19.53125 -18.015625 L 7.40625 -18.015625 L 7.40625 -12.3125 L 17.109375 -12.3125 L 17.109375 -8.34375 L 7.40625 -8.34375 L 7.40625 0 Z M 2.640625 0 "/></g></g></g><g fill="#000000" fill-opacity="1"><g transform="translate(713.235018, 166.179128)"><g><path d="M 2.640625 0 L 2.640625 -21.96875 L 13.5 -21.96875 C 15.820312 -21.96875 17.648438 -21.441406 18.984375 -20.390625 C 20.328125 -19.347656 21 -17.953125 21 -16.203125 C 21 -14.753906 20.644531 -13.664062 19.9375 -12.9375 C 19.300781 -12.238281 18.550781 -11.765625 17.6875 -11.515625 C 16.820312 -11.265625 15.664062 -11.109375 14.21875 -11.046875 L 14.21875 -9.421875 C 16.269531 -9.359375 17.742188 -9.050781 18.640625 -8.5 C 19.546875 -7.957031 20.15625 -6.882812 20.46875 -5.28125 L 21.375 0 L 16.296875 0 L 15.625 -4.859375 C 15.4375 -6.140625 15.03125 -7.039062 14.40625 -7.5625 C 13.78125 -8.082031 12.773438 -8.34375 11.390625 -8.34375 L 7.40625 -8.34375 L 7.40625 0 Z M 7.40625 -12.21875 L 12.59375 -12.21875 C 13.65625 -12.21875 14.492188 -12.46875 15.109375 -12.96875 C 15.734375 -13.46875 16.046875 -14.1875 16.046875 -15.125 C 16.046875 -16.050781 15.734375 -16.765625 15.109375 -17.265625 C 14.492188 -17.765625 13.65625 -18.015625 12.59375 -18.015625 L 7.40625 -18.015625 Z M 7.40625 -12.21875 "/></g></g></g><g fill="#000000" fill-opacity="1"><g transform="translate(736.026782, 166.179128)"><g><path d="M 2.640625 0 L 2.640625 -21.96875 L 7.40625 -21.96875 L 7.40625 0 Z M 2.640625 0 "/></g></g></g><g fill="#000000" fill-opacity="1"><g transform="translate(746.072741, 166.179128)"><g><path d="M 2.640625 0 L 2.640625 -21.96875 L 19.25 -21.96875 L 19.25 -18.015625 L 7.40625 -18.015625 L 7.40625 -13.25 L 16.359375 -13.25 L 16.359375 -9.359375 L 7.40625 -9.359375 L 7.40625 -3.953125 L 19.25 -3.953125 L 19.25 0 Z M 2.640625 0 "/></g></g></g><g fill="#000000" fill-opacity="1"><g transform="translate(766.792527, 166.179128)"><g><path d="M 2.640625 0 L 2.640625 -21.96875 L 9.984375 -21.96875 L 19.75 -5.65625 L 21.15625 -6.625 C 20.300781 -8.070312 19.75 -9.1875 19.5 -9.96875 C 19.257812 -10.75 19.128906 -11.988281 19.109375 -13.6875 L 19.109375 -21.96875 L 23.890625 -21.96875 L 23.890625 0 L 18.140625 0 L 6.75 -19.078125 L 5.3125 -18.171875 C 6.082031 -16.734375 6.625 -15.5 6.9375 -14.46875 C 7.25 -13.445312 7.40625 -12.117188 7.40625 -10.484375 L 7.40625 0 Z M 2.640625 0 "/></g></g></g><g fill="#000000" fill-opacity="1"><g transform="translate(793.320139, 166.179128)"><g><path d="M 2.640625 0 L 2.640625 -21.96875 L 10.921875 -21.96875 C 14.171875 -22.007812 16.925781 -21.023438 19.1875 -19.015625 C 21.457031 -17.015625 22.570312 -14.390625 22.53125 -11.140625 C 22.570312 -7.816406 21.457031 -5.117188 19.1875 -3.046875 C 16.925781 -0.972656 14.171875 0.0390625 10.921875 0 Z M 7.40625 -3.953125 L 10.703125 -3.953125 C 15.304688 -3.953125 17.609375 -6.316406 17.609375 -11.046875 C 17.609375 -13.203125 17.03125 -14.898438 15.875 -16.140625 C 14.726562 -17.390625 13.066406 -18.015625 10.890625 -18.015625 L 7.40625 -18.015625 Z M 7.40625 -3.953125 "/></g></g></g><g fill="#000000" fill-opacity="1"><g transform="translate(817.179291, 166.179128)"><g><path d="M 0.875 -6.28125 L 5.375 -7.78125 C 5.644531 -6.507812 6.25 -5.441406 7.1875 -4.578125 C 8.125 -3.722656 9.367188 -3.296875 10.921875 -3.296875 C 12.347656 -3.296875 13.421875 -3.546875 14.140625 -4.046875 C 14.859375 -4.546875 15.21875 -5.238281 15.21875 -6.125 C 15.21875 -7.5625 14.023438 -8.460938 11.640625 -8.828125 L 8.921875 -9.203125 C 4.296875 -9.847656 1.984375 -12.046875 1.984375 -15.796875 C 1.984375 -17.691406 2.757812 -19.273438 4.3125 -20.546875 C 5.875 -21.828125 7.992188 -22.46875 10.671875 -22.46875 C 13.222656 -22.46875 15.269531 -21.929688 16.8125 -20.859375 C 18.363281 -19.785156 19.414062 -18.367188 19.96875 -16.609375 L 15.5625 -15.0625 C 14.789062 -17.46875 13.160156 -18.671875 10.671875 -18.671875 C 9.441406 -18.671875 8.507812 -18.421875 7.875 -17.921875 C 7.25 -17.421875 6.9375 -16.773438 6.9375 -15.984375 C 6.9375 -14.679688 7.878906 -13.894531 9.765625 -13.625 L 12.5 -13.25 C 14.945312 -12.914062 16.835938 -12.171875 18.171875 -11.015625 C 19.515625 -9.867188 20.1875 -8.34375 20.1875 -6.4375 C 20.1875 -4.40625 19.390625 -2.738281 17.796875 -1.4375 C 16.203125 -0.144531 13.910156 0.5 10.921875 0.5 C 8.117188 0.5 5.859375 -0.125 4.140625 -1.375 C 2.421875 -2.632812 1.332031 -4.269531 0.875 -6.28125 Z M 0.875 -6.28125 "/></g></g></g><g fill="#000000" fill-opacity="1"><g transform="translate(97.164287, 120.131374)"><g><path d="M 0.875 -6.28125 L 5.375 -7.78125 C 5.644531 -6.507812 6.25 -5.441406 7.1875 -4.578125 C 8.125 -3.722656 9.367188 -3.296875 10.921875 -3.296875 C 12.347656 -3.296875 13.421875 -3.546875 14.140625 -4.046875 C 14.859375 -4.546875 15.21875 -5.238281 15.21875 -6.125 C 15.21875 -7.5625 14.023438 -8.460938 11.640625 -8.828125 L 8.921875 -9.203125 C 4.296875 -9.847656 1.984375 -12.046875 1.984375 -15.796875 C 1.984375 -17.691406 2.757812 -19.273438 4.3125 -20.546875 C 5.875 -21.828125 7.992188 -22.46875 10.671875 -22.46875 C 13.222656 -22.46875 15.269531 -21.929688 16.8125 -20.859375 C 18.363281 -19.785156 19.414062 -18.367188 19.96875 -16.609375 L 15.5625 -15.0625 C 14.789062 -17.46875 13.160156 -18.671875 10.671875 -18.671875 C 9.441406 -18.671875 8.507812 -18.421875 7.875 -17.921875 C 7.25 -17.421875 6.9375 -16.773438 6.9375 -15.984375 C 6.9375 -14.679688 7.878906 -13.894531 9.765625 -13.625 L 12.5 -13.25 C 14.945312 -12.914062 16.835938 -12.171875 18.171875 -11.015625 C 19.515625 -9.867188 20.1875 -8.34375 20.1875 -6.4375 C 20.1875 -4.40625 19.390625 -2.738281 17.796875 -1.4375 C 16.203125 -0.144531 13.910156 0.5 10.921875 0.5 C 8.117188 0.5 5.859375 -0.125 4.140625 -1.375 C 2.421875 -2.632812 1.332031 -4.269531 0.875 -6.28125 Z M 0.875 -6.28125 "/></g></g></g><g fill="#000000" fill-opacity="1"><g transform="translate(118.668914, 120.131374)"><g><path d="M 2.640625 0 L 2.640625 -21.96875 L 7.40625 -21.96875 L 7.40625 -13.28125 L 16.828125 -13.28125 L 16.828125 -21.96875 L 21.59375 -21.96875 L 21.59375 0 L 16.828125 0 L 16.828125 -9.328125 L 7.40625 -9.328125 L 7.40625 0 Z M 2.640625 0 "/></g></g></g><g fill="#000000" fill-opacity="1"><g transform="translate(142.904788, 120.131374)"><g><path d="M 1.3125 -10.921875 C 1.3125 -14.273438 2.382812 -17.035156 4.53125 -19.203125 C 6.675781 -21.378906 9.515625 -22.46875 13.046875 -22.46875 C 16.585938 -22.46875 19.429688 -21.378906 21.578125 -19.203125 C 23.722656 -17.035156 24.796875 -14.273438 24.796875 -10.921875 C 24.835938 -7.597656 23.78125 -4.859375 21.625 -2.703125 C 19.46875 -0.546875 16.613281 0.519531 13.0625 0.5 C 9.5 0.519531 6.640625 -0.546875 4.484375 -2.703125 C 2.328125 -4.859375 1.269531 -7.597656 1.3125 -10.921875 Z M 19.8125 -10.953125 C 19.8125 -13.191406 19.203125 -15.007812 17.984375 -16.40625 C 16.773438 -17.8125 15.144531 -18.515625 13.09375 -18.515625 C 11 -18.515625 9.34375 -17.8125 8.125 -16.40625 C 6.914062 -15.007812 6.3125 -13.191406 6.3125 -10.953125 C 6.3125 -8.734375 6.914062 -6.925781 8.125 -5.53125 C 9.34375 -4.144531 11 -3.453125 13.09375 -3.453125 C 15.144531 -3.453125 16.773438 -4.144531 17.984375 -5.53125 C 19.203125 -6.925781 19.8125 -8.734375 19.8125 -10.953125 Z M 19.8125 -10.953125 "/></g></g></g><g fill="#000000" fill-opacity="1"><g transform="translate(169.02428, 120.131374)"><g><path d="M 2.640625 0 L 2.640625 -21.96875 L 19.25 -21.96875 L 19.25 -18.015625 L 7.40625 -18.015625 L 7.40625 -13.25 L 16.359375 -13.25 L 16.359375 -9.359375 L 7.40625 -9.359375 L 7.40625 -3.953125 L 19.25 -3.953125 L 19.25 0 Z M 2.640625 0 "/></g></g></g><g fill="#000000" fill-opacity="1"><g transform="translate(189.744066, 120.131374)"><g><path d="M 0.875 -6.28125 L 5.375 -7.78125 C 5.644531 -6.507812 6.25 -5.441406 7.1875 -4.578125 C 8.125 -3.722656 9.367188 -3.296875 10.921875 -3.296875 C 12.347656 -3.296875 13.421875 -3.546875 14.140625 -4.046875 C 14.859375 -4.546875 15.21875 -5.238281 15.21875 -6.125 C 15.21875 -7.5625 14.023438 -8.460938 11.640625 -8.828125 L 8.921875 -9.203125 C 4.296875 -9.847656 1.984375 -12.046875 1.984375 -15.796875 C 1.984375 -17.691406 2.757812 -19.273438 4.3125 -20.546875 C 5.875 -21.828125 7.992188 -22.46875 10.671875 -22.46875 C 13.222656 -22.46875 15.269531 -21.929688 16.8125 -20.859375 C 18.363281 -19.785156 19.414062 -18.367188 19.96875 -16.609375 L 15.5625 -15.0625 C 14.789062 -17.46875 13.160156 -18.671875 10.671875 -18.671875 C 9.441406 -18.671875 8.507812 -18.421875 7.875 -17.921875 C 7.25 -17.421875 6.9375 -16.773438 6.9375 -15.984375 C 6.9375 -14.679688 7.878906 -13.894531 9.765625 -13.625 L 12.5 -13.25 C 14.945312 -12.914062 16.835938 -12.171875 18.171875 -11.015625 C 19.515625 -9.867188 20.1875 -8.34375 20.1875 -6.4375 C 20.1875 -4.40625 19.390625 -2.738281 17.796875 -1.4375 C 16.203125 -0.144531 13.910156 0.5 10.921875 0.5 C 8.117188 0.5 5.859375 -0.125 4.140625 -1.375 C 2.421875 -2.632812 1.332031 -4.269531 0.875 -6.28125 Z M 0.875 -6.28125 "/></g></g></g><g fill="#000000" fill-opacity="1"><g transform="translate(435.679705, 118.713109)"><g><path d="M 1.28125 -11.015625 C 1.238281 -14.242188 2.3125 -16.96875 4.5 -19.1875 C 6.6875 -21.414062 9.425781 -22.507812 12.71875 -22.46875 C 15.25 -22.46875 17.414062 -21.84375 19.21875 -20.59375 C 21.03125 -19.351562 22.242188 -17.722656 22.859375 -15.703125 L 18.546875 -14.03125 C 17.503906 -17.019531 15.539062 -18.515625 12.65625 -18.515625 C 10.664062 -18.515625 9.101562 -17.851562 7.96875 -16.53125 C 6.84375 -15.21875 6.28125 -13.378906 6.28125 -11.015625 C 6.28125 -8.628906 6.835938 -6.773438 7.953125 -5.453125 C 9.078125 -4.140625 10.644531 -3.484375 12.65625 -3.484375 C 15.582031 -3.484375 17.585938 -4.988281 18.671875 -8 L 22.890625 -6.3125 C 22.066406 -4.113281 20.789062 -2.425781 19.0625 -1.25 C 17.34375 -0.0820312 15.207031 0.5 12.65625 0.5 C 9.257812 0.5 6.515625 -0.578125 4.421875 -2.734375 C 2.328125 -4.890625 1.28125 -7.648438 1.28125 -11.015625 Z M 1.28125 -11.015625 "/></g></g></g><g fill="#000000" fill-opacity="1"><g transform="translate(459.381885, 118.713109)"><g><path d="M 2.640625 0 L 2.640625 -21.96875 L 7.40625 -21.96875 L 7.40625 -4.046875 L 19.25 -4.046875 L 19.25 0 Z M 2.640625 0 "/></g></g></g><g fill="#000000" fill-opacity="1"><g transform="translate(478.940107, 118.713109)"><g><path d="M 1.3125 -10.921875 C 1.3125 -14.273438 2.382812 -17.035156 4.53125 -19.203125 C 6.675781 -21.378906 9.515625 -22.46875 13.046875 -22.46875 C 16.585938 -22.46875 19.429688 -21.378906 21.578125 -19.203125 C 23.722656 -17.035156 24.796875 -14.273438 24.796875 -10.921875 C 24.835938 -7.597656 23.78125 -4.859375 21.625 -2.703125 C 19.46875 -0.546875 16.613281 0.519531 13.0625 0.5 C 9.5 0.519531 6.640625 -0.546875 4.484375 -2.703125 C 2.328125 -4.859375 1.269531 -7.597656 1.3125 -10.921875 Z M 19.8125 -10.953125 C 19.8125 -13.191406 19.203125 -15.007812 17.984375 -16.40625 C 16.773438 -17.8125 15.144531 -18.515625 13.09375 -18.515625 C 11 -18.515625 9.34375 -17.8125 8.125 -16.40625 C 6.914062 -15.007812 6.3125 -13.191406 6.3125 -10.953125 C 6.3125 -8.734375 6.914062 -6.925781 8.125 -5.53125 C 9.34375 -4.144531 11 -3.453125 13.09375 -3.453125 C 15.144531 -3.453125 16.773438 -4.144531 17.984375 -5.53125 C 19.203125 -6.925781 19.8125 -8.734375 19.8125 -10.953125 Z M 19.8125 -10.953125 "/></g></g></g><g fill="#000000" fill-opacity="1"><g transform="translate(505.059599, 118.713109)"><g><path d="M 7.84375 0 L 7.84375 -18.015625 L 0.3125 -18.015625 L 0.3125 -21.96875 L 20.15625 -21.96875 L 20.15625 -18.015625 L 12.625 -18.015625 L 12.625 0 Z M 7.84375 0 "/></g></g></g><g fill="#000000" fill-opacity="1"><g transform="translate(525.528237, 118.713109)"><g><path d="M 2.640625 0 L 2.640625 -21.96875 L 7.40625 -21.96875 L 7.40625 -13.28125 L 16.828125 -13.28125 L 16.828125 -21.96875 L 21.59375 -21.96875 L 21.59375 0 L 16.828125 0 L 16.828125 -9.328125 L 7.40625 -9.328125 L 7.40625 0 Z M 2.640625 0 "/></g></g></g><g fill="#000000" fill-opacity="1"><g transform="translate(549.764111, 118.713109)"><g><path d="M 2.640625 0 L 2.640625 -21.96875 L 19.25 -21.96875 L 19.25 -18.015625 L 7.40625 -18.015625 L 7.40625 -13.25 L 16.359375 -13.25 L 16.359375 -9.359375 L 7.40625 -9.359375 L 7.40625 -3.953125 L 19.25 -3.953125 L 19.25 0 Z M 2.640625 0 "/></g></g></g><g fill="#000000" fill-opacity="1"><g transform="translate(570.483897, 118.713109)"><g><path d="M 0.875 -6.28125 L 5.375 -7.78125 C 5.644531 -6.507812 6.25 -5.441406 7.1875 -4.578125 C 8.125 -3.722656 9.367188 -3.296875 10.921875 -3.296875 C 12.347656 -3.296875 13.421875 -3.546875 14.140625 -4.046875 C 14.859375 -4.546875 15.21875 -5.238281 15.21875 -6.125 C 15.21875 -7.5625 14.023438 -8.460938 11.640625 -8.828125 L 8.921875 -9.203125 C 4.296875 -9.847656 1.984375 -12.046875 1.984375 -15.796875 C 1.984375 -17.691406 2.757812 -19.273438 4.3125 -20.546875 C 5.875 -21.828125 7.992188 -22.46875 10.671875 -22.46875 C 13.222656 -22.46875 15.269531 -21.929688 16.8125 -20.859375 C 18.363281 -19.785156 19.414062 -18.367188 19.96875 -16.609375 L 15.5625 -15.0625 C 14.789062 -17.46875 13.160156 -18.671875 10.671875 -18.671875 C 9.441406 -18.671875 8.507812 -18.421875 7.875 -17.921875 C 7.25 -17.421875 6.9375 -16.773438 6.9375 -15.984375 C 6.9375 -14.679688 7.878906 -13.894531 9.765625 -13.625 L 12.5 -13.25 C 14.945312 -12.914062 16.835938 -12.171875 18.171875 -11.015625 C 19.515625 -9.867188 20.1875 -8.34375 20.1875 -6.4375 C 20.1875 -4.40625 19.390625 -2.738281 17.796875 -1.4375 C 16.203125 -0.144531 13.910156 0.5 10.921875 0.5 C 8.117188 0.5 5.859375 -0.125 4.140625 -1.375 C 2.421875 -2.632812 1.332031 -4.269531 0.875 -6.28125 Z M 0.875 -6.28125 "/></g></g></g></svg>