<svg xmlns="http://www.w3.org/2000/svg" xmlns:xlink="http://www.w3.org/1999/xlink" width="1240" zoomAndPan="magnify" viewBox="0 0 930 221.249992" height="295" preserveAspectRatio="xMidYMid meet" version="1.0"><defs><g/><clipPath id="14239fc49a"><path d="M 378 43.71875 L 385 43.71875 L 385 62 L 378 62 Z M 378 43.71875 " clip-rule="nonzero"/></clipPath><clipPath id="53281efb7b"><path d="M 378 61 L 385 61 L 385 79.597656 L 378 79.597656 Z M 378 61 " clip-rule="nonzero"/></clipPath><clipPath id="5effebe5d2"><path d="M 658 45.113281 L 695.957031 45.113281 L 695.957031 78 L 658 78 Z M 658 45.113281 " clip-rule="nonzero"/></clipPath><clipPath id="48d3493270"><path d="M 299 89.101562 L 338 89.101562 L 338 127.96875 L 299 127.96875 Z M 299 89.101562 " clip-rule="nonzero"/></clipPath><clipPath id="f6d9b6e7fb"><path d="M 447.136719 87.148438 L 490.488281 87.148438 L 490.488281 129.753906 L 447.136719 129.753906 Z M 447.136719 87.148438 " clip-rule="nonzero"/></clipPath><clipPath id="b5263dd67a"><path d="M 471 110 L 490 110 L 490 129.753906 L 471 129.753906 Z M 471 110 " clip-rule="nonzero"/></clipPath><clipPath id="35ac907d82"><path d="M 447.136719 87.148438 L 467 87.148438 L 467 107 L 447.136719 107 Z M 447.136719 87.148438 " clip-rule="nonzero"/></clipPath><clipPath id="b9c1068bfc"><path d="M 307.46875 136.546875 L 350.824219 136.546875 L 350.824219 179.902344 L 307.46875 179.902344 Z M 307.46875 136.546875 " clip-rule="nonzero"/></clipPath><clipPath id="18e2e6f517"><path d="M 453 136.546875 L 495 136.546875 L 495 178 L 453 178 Z M 453 136.546875 " clip-rule="nonzero"/></clipPath><clipPath id="e59082317f"><path d="M 621.277344 132.765625 L 669.117188 132.765625 L 669.117188 175.371094 L 621.277344 175.371094 Z M 621.277344 132.765625 " clip-rule="nonzero"/></clipPath><clipPath id="ce647de015"><path d="M 698 86.136719 L 703 86.136719 L 703 99 L 698 99 Z M 698 86.136719 " clip-rule="nonzero"/></clipPath><clipPath id="6aa12cf444"><path d="M 698 117 L 703 117 L 703 129.488281 L 698 129.488281 Z M 698 117 " clip-rule="nonzero"/></clipPath></defs><g clip-path="url(#14239fc49a)"><path fill="#c7b9ff" d="M 378.109375 43.71875 L 384.046875 43.71875 L 382.066406 61.660156 L 380.085938 61.660156 Z M 378.109375 43.71875 " fill-opacity="1" fill-rule="nonzero"/></g><g clip-path="url(#53281efb7b)"><path fill="#c7b9ff" d="M 384.046875 79.597656 L 378.109375 79.597656 L 380.089844 61.660156 L 382.066406 61.660156 Z M 384.046875 79.597656 " fill-opacity="1" fill-rule="nonzero"/></g><path fill="#c7b9ff" d="M 370.582031 76.457031 L 366.382812 72.230469 L 380.378906 60.953125 L 381.777344 62.363281 Z M 370.582031 76.457031 " fill-opacity="1" fill-rule="nonzero"/><path fill="#c7b9ff" d="M 391.574219 46.859375 L 395.773438 51.089844 L 381.777344 62.363281 L 380.378906 60.953125 Z M 391.574219 46.859375 " fill-opacity="1" fill-rule="nonzero"/><path fill="#c7b9ff" d="M 366.382812 51.085938 L 370.582031 46.859375 L 381.78125 60.953125 L 380.378906 62.363281 Z M 366.382812 51.085938 " fill-opacity="1" fill-rule="nonzero"/><path fill="#c7b9ff" d="M 395.773438 72.230469 L 391.574219 76.457031 L 380.378906 62.363281 L 381.78125 60.953125 Z M 395.773438 72.230469 " fill-opacity="1" fill-rule="nonzero"/><path fill="#c7b9ff" d="M 363.265625 64.648438 L 363.265625 58.667969 L 381.078125 60.660156 L 381.078125 62.65625 Z M 363.265625 64.648438 " fill-opacity="1" fill-rule="nonzero"/><path fill="#c7b9ff" d="M 398.894531 58.667969 L 398.894531 64.648438 L 381.078125 62.65625 L 381.078125 60.664062 Z M 398.894531 58.667969 " fill-opacity="1" fill-rule="nonzero"/><g clip-path="url(#5effebe5d2)"><path fill="#f24e1e" d="M 658.300781 49.222656 L 658.300781 45.113281 L 695.488281 45.113281 L 695.488281 49.222656 C 687.226562 49.222656 681.027344 55.390625 681.027344 61.558594 C 681.027344 67.722656 687.226562 73.890625 695.488281 73.890625 L 695.488281 78 L 658.300781 78 L 658.300781 73.890625 C 666.5625 73.890625 672.761719 67.722656 672.761719 61.558594 C 672.761719 55.390625 666.5625 49.222656 658.300781 49.222656 Z M 658.300781 49.222656 " fill-opacity="1" fill-rule="nonzero"/></g><g clip-path="url(#48d3493270)"><path fill="#f24e1e" d="M 305.722656 89.101562 L 322.847656 89.101562 L 337.832031 99.898438 L 316.425781 115.011719 L 331.410156 127.96875 L 314.285156 127.96875 L 299.300781 115.011719 L 320.707031 99.898438 Z M 305.722656 89.101562 " fill-opacity="1" fill-rule="nonzero"/></g><g clip-path="url(#f6d9b6e7fb)"><path stroke-linecap="butt" transform="matrix(1.109771, 0, 0, 1.121199, 447.172135, 87.147254)" fill="none" stroke-linejoin="miter" d="M 36.296657 8.44277 C 36.296657 8.860849 36.254419 9.27196 36.173462 9.679587 C 36.092505 10.087215 35.972829 10.48439 35.814435 10.867629 C 35.656041 11.250868 35.458928 11.616687 35.230137 11.961603 C 34.997825 12.306518 34.733835 12.627045 34.441686 12.923185 C 34.146017 13.21584 33.825709 13.47714 33.480762 13.710567 C 33.135815 13.940511 32.769748 14.135614 32.386082 14.295878 C 32.002417 14.452657 31.604672 14.574597 31.199887 14.654729 C 30.791582 14.734861 30.379757 14.776669 29.964412 14.776669 C 29.545548 14.776669 29.133723 14.734861 28.728938 14.654729 C 28.320633 14.574597 27.922888 14.452657 27.539223 14.295878 C 27.155557 14.135614 26.78949 13.940511 26.444543 13.710567 C 26.099596 13.47714 25.779288 13.21584 25.483619 12.923185 C 25.19147 12.627045 24.927479 12.306518 24.698688 11.961603 C 24.466377 11.616687 24.272784 11.250868 24.11087 10.867629 C 23.952476 10.48439 23.8328 10.087215 23.751843 9.679587 C 23.670886 9.27196 23.628648 8.860849 23.628648 8.44277 C 23.628648 8.028175 23.670886 7.617064 23.751843 7.209437 C 23.8328 6.801809 23.952476 6.404634 24.11087 6.021395 C 24.272784 5.634672 24.466377 5.272337 24.698688 4.923937 C 24.927479 4.579022 25.19147 4.258495 25.483619 3.965839 C 25.779288 3.673184 26.099596 3.4084 26.444543 3.178457 C 26.78949 2.948513 27.155557 2.75341 27.539223 2.593146 C 27.922888 2.432883 28.320633 2.314427 28.728938 2.234295 C 29.133723 2.150679 29.545548 2.112355 29.964412 2.112355 C 30.379757 2.112355 30.791582 2.150679 31.199887 2.234295 C 31.604672 2.314427 32.002417 2.432883 32.386082 2.593146 C 32.769748 2.75341 33.135815 2.948513 33.480762 3.178457 C 33.825709 3.4084 34.146017 3.673184 34.441686 3.965839 C 34.733835 4.258495 34.997825 4.579022 35.230137 4.923937 C 35.458928 5.272337 35.656041 5.634672 35.814435 6.021395 C 35.972829 6.404634 36.092505 6.801809 36.173462 7.209437 C 36.254419 7.617064 36.296657 8.028175 36.296657 8.44277 Z M 36.296657 8.44277 " stroke="#0fa958" stroke-width="4.222" stroke-opacity="1" stroke-miterlimit="4"/><path stroke-linecap="butt" transform="matrix(1.109771, 0, 0, 1.121199, 447.172135, 87.147254)" fill="none" stroke-linejoin="miter" d="M 15.188001 29.555766 C 15.188001 29.970361 15.145763 30.384956 15.064806 30.792583 C 14.983849 31.200211 14.864173 31.593902 14.705779 31.980625 C 14.547385 32.363864 14.350272 32.729683 14.117961 33.074599 C 13.889169 33.419514 13.625179 33.740041 13.33303 34.032697 C 13.037361 34.328836 12.717053 34.590135 12.372106 34.820079 C 12.027159 35.053507 11.661092 35.24861 11.277426 35.40539 C 10.893761 35.565653 10.496015 35.687593 10.091231 35.767725 C 9.682926 35.847857 9.271101 35.889665 8.855756 35.889665 C 8.436892 35.889665 8.025067 35.847857 7.616762 35.767725 C 7.211977 35.687593 6.814232 35.565653 6.430566 35.40539 C 6.046901 35.24861 5.680834 35.053507 5.335887 34.820079 C 4.99094 34.590135 4.670632 34.328836 4.374963 34.032697 C 4.082814 33.740041 3.818823 33.419514 3.590032 33.074599 C 3.357721 32.729683 3.160608 32.363864 3.002214 31.980625 C 2.84382 31.593902 2.724144 31.200211 2.643187 30.792583 C 2.56223 30.384956 2.519992 29.970361 2.519992 29.555766 C 2.519992 29.141171 2.56223 28.73006 2.643187 28.318949 C 2.724144 27.911321 2.84382 27.51763 3.002214 27.130907 C 3.160608 26.747668 3.357721 26.381849 3.590032 26.036933 C 3.818823 25.692018 4.082814 25.371491 4.374963 25.078835 C 4.670632 24.782696 4.99094 24.521396 5.335887 24.291453 C 5.680834 24.058025 6.046901 23.862922 6.430566 23.706142 C 6.814232 23.545879 7.211977 23.427423 7.616762 23.343807 C 8.025067 23.263675 8.436892 23.221867 8.855756 23.221867 C 9.271101 23.221867 9.682926 23.263675 10.091231 23.343807 C 10.496015 23.427423 10.893761 23.545879 11.277426 23.706142 C 11.661092 23.862922 12.027159 24.058025 12.372106 24.291453 C 12.717053 24.521396 13.037361 24.782696 13.33303 25.078835 C 13.625179 25.371491 13.889169 25.692018 14.117961 26.036933 C 14.350272 26.381849 14.547385 26.747668 14.705779 27.130907 C 14.864173 27.51763 14.983849 27.911321 15.064806 28.318949 C 15.145763 28.73006 15.188001 29.141171 15.188001 29.555766 Z M 15.188001 29.555766 " stroke="#0fa958" stroke-width="4.222" stroke-opacity="1" stroke-miterlimit="4"/></g><g clip-path="url(#b5263dd67a)"><path stroke-linecap="butt" transform="matrix(1.109771, 0, 0, 1.121199, 447.172135, 87.147254)" fill="none" stroke-linejoin="miter" d="M 23.628648 23.221867 L 36.296657 23.221867 L 36.296657 35.889665 L 23.628648 35.889665 Z M 23.628648 23.221867 " stroke="#0fa958" stroke-width="4.222" stroke-opacity="1" stroke-miterlimit="4"/></g><g clip-path="url(#35ac907d82)"><path stroke-linecap="butt" transform="matrix(1.109771, 0, 0, 1.121199, 447.172135, 87.147254)" fill="none" stroke-linejoin="miter" d="M 2.519992 2.112355 L 15.188001 2.112355 L 15.188001 14.776669 L 2.519992 14.776669 Z M 2.519992 2.112355 " stroke="#0fa958" stroke-width="4.222" stroke-opacity="1" stroke-miterlimit="4"/></g><g clip-path="url(#b9c1068bfc)"><path stroke-linecap="butt" transform="matrix(1.171704, 0, 0, 1.171704, 307.469823, 136.548053)" fill="none" stroke-linejoin="miter" d="M 28.903309 3.286142 L 8.333636 18.011627 C 4.366389 20.848709 3.902988 26.566211 7.353492 30.006714 C 10.797329 33.440549 16.498162 32.97048 19.33191 29.016569 L 34.067397 8.453564 C 35.114217 6.99335 34.960861 4.993058 33.70401 3.709537 C 32.427157 2.402679 30.390193 2.225987 28.903309 3.286142 Z M 28.903309 3.286142 " stroke="#c7b9ff" stroke-width="4.132" stroke-opacity="1" stroke-miterlimit="4"/></g><g clip-path="url(#18e2e6f517)"><path fill="#ffc700" d="M 473.738281 159.753906 C 466.863281 159.753906 464.570312 165.085938 464.570312 168.855469 C 464.570312 172.625 466.863281 177.957031 473.738281 177.957031 L 489.785156 177.957031 L 489.785156 171.128906 L 473.738281 171.128906 C 472.472656 171.128906 471.445312 170.113281 471.445312 168.855469 C 471.445312 167.597656 472.472656 166.578125 473.738281 166.578125 L 485.199219 166.578125 C 489.785156 166.578125 494.371094 164.304688 494.371094 157.476562 C 494.371094 150.652344 489.554688 148.375 485.199219 148.375 L 462.277344 148.375 C 461.011719 148.375 459.984375 147.355469 459.984375 146.097656 C 459.984375 144.84375 461.011719 143.824219 462.277344 143.824219 L 479.46875 143.824219 C 481.367188 143.824219 482.910156 142.296875 482.910156 140.410156 C 482.910156 138.527344 481.367188 136.996094 479.46875 136.996094 L 462.277344 136.996094 C 455.398438 136.996094 453.109375 142.328125 453.109375 146.097656 C 453.109375 149.871094 455.398438 155.203125 462.277344 155.203125 L 485.199219 155.203125 C 486.46875 155.203125 487.492188 156.21875 487.492188 157.476562 C 487.492188 158.734375 486.46875 159.753906 485.199219 159.753906 Z M 473.738281 159.753906 " fill-opacity="1" fill-rule="nonzero"/></g><g clip-path="url(#e59082317f)"><path stroke-linecap="butt" transform="matrix(1.258692, 0, 0, 1.253105, 621.281664, 132.765465)" fill="none" stroke-linejoin="miter" d="M 18.651224 4.688481 L 33.71212 31.45948 L 3.590328 31.45948 Z M 18.651224 4.688481 " stroke="#0fa958" stroke-width="4.132" stroke-opacity="1" stroke-miterlimit="4"/></g><path fill="#0fa958" d="M 650.476562 164.421875 L 639.039062 164.421875 L 644.757812 154.070312 Z M 650.476562 164.421875 " fill-opacity="1" fill-rule="nonzero"/><g clip-path="url(#ce647de015)"><path fill="#ffc700" d="M 698.148438 86.601562 L 702.863281 86.601562 L 702.863281 98.386719 L 698.148438 98.386719 Z M 698.148438 86.601562 " fill-opacity="1" fill-rule="nonzero"/></g><g clip-path="url(#6aa12cf444)"><path fill="#ffc700" d="M 698.148438 117.242188 L 702.863281 117.242188 L 702.863281 129.023438 L 698.148438 129.023438 Z M 698.148438 117.242188 " fill-opacity="1" fill-rule="nonzero"/></g><path fill="#ffc700" d="M 683.542969 94.152344 L 686.839844 90.855469 L 695.640625 99.65625 L 692.34375 102.953125 Z M 683.542969 94.152344 " fill-opacity="1" fill-rule="nonzero"/><path fill="#ffc700" d="M 705.214844 115.820312 L 708.507812 112.527344 L 717.3125 121.328125 L 714.015625 124.625 Z M 705.214844 115.820312 " fill-opacity="1" fill-rule="nonzero"/><path fill="#ffc700" d="M 717.316406 94.152344 L 714.019531 90.855469 L 705.21875 99.65625 L 708.511719 102.953125 Z M 717.316406 94.152344 " fill-opacity="1" fill-rule="nonzero"/><path fill="#ffc700" d="M 695.644531 115.824219 L 692.347656 112.527344 L 683.546875 121.328125 L 686.839844 124.625 Z M 695.644531 115.824219 " fill-opacity="1" fill-rule="nonzero"/><path fill="#ffc700" d="M 679.292969 110.171875 L 679.292969 105.457031 L 691.074219 105.457031 L 691.074219 110.171875 Z M 679.292969 110.171875 " fill-opacity="1" fill-rule="nonzero"/><path fill="#ffc700" d="M 709.929688 110.171875 L 709.929688 105.457031 L 721.714844 105.457031 L 721.714844 110.171875 Z M 709.929688 110.171875 " fill-opacity="1" fill-rule="nonzero"/><g fill="#000000" fill-opacity="1"><g transform="translate(215.587779, 72.084347)"><g><path d="M 0.875 -6.28125 L 5.375 -7.78125 C 5.644531 -6.507812 6.25 -5.441406 7.1875 -4.578125 C 8.125 -3.722656 9.367188 -3.296875 10.921875 -3.296875 C 12.347656 -3.296875 13.421875 -3.546875 14.140625 -4.046875 C 14.859375 -4.546875 15.21875 -5.238281 15.21875 -6.125 C 15.21875 -7.5625 14.023438 -8.460938 11.640625 -8.828125 L 8.921875 -9.203125 C 4.296875 -9.847656 1.984375 -12.046875 1.984375 -15.796875 C 1.984375 -17.691406 2.757812 -19.273438 4.3125 -20.546875 C 5.875 -21.828125 7.992188 -22.46875 10.671875 -22.46875 C 13.222656 -22.46875 15.269531 -21.929688 16.8125 -20.859375 C 18.363281 -19.785156 19.414062 -18.367188 19.96875 -16.609375 L 15.5625 -15.0625 C 14.789062 -17.46875 13.160156 -18.671875 10.671875 -18.671875 C 9.441406 -18.671875 8.507812 -18.421875 7.875 -17.921875 C 7.25 -17.421875 6.9375 -16.773438 6.9375 -15.984375 C 6.9375 -14.679688 7.878906 -13.894531 9.765625 -13.625 L 12.5 -13.25 C 14.945312 -12.914062 16.835938 -12.171875 18.171875 -11.015625 C 19.515625 -9.867188 20.1875 -8.34375 20.1875 -6.4375 C 20.1875 -4.40625 19.390625 -2.738281 17.796875 -1.4375 C 16.203125 -0.144531 13.910156 0.5 10.921875 0.5 C 8.117188 0.5 5.859375 -0.125 4.140625 -1.375 C 2.421875 -2.632812 1.332031 -4.269531 0.875 -6.28125 Z M 0.875 -6.28125 "/></g></g></g><g fill="#000000" fill-opacity="1"><g transform="translate(237.092406, 72.084347)"><g><path d="M 2.640625 0 L 2.640625 -21.96875 L 7.40625 -21.96875 L 7.40625 -13.28125 L 16.828125 -13.28125 L 16.828125 -21.96875 L 21.59375 -21.96875 L 21.59375 0 L 16.828125 0 L 16.828125 -9.328125 L 7.40625 -9.328125 L 7.40625 0 Z M 2.640625 0 "/></g></g></g><g fill="#000000" fill-opacity="1"><g transform="translate(261.32828, 72.084347)"><g><path d="M 1.3125 -10.921875 C 1.3125 -14.273438 2.382812 -17.035156 4.53125 -19.203125 C 6.675781 -21.378906 9.515625 -22.46875 13.046875 -22.46875 C 16.585938 -22.46875 19.429688 -21.378906 21.578125 -19.203125 C 23.722656 -17.035156 24.796875 -14.273438 24.796875 -10.921875 C 24.835938 -7.597656 23.78125 -4.859375 21.625 -2.703125 C 19.46875 -0.546875 16.613281 0.519531 13.0625 0.5 C 9.5 0.519531 6.640625 -0.546875 4.484375 -2.703125 C 2.328125 -4.859375 1.269531 -7.597656 1.3125 -10.921875 Z M 19.8125 -10.953125 C 19.8125 -13.191406 19.203125 -15.007812 17.984375 -16.40625 C 16.773438 -17.8125 15.144531 -18.515625 13.09375 -18.515625 C 11 -18.515625 9.34375 -17.8125 8.125 -16.40625 C 6.914062 -15.007812 6.3125 -13.191406 6.3125 -10.953125 C 6.3125 -8.734375 6.914062 -6.925781 8.125 -5.53125 C 9.34375 -4.144531 11 -3.453125 13.09375 -3.453125 C 15.144531 -3.453125 16.773438 -4.144531 17.984375 -5.53125 C 19.203125 -6.925781 19.8125 -8.734375 19.8125 -10.953125 Z M 19.8125 -10.953125 "/></g></g></g><g fill="#000000" fill-opacity="1"><g transform="translate(287.447772, 72.084347)"><g><path d="M 2.640625 0 L 2.640625 -21.96875 L 12.5 -21.96875 C 14.863281 -21.96875 16.773438 -21.320312 18.234375 -20.03125 C 19.703125 -18.75 20.4375 -17.03125 20.4375 -14.875 C 20.4375 -12.71875 19.703125 -10.984375 18.234375 -9.671875 C 16.773438 -8.367188 14.875 -7.71875 12.53125 -7.71875 L 7.40625 -7.71875 L 7.40625 0 Z M 7.40625 -11.671875 L 11.640625 -11.671875 C 12.796875 -11.671875 13.722656 -11.957031 14.421875 -12.53125 C 15.117188 -13.113281 15.46875 -13.894531 15.46875 -14.875 C 15.46875 -15.820312 15.113281 -16.582031 14.40625 -17.15625 C 13.695312 -17.726562 12.773438 -18.015625 11.640625 -18.015625 L 7.40625 -18.015625 Z M 7.40625 -11.671875 "/></g></g></g><g fill="#000000" fill-opacity="1"><g transform="translate(308.638466, 72.084347)"><g><path d="M 2.640625 0 L 2.640625 -21.96875 L 7.40625 -21.96875 L 7.40625 -4.046875 L 19.25 -4.046875 L 19.25 0 Z M 2.640625 0 "/></g></g></g><g fill="#000000" fill-opacity="1"><g transform="translate(328.196688, 72.084347)"><g><path d="M 8.25 0 L 8.25 -8.953125 L 0.28125 -21.96875 L 5.8125 -21.96875 L 8.28125 -17.703125 C 8.75 -16.929688 9.097656 -16.1875 9.328125 -15.46875 C 9.660156 -14.550781 9.835938 -13.109375 9.859375 -11.140625 L 11.546875 -11.140625 C 11.585938 -12.628906 11.703125 -13.800781 11.890625 -14.65625 C 12.078125 -15.519531 12.507812 -16.554688 13.1875 -17.765625 L 15.46875 -21.96875 L 20.84375 -21.96875 L 13.03125 -8.953125 L 13.03125 0 Z M 8.25 0 "/></g></g></g><g fill="#000000" fill-opacity="1"><g transform="translate(418.638972, 72.084347)"><g><path d="M 1.28125 -11.015625 C 1.238281 -14.242188 2.3125 -16.96875 4.5 -19.1875 C 6.6875 -21.414062 9.425781 -22.507812 12.71875 -22.46875 C 15.25 -22.46875 17.414062 -21.84375 19.21875 -20.59375 C 21.03125 -19.351562 22.242188 -17.722656 22.859375 -15.703125 L 18.546875 -14.03125 C 17.503906 -17.019531 15.539062 -18.515625 12.65625 -18.515625 C 10.664062 -18.515625 9.101562 -17.851562 7.96875 -16.53125 C 6.84375 -15.21875 6.28125 -13.378906 6.28125 -11.015625 C 6.28125 -8.628906 6.835938 -6.773438 7.953125 -5.453125 C 9.078125 -4.140625 10.644531 -3.484375 12.65625 -3.484375 C 15.582031 -3.484375 17.585938 -4.988281 18.671875 -8 L 22.890625 -6.3125 C 22.066406 -4.113281 20.789062 -2.425781 19.0625 -1.25 C 17.34375 -0.0820312 15.207031 0.5 12.65625 0.5 C 9.257812 0.5 6.515625 -0.578125 4.421875 -2.734375 C 2.328125 -4.890625 1.28125 -7.648438 1.28125 -11.015625 Z M 1.28125 -11.015625 "/></g></g></g><g fill="#000000" fill-opacity="1"><g transform="translate(442.341152, 72.084347)"><g><path d="M 1.3125 -10.921875 C 1.3125 -14.273438 2.382812 -17.035156 4.53125 -19.203125 C 6.675781 -21.378906 9.515625 -22.46875 13.046875 -22.46875 C 16.585938 -22.46875 19.429688 -21.378906 21.578125 -19.203125 C 23.722656 -17.035156 24.796875 -14.273438 24.796875 -10.921875 C 24.835938 -7.597656 23.78125 -4.859375 21.625 -2.703125 C 19.46875 -0.546875 16.613281 0.519531 13.0625 0.5 C 9.5 0.519531 6.640625 -0.546875 4.484375 -2.703125 C 2.328125 -4.859375 1.269531 -7.597656 1.3125 -10.921875 Z M 19.8125 -10.953125 C 19.8125 -13.191406 19.203125 -15.007812 17.984375 -16.40625 C 16.773438 -17.8125 15.144531 -18.515625 13.09375 -18.515625 C 11 -18.515625 9.34375 -17.8125 8.125 -16.40625 C 6.914062 -15.007812 6.3125 -13.191406 6.3125 -10.953125 C 6.3125 -8.734375 6.914062 -6.925781 8.125 -5.53125 C 9.34375 -4.144531 11 -3.453125 13.09375 -3.453125 C 15.144531 -3.453125 16.773438 -4.144531 17.984375 -5.53125 C 19.203125 -6.925781 19.8125 -8.734375 19.8125 -10.953125 Z M 19.8125 -10.953125 "/></g></g></g><g fill="#000000" fill-opacity="1"><g transform="translate(468.460644, 72.084347)"><g><path d="M 2.640625 0 L 2.640625 -21.96875 L 7.40625 -21.96875 L 7.40625 -4.046875 L 19.25 -4.046875 L 19.25 0 Z M 2.640625 0 "/></g></g></g><g fill="#000000" fill-opacity="1"><g transform="translate(488.018866, 72.084347)"><g><path d="M 2.640625 0 L 2.640625 -21.96875 L 7.40625 -21.96875 L 7.40625 -4.046875 L 19.25 -4.046875 L 19.25 0 Z M 2.640625 0 "/></g></g></g><g fill="#000000" fill-opacity="1"><g transform="translate(507.577089, 72.084347)"><g><path d="M 2.640625 0 L 2.640625 -21.96875 L 19.25 -21.96875 L 19.25 -18.015625 L 7.40625 -18.015625 L 7.40625 -13.25 L 16.359375 -13.25 L 16.359375 -9.359375 L 7.40625 -9.359375 L 7.40625 -3.953125 L 19.25 -3.953125 L 19.25 0 Z M 2.640625 0 "/></g></g></g><g fill="#000000" fill-opacity="1"><g transform="translate(528.296875, 72.084347)"><g><path d="M 1.28125 -11.015625 C 1.238281 -14.242188 2.3125 -16.96875 4.5 -19.1875 C 6.6875 -21.414062 9.425781 -22.507812 12.71875 -22.46875 C 15.25 -22.46875 17.414062 -21.84375 19.21875 -20.59375 C 21.03125 -19.351562 22.242188 -17.722656 22.859375 -15.703125 L 18.546875 -14.03125 C 17.503906 -17.019531 15.539062 -18.515625 12.65625 -18.515625 C 10.664062 -18.515625 9.101562 -17.851562 7.96875 -16.53125 C 6.84375 -15.21875 6.28125 -13.378906 6.28125 -11.015625 C 6.28125 -8.628906 6.835938 -6.773438 7.953125 -5.453125 C 9.078125 -4.140625 10.644531 -3.484375 12.65625 -3.484375 C 15.582031 -3.484375 17.585938 -4.988281 18.671875 -8 L 22.890625 -6.3125 C 22.066406 -4.113281 20.789062 -2.425781 19.0625 -1.25 C 17.34375 -0.0820312 15.207031 0.5 12.65625 0.5 C 9.257812 0.5 6.515625 -0.578125 4.421875 -2.734375 C 2.328125 -4.890625 1.28125 -7.648438 1.28125 -11.015625 Z M 1.28125 -11.015625 "/></g></g></g><g fill="#000000" fill-opacity="1"><g transform="translate(551.999054, 72.084347)"><g><path d="M 7.84375 0 L 7.84375 -18.015625 L 0.3125 -18.015625 L 0.3125 -21.96875 L 20.15625 -21.96875 L 20.15625 -18.015625 L 12.625 -18.015625 L 12.625 0 Z M 7.84375 0 "/></g></g></g><g fill="#000000" fill-opacity="1"><g transform="translate(572.467692, 72.084347)"><g><path d="M 2.640625 0 L 2.640625 -21.96875 L 7.40625 -21.96875 L 7.40625 0 Z M 2.640625 0 "/></g></g></g><g fill="#000000" fill-opacity="1"><g transform="translate(582.513651, 72.084347)"><g><path d="M 1.3125 -10.921875 C 1.3125 -14.273438 2.382812 -17.035156 4.53125 -19.203125 C 6.675781 -21.378906 9.515625 -22.46875 13.046875 -22.46875 C 16.585938 -22.46875 19.429688 -21.378906 21.578125 -19.203125 C 23.722656 -17.035156 24.796875 -14.273438 24.796875 -10.921875 C 24.835938 -7.597656 23.78125 -4.859375 21.625 -2.703125 C 19.46875 -0.546875 16.613281 0.519531 13.0625 0.5 C 9.5 0.519531 6.640625 -0.546875 4.484375 -2.703125 C 2.328125 -4.859375 1.269531 -7.597656 1.3125 -10.921875 Z M 19.8125 -10.953125 C 19.8125 -13.191406 19.203125 -15.007812 17.984375 -16.40625 C 16.773438 -17.8125 15.144531 -18.515625 13.09375 -18.515625 C 11 -18.515625 9.34375 -17.8125 8.125 -16.40625 C 6.914062 -15.007812 6.3125 -13.191406 6.3125 -10.953125 C 6.3125 -8.734375 6.914062 -6.925781 8.125 -5.53125 C 9.34375 -4.144531 11 -3.453125 13.09375 -3.453125 C 15.144531 -3.453125 16.773438 -4.144531 17.984375 -5.53125 C 19.203125 -6.925781 19.8125 -8.734375 19.8125 -10.953125 Z M 19.8125 -10.953125 "/></g></g></g><g fill="#000000" fill-opacity="1"><g transform="translate(608.633142, 72.084347)"><g><path d="M 2.640625 0 L 2.640625 -21.96875 L 9.984375 -21.96875 L 19.75 -5.65625 L 21.15625 -6.625 C 20.300781 -8.070312 19.75 -9.1875 19.5 -9.96875 C 19.257812 -10.75 19.128906 -11.988281 19.109375 -13.6875 L 19.109375 -21.96875 L 23.890625 -21.96875 L 23.890625 0 L 18.140625 0 L 6.75 -19.078125 L 5.3125 -18.171875 C 6.082031 -16.734375 6.625 -15.5 6.9375 -14.46875 C 7.25 -13.445312 7.40625 -12.117188 7.40625 -10.484375 L 7.40625 0 Z M 2.640625 0 "/></g></g></g><g fill="#000000" fill-opacity="1"><g transform="translate(715.209481, 72.084347)"><g><path d="M 1.3125 -10.921875 C 1.3125 -14.273438 2.382812 -17.035156 4.53125 -19.203125 C 6.675781 -21.378906 9.515625 -22.46875 13.046875 -22.46875 C 16.585938 -22.46875 19.429688 -21.378906 21.578125 -19.203125 C 23.722656 -17.035156 24.796875 -14.273438 24.796875 -10.921875 C 24.835938 -7.597656 23.78125 -4.859375 21.625 -2.703125 C 19.46875 -0.546875 16.613281 0.519531 13.0625 0.5 C 9.5 0.519531 6.640625 -0.546875 4.484375 -2.703125 C 2.328125 -4.859375 1.269531 -7.597656 1.3125 -10.921875 Z M 19.8125 -10.953125 C 19.8125 -13.191406 19.203125 -15.007812 17.984375 -16.40625 C 16.773438 -17.8125 15.144531 -18.515625 13.09375 -18.515625 C 11 -18.515625 9.34375 -17.8125 8.125 -16.40625 C 6.914062 -15.007812 6.3125 -13.191406 6.3125 -10.953125 C 6.3125 -8.734375 6.914062 -6.925781 8.125 -5.53125 C 9.34375 -4.144531 11 -3.453125 13.09375 -3.453125 C 15.144531 -3.453125 16.773438 -4.144531 17.984375 -5.53125 C 19.203125 -6.925781 19.8125 -8.734375 19.8125 -10.953125 Z M 19.8125 -10.953125 "/></g></g></g><g fill="#000000" fill-opacity="1"><g transform="translate(741.328973, 72.084347)"><g><path d="M 2.640625 0 L 2.640625 -21.96875 L 19.53125 -21.96875 L 19.53125 -18.015625 L 7.40625 -18.015625 L 7.40625 -12.3125 L 17.109375 -12.3125 L 17.109375 -8.34375 L 7.40625 -8.34375 L 7.40625 0 Z M 2.640625 0 "/></g></g></g><g fill="#000000" fill-opacity="1"><g transform="translate(350.831387, 119.383907)"><g><path d="M 17.765625 0 L 16.015625 -5.140625 L 7.09375 -5.140625 L 5.28125 0 L 0.15625 0 L 8.53125 -21.96875 L 14.71875 -21.96875 L 23.046875 0 Z M 8.46875 -9.109375 L 14.65625 -9.109375 L 13.03125 -13.875 C 12.65625 -14.914062 12.457031 -16.726562 12.4375 -19.3125 L 10.734375 -19.3125 C 10.691406 -17.675781 10.640625 -16.578125 10.578125 -16.015625 C 10.515625 -15.296875 10.367188 -14.570312 10.140625 -13.84375 Z M 8.46875 -9.109375 "/></g></g></g><g fill="#000000" fill-opacity="1"><g transform="translate(374.062671, 119.383907)"><g><path d="M 2.640625 0 L 2.640625 -21.96875 L 9.984375 -21.96875 L 19.75 -5.65625 L 21.15625 -6.625 C 20.300781 -8.070312 19.75 -9.1875 19.5 -9.96875 C 19.257812 -10.75 19.128906 -11.988281 19.109375 -13.6875 L 19.109375 -21.96875 L 23.890625 -21.96875 L 23.890625 0 L 18.140625 0 L 6.75 -19.078125 L 5.3125 -18.171875 C 6.082031 -16.734375 6.625 -15.5 6.9375 -14.46875 C 7.25 -13.445312 7.40625 -12.117188 7.40625 -10.484375 L 7.40625 0 Z M 2.640625 0 "/></g></g></g><g fill="#000000" fill-opacity="1"><g transform="translate(400.590284, 119.383907)"><g><path d="M 2.640625 0 L 2.640625 -21.96875 L 10.921875 -21.96875 C 14.171875 -22.007812 16.925781 -21.023438 19.1875 -19.015625 C 21.457031 -17.015625 22.570312 -14.390625 22.53125 -11.140625 C 22.570312 -7.816406 21.457031 -5.117188 19.1875 -3.046875 C 16.925781 -0.972656 14.171875 0.0390625 10.921875 0 Z M 7.40625 -3.953125 L 10.703125 -3.953125 C 15.304688 -3.953125 17.609375 -6.316406 17.609375 -11.046875 C 17.609375 -13.203125 17.03125 -14.898438 15.875 -16.140625 C 14.726562 -17.390625 13.066406 -18.015625 10.890625 -18.015625 L 7.40625 -18.015625 Z M 7.40625 -3.953125 "/></g></g></g><g fill="#000000" fill-opacity="1"><g transform="translate(730.325065, 117.965642)"><g><path d="M 2.640625 0 L 2.640625 -21.96875 L 19.53125 -21.96875 L 19.53125 -18.015625 L 7.40625 -18.015625 L 7.40625 -12.3125 L 17.109375 -12.3125 L 17.109375 -8.34375 L 7.40625 -8.34375 L 7.40625 0 Z M 2.640625 0 "/></g></g></g><g fill="#000000" fill-opacity="1"><g transform="translate(750.605342, 117.965642)"><g><path d="M 1.3125 -10.921875 C 1.3125 -14.273438 2.382812 -17.035156 4.53125 -19.203125 C 6.675781 -21.378906 9.515625 -22.46875 13.046875 -22.46875 C 16.585938 -22.46875 19.429688 -21.378906 21.578125 -19.203125 C 23.722656 -17.035156 24.796875 -14.273438 24.796875 -10.921875 C 24.835938 -7.597656 23.78125 -4.859375 21.625 -2.703125 C 19.46875 -0.546875 16.613281 0.519531 13.0625 0.5 C 9.5 0.519531 6.640625 -0.546875 4.484375 -2.703125 C 2.328125 -4.859375 1.269531 -7.597656 1.3125 -10.921875 Z M 19.8125 -10.953125 C 19.8125 -13.191406 19.203125 -15.007812 17.984375 -16.40625 C 16.773438 -17.8125 15.144531 -18.515625 13.09375 -18.515625 C 11 -18.515625 9.34375 -17.8125 8.125 -16.40625 C 6.914062 -15.007812 6.3125 -13.191406 6.3125 -10.953125 C 6.3125 -8.734375 6.914062 -6.925781 8.125 -5.53125 C 9.34375 -4.144531 11 -3.453125 13.09375 -3.453125 C 15.144531 -3.453125 16.773438 -4.144531 17.984375 -5.53125 C 19.203125 -6.925781 19.8125 -8.734375 19.8125 -10.953125 Z M 19.8125 -10.953125 "/></g></g></g><g fill="#000000" fill-opacity="1"><g transform="translate(776.724834, 117.965642)"><g><path d="M 2.640625 0 L 2.640625 -21.96875 L 13.5 -21.96875 C 15.820312 -21.96875 17.648438 -21.441406 18.984375 -20.390625 C 20.328125 -19.347656 21 -17.953125 21 -16.203125 C 21 -14.753906 20.644531 -13.664062 19.9375 -12.9375 C 19.300781 -12.238281 18.550781 -11.765625 17.6875 -11.515625 C 16.820312 -11.265625 15.664062 -11.109375 14.21875 -11.046875 L 14.21875 -9.421875 C 16.269531 -9.359375 17.742188 -9.050781 18.640625 -8.5 C 19.546875 -7.957031 20.15625 -6.882812 20.46875 -5.28125 L 21.375 0 L 16.296875 0 L 15.625 -4.859375 C 15.4375 -6.140625 15.03125 -7.039062 14.40625 -7.5625 C 13.78125 -8.082031 12.773438 -8.34375 11.390625 -8.34375 L 7.40625 -8.34375 L 7.40625 0 Z M 7.40625 -12.21875 L 12.59375 -12.21875 C 13.65625 -12.21875 14.492188 -12.46875 15.109375 -12.96875 C 15.734375 -13.46875 16.046875 -14.1875 16.046875 -15.125 C 16.046875 -16.050781 15.734375 -16.765625 15.109375 -17.265625 C 14.492188 -17.765625 13.65625 -18.015625 12.59375 -18.015625 L 7.40625 -18.015625 Z M 7.40625 -12.21875 "/></g></g></g><g fill="#000000" fill-opacity="1"><g transform="translate(225.611666, 168.494362)"><g><path d="M 8.25 0 L 8.25 -8.953125 L 0.28125 -21.96875 L 5.8125 -21.96875 L 8.28125 -17.703125 C 8.75 -16.929688 9.097656 -16.1875 9.328125 -15.46875 C 9.660156 -14.550781 9.835938 -13.109375 9.859375 -11.140625 L 11.546875 -11.140625 C 11.585938 -12.628906 11.703125 -13.800781 11.890625 -14.65625 C 12.078125 -15.519531 12.507812 -16.554688 13.1875 -17.765625 L 15.46875 -21.96875 L 20.84375 -21.96875 L 13.03125 -8.953125 L 13.03125 0 Z M 8.25 0 "/></g></g></g><g fill="#000000" fill-opacity="1"><g transform="translate(246.833758, 168.494362)"><g><path d="M 1.3125 -10.921875 C 1.3125 -14.273438 2.382812 -17.035156 4.53125 -19.203125 C 6.675781 -21.378906 9.515625 -22.46875 13.046875 -22.46875 C 16.585938 -22.46875 19.429688 -21.378906 21.578125 -19.203125 C 23.722656 -17.035156 24.796875 -14.273438 24.796875 -10.921875 C 24.835938 -7.597656 23.78125 -4.859375 21.625 -2.703125 C 19.46875 -0.546875 16.613281 0.519531 13.0625 0.5 C 9.5 0.519531 6.640625 -0.546875 4.484375 -2.703125 C 2.328125 -4.859375 1.269531 -7.597656 1.3125 -10.921875 Z M 19.8125 -10.953125 C 19.8125 -13.191406 19.203125 -15.007812 17.984375 -16.40625 C 16.773438 -17.8125 15.144531 -18.515625 13.09375 -18.515625 C 11 -18.515625 9.34375 -17.8125 8.125 -16.40625 C 6.914062 -15.007812 6.3125 -13.191406 6.3125 -10.953125 C 6.3125 -8.734375 6.914062 -6.925781 8.125 -5.53125 C 9.34375 -4.144531 11 -3.453125 13.09375 -3.453125 C 15.144531 -3.453125 16.773438 -4.144531 17.984375 -5.53125 C 19.203125 -6.925781 19.8125 -8.734375 19.8125 -10.953125 Z M 19.8125 -10.953125 "/></g></g></g><g fill="#000000" fill-opacity="1"><g transform="translate(272.95325, 168.494362)"><g><path d="M 2.390625 -8.5625 L 2.390625 -21.96875 L 7.15625 -21.96875 L 7.15625 -9.328125 C 7.15625 -7.441406 7.582031 -6.007812 8.4375 -5.03125 C 9.300781 -4.0625 10.570312 -3.578125 12.25 -3.578125 C 15.632812 -3.578125 17.328125 -5.492188 17.328125 -9.328125 L 17.328125 -21.96875 L 22.09375 -21.96875 L 22.09375 -8.5625 C 22.09375 -5.78125 21.179688 -3.570312 19.359375 -1.9375 C 17.546875 -0.3125 15.175781 0.5 12.25 0.5 C 9.25 0.5 6.851562 -0.3125 5.0625 -1.9375 C 3.28125 -3.570312 2.390625 -5.78125 2.390625 -8.5625 Z M 2.390625 -8.5625 "/></g></g></g><g fill="#000000" fill-opacity="1"><g transform="translate(361.172901, 166.179128)"><g><path d="M 17.765625 0 L 16.015625 -5.140625 L 7.09375 -5.140625 L 5.28125 0 L 0.15625 0 L 8.53125 -21.96875 L 14.71875 -21.96875 L 23.046875 0 Z M 8.46875 -9.109375 L 14.65625 -9.109375 L 13.03125 -13.875 C 12.65625 -14.914062 12.457031 -16.726562 12.4375 -19.3125 L 10.734375 -19.3125 C 10.691406 -17.675781 10.640625 -16.578125 10.578125 -16.015625 C 10.515625 -15.296875 10.367188 -14.570312 10.140625 -13.84375 Z M 8.46875 -9.109375 "/></g></g></g><g fill="#000000" fill-opacity="1"><g transform="translate(384.404185, 166.179128)"><g><path d="M 2.640625 0 L 2.640625 -21.96875 L 9.984375 -21.96875 L 19.75 -5.65625 L 21.15625 -6.625 C 20.300781 -8.070312 19.75 -9.1875 19.5 -9.96875 C 19.257812 -10.75 19.128906 -11.988281 19.109375 -13.6875 L 19.109375 -21.96875 L 23.890625 -21.96875 L 23.890625 0 L 18.140625 0 L 6.75 -19.078125 L 5.3125 -18.171875 C 6.082031 -16.734375 6.625 -15.5 6.9375 -14.46875 C 7.25 -13.445312 7.40625 -12.117188 7.40625 -10.484375 L 7.40625 0 Z M 2.640625 0 "/></g></g></g><g fill="#000000" fill-opacity="1"><g transform="translate(410.931797, 166.179128)"><g><path d="M 2.640625 0 L 2.640625 -21.96875 L 10.921875 -21.96875 C 14.171875 -22.007812 16.925781 -21.023438 19.1875 -19.015625 C 21.457031 -17.015625 22.570312 -14.390625 22.53125 -11.140625 C 22.570312 -7.816406 21.457031 -5.117188 19.1875 -3.046875 C 16.925781 -0.972656 14.171875 0.0390625 10.921875 0 Z M 7.40625 -3.953125 L 10.703125 -3.953125 C 15.304688 -3.953125 17.609375 -6.316406 17.609375 -11.046875 C 17.609375 -13.203125 17.03125 -14.898438 15.875 -16.140625 C 14.726562 -17.390625 13.066406 -18.015625 10.890625 -18.015625 L 7.40625 -18.015625 Z M 7.40625 -3.953125 "/></g></g></g><g fill="#000000" fill-opacity="1"><g transform="translate(510.209078, 166.179128)"><g><path d="M 8.25 0 L 8.25 -8.953125 L 0.28125 -21.96875 L 5.8125 -21.96875 L 8.28125 -17.703125 C 8.75 -16.929688 9.097656 -16.1875 9.328125 -15.46875 C 9.660156 -14.550781 9.835938 -13.109375 9.859375 -11.140625 L 11.546875 -11.140625 C 11.585938 -12.628906 11.703125 -13.800781 11.890625 -14.65625 C 12.078125 -15.519531 12.507812 -16.554688 13.1875 -17.765625 L 15.46875 -21.96875 L 20.84375 -21.96875 L 13.03125 -8.953125 L 13.03125 0 Z M 8.25 0 "/></g></g></g><g fill="#000000" fill-opacity="1"><g transform="translate(531.43117, 166.179128)"><g><path d="M 1.3125 -10.921875 C 1.3125 -14.273438 2.382812 -17.035156 4.53125 -19.203125 C 6.675781 -21.378906 9.515625 -22.46875 13.046875 -22.46875 C 16.585938 -22.46875 19.429688 -21.378906 21.578125 -19.203125 C 23.722656 -17.035156 24.796875 -14.273438 24.796875 -10.921875 C 24.835938 -7.597656 23.78125 -4.859375 21.625 -2.703125 C 19.46875 -0.546875 16.613281 0.519531 13.0625 0.5 C 9.5 0.519531 6.640625 -0.546875 4.484375 -2.703125 C 2.328125 -4.859375 1.269531 -7.597656 1.3125 -10.921875 Z M 19.8125 -10.953125 C 19.8125 -13.191406 19.203125 -15.007812 17.984375 -16.40625 C 16.773438 -17.8125 15.144531 -18.515625 13.09375 -18.515625 C 11 -18.515625 9.34375 -17.8125 8.125 -16.40625 C 6.914062 -15.007812 6.3125 -13.191406 6.3125 -10.953125 C 6.3125 -8.734375 6.914062 -6.925781 8.125 -5.53125 C 9.34375 -4.144531 11 -3.453125 13.09375 -3.453125 C 15.144531 -3.453125 16.773438 -4.144531 17.984375 -5.53125 C 19.203125 -6.925781 19.8125 -8.734375 19.8125 -10.953125 Z M 19.8125 -10.953125 "/></g></g></g><g fill="#000000" fill-opacity="1"><g transform="translate(557.550662, 166.179128)"><g><path d="M 2.390625 -8.5625 L 2.390625 -21.96875 L 7.15625 -21.96875 L 7.15625 -9.328125 C 7.15625 -7.441406 7.582031 -6.007812 8.4375 -5.03125 C 9.300781 -4.0625 10.570312 -3.578125 12.25 -3.578125 C 15.632812 -3.578125 17.328125 -5.492188 17.328125 -9.328125 L 17.328125 -21.96875 L 22.09375 -21.96875 L 22.09375 -8.5625 C 22.09375 -5.78125 21.179688 -3.570312 19.359375 -1.9375 C 17.546875 -0.3125 15.175781 0.5 12.25 0.5 C 9.25 0.5 6.851562 -0.3125 5.0625 -1.9375 C 3.28125 -3.570312 2.390625 -5.78125 2.390625 -8.5625 Z M 2.390625 -8.5625 "/></g></g></g><g fill="#000000" fill-opacity="1"><g transform="translate(582.037683, 166.179128)"><g><path d="M 2.640625 0 L 2.640625 -21.96875 L 13.5 -21.96875 C 15.820312 -21.96875 17.648438 -21.441406 18.984375 -20.390625 C 20.328125 -19.347656 21 -17.953125 21 -16.203125 C 21 -14.753906 20.644531 -13.664062 19.9375 -12.9375 C 19.300781 -12.238281 18.550781 -11.765625 17.6875 -11.515625 C 16.820312 -11.265625 15.664062 -11.109375 14.21875 -11.046875 L 14.21875 -9.421875 C 16.269531 -9.359375 17.742188 -9.050781 18.640625 -8.5 C 19.546875 -7.957031 20.15625 -6.882812 20.46875 -5.28125 L 21.375 0 L 16.296875 0 L 15.625 -4.859375 C 15.4375 -6.140625 15.03125 -7.039062 14.40625 -7.5625 C 13.78125 -8.082031 12.773438 -8.34375 11.390625 -8.34375 L 7.40625 -8.34375 L 7.40625 0 Z M 7.40625 -12.21875 L 12.59375 -12.21875 C 13.65625 -12.21875 14.492188 -12.46875 15.109375 -12.96875 C 15.734375 -13.46875 16.046875 -14.1875 16.046875 -15.125 C 16.046875 -16.050781 15.734375 -16.765625 15.109375 -17.265625 C 14.492188 -17.765625 13.65625 -18.015625 12.59375 -18.015625 L 7.40625 -18.015625 Z M 7.40625 -12.21875 "/></g></g></g><g fill="#000000" fill-opacity="1"><g transform="translate(692.954741, 166.179128)"><g><path d="M 2.640625 0 L 2.640625 -21.96875 L 19.53125 -21.96875 L 19.53125 -18.015625 L 7.40625 -18.015625 L 7.40625 -12.3125 L 17.109375 -12.3125 L 17.109375 -8.34375 L 7.40625 -8.34375 L 7.40625 0 Z M 2.640625 0 "/></g></g></g><g fill="#000000" fill-opacity="1"><g transform="translate(713.235018, 166.179128)"><g><path d="M 2.640625 0 L 2.640625 -21.96875 L 13.5 -21.96875 C 15.820312 -21.96875 17.648438 -21.441406 18.984375 -20.390625 C 20.328125 -19.347656 21 -17.953125 21 -16.203125 C 21 -14.753906 20.644531 -13.664062 19.9375 -12.9375 C 19.300781 -12.238281 18.550781 -11.765625 17.6875 -11.515625 C 16.820312 -11.265625 15.664062 -11.109375 14.21875 -11.046875 L 14.21875 -9.421875 C 16.269531 -9.359375 17.742188 -9.050781 18.640625 -8.5 C 19.546875 -7.957031 20.15625 -6.882812 20.46875 -5.28125 L 21.375 0 L 16.296875 0 L 15.625 -4.859375 C 15.4375 -6.140625 15.03125 -7.039062 14.40625 -7.5625 C 13.78125 -8.082031 12.773438 -8.34375 11.390625 -8.34375 L 7.40625 -8.34375 L 7.40625 0 Z M 7.40625 -12.21875 L 12.59375 -12.21875 C 13.65625 -12.21875 14.492188 -12.46875 15.109375 -12.96875 C 15.734375 -13.46875 16.046875 -14.1875 16.046875 -15.125 C 16.046875 -16.050781 15.734375 -16.765625 15.109375 -17.265625 C 14.492188 -17.765625 13.65625 -18.015625 12.59375 -18.015625 L 7.40625 -18.015625 Z M 7.40625 -12.21875 "/></g></g></g><g fill="#000000" fill-opacity="1"><g transform="translate(736.026782, 166.179128)"><g><path d="M 2.640625 0 L 2.640625 -21.96875 L 7.40625 -21.96875 L 7.40625 0 Z M 2.640625 0 "/></g></g></g><g fill="#000000" fill-opacity="1"><g transform="translate(746.072741, 166.179128)"><g><path d="M 2.640625 0 L 2.640625 -21.96875 L 19.25 -21.96875 L 19.25 -18.015625 L 7.40625 -18.015625 L 7.40625 -13.25 L 16.359375 -13.25 L 16.359375 -9.359375 L 7.40625 -9.359375 L 7.40625 -3.953125 L 19.25 -3.953125 L 19.25 0 Z M 2.640625 0 "/></g></g></g><g fill="#000000" fill-opacity="1"><g transform="translate(766.792527, 166.179128)"><g><path d="M 2.640625 0 L 2.640625 -21.96875 L 9.984375 -21.96875 L 19.75 -5.65625 L 21.15625 -6.625 C 20.300781 -8.070312 19.75 -9.1875 19.5 -9.96875 C 19.257812 -10.75 19.128906 -11.988281 19.109375 -13.6875 L 19.109375 -21.96875 L 23.890625 -21.96875 L 23.890625 0 L 18.140625 0 L 6.75 -19.078125 L 5.3125 -18.171875 C 6.082031 -16.734375 6.625 -15.5 6.9375 -14.46875 C 7.25 -13.445312 7.40625 -12.117188 7.40625 -10.484375 L 7.40625 0 Z M 2.640625 0 "/></g></g></g><g fill="#000000" fill-opacity="1"><g transform="translate(793.320139, 166.179128)"><g><path d="M 2.640625 0 L 2.640625 -21.96875 L 10.921875 -21.96875 C 14.171875 -22.007812 16.925781 -21.023438 19.1875 -19.015625 C 21.457031 -17.015625 22.570312 -14.390625 22.53125 -11.140625 C 22.570312 -7.816406 21.457031 -5.117188 19.1875 -3.046875 C 16.925781 -0.972656 14.171875 0.0390625 10.921875 0 Z M 7.40625 -3.953125 L 10.703125 -3.953125 C 15.304688 -3.953125 17.609375 -6.316406 17.609375 -11.046875 C 17.609375 -13.203125 17.03125 -14.898438 15.875 -16.140625 C 14.726562 -17.390625 13.066406 -18.015625 10.890625 -18.015625 L 7.40625 -18.015625 Z M 7.40625 -3.953125 "/></g></g></g><g fill="#000000" fill-opacity="1"><g transform="translate(817.179291, 166.179128)"><g><path d="M 0.875 -6.28125 L 5.375 -7.78125 C 5.644531 -6.507812 6.25 -5.441406 7.1875 -4.578125 C 8.125 -3.722656 9.367188 -3.296875 10.921875 -3.296875 C 12.347656 -3.296875 13.421875 -3.546875 14.140625 -4.046875 C 14.859375 -4.546875 15.21875 -5.238281 15.21875 -6.125 C 15.21875 -7.5625 14.023438 -8.460938 11.640625 -8.828125 L 8.921875 -9.203125 C 4.296875 -9.847656 1.984375 -12.046875 1.984375 -15.796875 C 1.984375 -17.691406 2.757812 -19.273438 4.3125 -20.546875 C 5.875 -21.828125 7.992188 -22.46875 10.671875 -22.46875 C 13.222656 -22.46875 15.269531 -21.929688 16.8125 -20.859375 C 18.363281 -19.785156 19.414062 -18.367188 19.96875 -16.609375 L 15.5625 -15.0625 C 14.789062 -17.46875 13.160156 -18.671875 10.671875 -18.671875 C 9.441406 -18.671875 8.507812 -18.421875 7.875 -17.921875 C 7.25 -17.421875 6.9375 -16.773438 6.9375 -15.984375 C 6.9375 -14.679688 7.878906 -13.894531 9.765625 -13.625 L 12.5 -13.25 C 14.945312 -12.914062 16.835938 -12.171875 18.171875 -11.015625 C 19.515625 -9.867188 20.1875 -8.34375 20.1875 -6.4375 C 20.1875 -4.40625 19.390625 -2.738281 17.796875 -1.4375 C 16.203125 -0.144531 13.910156 0.5 10.921875 0.5 C 8.117188 0.5 5.859375 -0.125 4.140625 -1.375 C 2.421875 -2.632812 1.332031 -4.269531 0.875 -6.28125 Z M 0.875 -6.28125 "/></g></g></g><g fill="#000000" fill-opacity="1"><g transform="translate(168.167592, 120.131374)"><g><path d="M 0.875 -6.28125 L 5.375 -7.78125 C 5.644531 -6.507812 6.25 -5.441406 7.1875 -4.578125 C 8.125 -3.722656 9.367188 -3.296875 10.921875 -3.296875 C 12.347656 -3.296875 13.421875 -3.546875 14.140625 -4.046875 C 14.859375 -4.546875 15.21875 -5.238281 15.21875 -6.125 C 15.21875 -7.5625 14.023438 -8.460938 11.640625 -8.828125 L 8.921875 -9.203125 C 4.296875 -9.847656 1.984375 -12.046875 1.984375 -15.796875 C 1.984375 -17.691406 2.757812 -19.273438 4.3125 -20.546875 C 5.875 -21.828125 7.992188 -22.46875 10.671875 -22.46875 C 13.222656 -22.46875 15.269531 -21.929688 16.8125 -20.859375 C 18.363281 -19.785156 19.414062 -18.367188 19.96875 -16.609375 L 15.5625 -15.0625 C 14.789062 -17.46875 13.160156 -18.671875 10.671875 -18.671875 C 9.441406 -18.671875 8.507812 -18.421875 7.875 -17.921875 C 7.25 -17.421875 6.9375 -16.773438 6.9375 -15.984375 C 6.9375 -14.679688 7.878906 -13.894531 9.765625 -13.625 L 12.5 -13.25 C 14.945312 -12.914062 16.835938 -12.171875 18.171875 -11.015625 C 19.515625 -9.867188 20.1875 -8.34375 20.1875 -6.4375 C 20.1875 -4.40625 19.390625 -2.738281 17.796875 -1.4375 C 16.203125 -0.144531 13.910156 0.5 10.921875 0.5 C 8.117188 0.5 5.859375 -0.125 4.140625 -1.375 C 2.421875 -2.632812 1.332031 -4.269531 0.875 -6.28125 Z M 0.875 -6.28125 "/></g></g></g><g fill="#000000" fill-opacity="1"><g transform="translate(189.672219, 120.131374)"><g><path d="M 2.640625 0 L 2.640625 -21.96875 L 7.40625 -21.96875 L 7.40625 -13.28125 L 16.828125 -13.28125 L 16.828125 -21.96875 L 21.59375 -21.96875 L 21.59375 0 L 16.828125 0 L 16.828125 -9.328125 L 7.40625 -9.328125 L 7.40625 0 Z M 2.640625 0 "/></g></g></g><g fill="#000000" fill-opacity="1"><g transform="translate(213.908094, 120.131374)"><g><path d="M 1.3125 -10.921875 C 1.3125 -14.273438 2.382812 -17.035156 4.53125 -19.203125 C 6.675781 -21.378906 9.515625 -22.46875 13.046875 -22.46875 C 16.585938 -22.46875 19.429688 -21.378906 21.578125 -19.203125 C 23.722656 -17.035156 24.796875 -14.273438 24.796875 -10.921875 C 24.835938 -7.597656 23.78125 -4.859375 21.625 -2.703125 C 19.46875 -0.546875 16.613281 0.519531 13.0625 0.5 C 9.5 0.519531 6.640625 -0.546875 4.484375 -2.703125 C 2.328125 -4.859375 1.269531 -7.597656 1.3125 -10.921875 Z M 19.8125 -10.953125 C 19.8125 -13.191406 19.203125 -15.007812 17.984375 -16.40625 C 16.773438 -17.8125 15.144531 -18.515625 13.09375 -18.515625 C 11 -18.515625 9.34375 -17.8125 8.125 -16.40625 C 6.914062 -15.007812 6.3125 -13.191406 6.3125 -10.953125 C 6.3125 -8.734375 6.914062 -6.925781 8.125 -5.53125 C 9.34375 -4.144531 11 -3.453125 13.09375 -3.453125 C 15.144531 -3.453125 16.773438 -4.144531 17.984375 -5.53125 C 19.203125 -6.925781 19.8125 -8.734375 19.8125 -10.953125 Z M 19.8125 -10.953125 "/></g></g></g><g fill="#000000" fill-opacity="1"><g transform="translate(240.027585, 120.131374)"><g><path d="M 2.640625 0 L 2.640625 -21.96875 L 19.25 -21.96875 L 19.25 -18.015625 L 7.40625 -18.015625 L 7.40625 -13.25 L 16.359375 -13.25 L 16.359375 -9.359375 L 7.40625 -9.359375 L 7.40625 -3.953125 L 19.25 -3.953125 L 19.25 0 Z M 2.640625 0 "/></g></g></g><g fill="#000000" fill-opacity="1"><g transform="translate(260.747371, 120.131374)"><g><path d="M 0.875 -6.28125 L 5.375 -7.78125 C 5.644531 -6.507812 6.25 -5.441406 7.1875 -4.578125 C 8.125 -3.722656 9.367188 -3.296875 10.921875 -3.296875 C 12.347656 -3.296875 13.421875 -3.546875 14.140625 -4.046875 C 14.859375 -4.546875 15.21875 -5.238281 15.21875 -6.125 C 15.21875 -7.5625 14.023438 -8.460938 11.640625 -8.828125 L 8.921875 -9.203125 C 4.296875 -9.847656 1.984375 -12.046875 1.984375 -15.796875 C 1.984375 -17.691406 2.757812 -19.273438 4.3125 -20.546875 C 5.875 -21.828125 7.992188 -22.46875 10.671875 -22.46875 C 13.222656 -22.46875 15.269531 -21.929688 16.8125 -20.859375 C 18.363281 -19.785156 19.414062 -18.367188 19.96875 -16.609375 L 15.5625 -15.0625 C 14.789062 -17.46875 13.160156 -18.671875 10.671875 -18.671875 C 9.441406 -18.671875 8.507812 -18.421875 7.875 -17.921875 C 7.25 -17.421875 6.9375 -16.773438 6.9375 -15.984375 C 6.9375 -14.679688 7.878906 -13.894531 9.765625 -13.625 L 12.5 -13.25 C 14.945312 -12.914062 16.835938 -12.171875 18.171875 -11.015625 C 19.515625 -9.867188 20.1875 -8.34375 20.1875 -6.4375 C 20.1875 -4.40625 19.390625 -2.738281 17.796875 -1.4375 C 16.203125 -0.144531 13.910156 0.5 10.921875 0.5 C 8.117188 0.5 5.859375 -0.125 4.140625 -1.375 C 2.421875 -2.632812 1.332031 -4.269531 0.875 -6.28125 Z M 0.875 -6.28125 "/></g></g></g><g fill="#000000" fill-opacity="1"><g transform="translate(506.68301, 118.713109)"><g><path d="M 1.28125 -11.015625 C 1.238281 -14.242188 2.3125 -16.96875 4.5 -19.1875 C 6.6875 -21.414062 9.425781 -22.507812 12.71875 -22.46875 C 15.25 -22.46875 17.414062 -21.84375 19.21875 -20.59375 C 21.03125 -19.351562 22.242188 -17.722656 22.859375 -15.703125 L 18.546875 -14.03125 C 17.503906 -17.019531 15.539062 -18.515625 12.65625 -18.515625 C 10.664062 -18.515625 9.101562 -17.851562 7.96875 -16.53125 C 6.84375 -15.21875 6.28125 -13.378906 6.28125 -11.015625 C 6.28125 -8.628906 6.835938 -6.773438 7.953125 -5.453125 C 9.078125 -4.140625 10.644531 -3.484375 12.65625 -3.484375 C 15.582031 -3.484375 17.585938 -4.988281 18.671875 -8 L 22.890625 -6.3125 C 22.066406 -4.113281 20.789062 -2.425781 19.0625 -1.25 C 17.34375 -0.0820312 15.207031 0.5 12.65625 0.5 C 9.257812 0.5 6.515625 -0.578125 4.421875 -2.734375 C 2.328125 -4.890625 1.28125 -7.648438 1.28125 -11.015625 Z M 1.28125 -11.015625 "/></g></g></g><g fill="#000000" fill-opacity="1"><g transform="translate(530.38519, 118.713109)"><g><path d="M 2.640625 0 L 2.640625 -21.96875 L 7.40625 -21.96875 L 7.40625 -4.046875 L 19.25 -4.046875 L 19.25 0 Z M 2.640625 0 "/></g></g></g><g fill="#000000" fill-opacity="1"><g transform="translate(549.943412, 118.713109)"><g><path d="M 1.3125 -10.921875 C 1.3125 -14.273438 2.382812 -17.035156 4.53125 -19.203125 C 6.675781 -21.378906 9.515625 -22.46875 13.046875 -22.46875 C 16.585938 -22.46875 19.429688 -21.378906 21.578125 -19.203125 C 23.722656 -17.035156 24.796875 -14.273438 24.796875 -10.921875 C 24.835938 -7.597656 23.78125 -4.859375 21.625 -2.703125 C 19.46875 -0.546875 16.613281 0.519531 13.0625 0.5 C 9.5 0.519531 6.640625 -0.546875 4.484375 -2.703125 C 2.328125 -4.859375 1.269531 -7.597656 1.3125 -10.921875 Z M 19.8125 -10.953125 C 19.8125 -13.191406 19.203125 -15.007812 17.984375 -16.40625 C 16.773438 -17.8125 15.144531 -18.515625 13.09375 -18.515625 C 11 -18.515625 9.34375 -17.8125 8.125 -16.40625 C 6.914062 -15.007812 6.3125 -13.191406 6.3125 -10.953125 C 6.3125 -8.734375 6.914062 -6.925781 8.125 -5.53125 C 9.34375 -4.144531 11 -3.453125 13.09375 -3.453125 C 15.144531 -3.453125 16.773438 -4.144531 17.984375 -5.53125 C 19.203125 -6.925781 19.8125 -8.734375 19.8125 -10.953125 Z M 19.8125 -10.953125 "/></g></g></g><g fill="#000000" fill-opacity="1"><g transform="translate(576.062904, 118.713109)"><g><path d="M 7.84375 0 L 7.84375 -18.015625 L 0.3125 -18.015625 L 0.3125 -21.96875 L 20.15625 -21.96875 L 20.15625 -18.015625 L 12.625 -18.015625 L 12.625 0 Z M 7.84375 0 "/></g></g></g><g fill="#000000" fill-opacity="1"><g transform="translate(596.531542, 118.713109)"><g><path d="M 2.640625 0 L 2.640625 -21.96875 L 7.40625 -21.96875 L 7.40625 -13.28125 L 16.828125 -13.28125 L 16.828125 -21.96875 L 21.59375 -21.96875 L 21.59375 0 L 16.828125 0 L 16.828125 -9.328125 L 7.40625 -9.328125 L 7.40625 0 Z M 2.640625 0 "/></g></g></g><g fill="#000000" fill-opacity="1"><g transform="translate(620.767416, 118.713109)"><g><path d="M 2.640625 0 L 2.640625 -21.96875 L 19.25 -21.96875 L 19.25 -18.015625 L 7.40625 -18.015625 L 7.40625 -13.25 L 16.359375 -13.25 L 16.359375 -9.359375 L 7.40625 -9.359375 L 7.40625 -3.953125 L 19.25 -3.953125 L 19.25 0 Z M 2.640625 0 "/></g></g></g><g fill="#000000" fill-opacity="1"><g transform="translate(641.487202, 118.713109)"><g><path d="M 0.875 -6.28125 L 5.375 -7.78125 C 5.644531 -6.507812 6.25 -5.441406 7.1875 -4.578125 C 8.125 -3.722656 9.367188 -3.296875 10.921875 -3.296875 C 12.347656 -3.296875 13.421875 -3.546875 14.140625 -4.046875 C 14.859375 -4.546875 15.21875 -5.238281 15.21875 -6.125 C 15.21875 -7.5625 14.023438 -8.460938 11.640625 -8.828125 L 8.921875 -9.203125 C 4.296875 -9.847656 1.984375 -12.046875 1.984375 -15.796875 C 1.984375 -17.691406 2.757812 -19.273438 4.3125 -20.546875 C 5.875 -21.828125 7.992188 -22.46875 10.671875 -22.46875 C 13.222656 -22.46875 15.269531 -21.929688 16.8125 -20.859375 C 18.363281 -19.785156 19.414062 -18.367188 19.96875 -16.609375 L 15.5625 -15.0625 C 14.789062 -17.46875 13.160156 -18.671875 10.671875 -18.671875 C 9.441406 -18.671875 8.507812 -18.421875 7.875 -17.921875 C 7.25 -17.421875 6.9375 -16.773438 6.9375 -15.984375 C 6.9375 -14.679688 7.878906 -13.894531 9.765625 -13.625 L 12.5 -13.25 C 14.945312 -12.914062 16.835938 -12.171875 18.171875 -11.015625 C 19.515625 -9.867188 20.1875 -8.34375 20.1875 -6.4375 C 20.1875 -4.40625 19.390625 -2.738281 17.796875 -1.4375 C 16.203125 -0.144531 13.910156 0.5 10.921875 0.5 C 8.117188 0.5 5.859375 -0.125 4.140625 -1.375 C 2.421875 -2.632812 1.332031 -4.269531 0.875 -6.28125 Z M 0.875 -6.28125 "/></g></g></g></svg>