<svg xmlns="http://www.w3.org/2000/svg" xmlns:xlink="http://www.w3.org/1999/xlink" width="475" zoomAndPan="magnify" viewBox="0 0 356.25 146.249994" height="195" preserveAspectRatio="xMidYMid meet" version="1.0"><defs><g/><clipPath id="baf0eb62c2"><path d="M 199 28.980469 L 203 28.980469 L 203 36 L 199 36 Z M 199 28.980469 " clip-rule="nonzero"/></clipPath><clipPath id="413157fa6f"><path d="M 199 35 L 203 35 L 203 42.410156 L 199 42.410156 Z M 199 35 " clip-rule="nonzero"/></clipPath><clipPath id="1c03adae9c"><path d="M 193.789062 34 L 201 34 L 201 37 L 193.789062 37 Z M 193.789062 34 " clip-rule="nonzero"/></clipPath><clipPath id="2ca18fd5f5"><path d="M 200 34 L 207.964844 34 L 207.964844 37 L 200 37 Z M 200 34 " clip-rule="nonzero"/></clipPath><clipPath id="daafe5bc4f"><path d="M 199.496094 46.730469 L 214.417969 46.730469 L 214.417969 59.414062 L 199.496094 59.414062 Z M 199.496094 46.730469 " clip-rule="nonzero"/></clipPath><clipPath id="b54be8b102"><path d="M 128.496094 64.429688 L 143.417969 64.429688 L 143.417969 79.351562 L 128.496094 79.351562 Z M 128.496094 64.429688 " clip-rule="nonzero"/></clipPath><clipPath id="c922bc8e19"><path d="M 185.945312 63.089844 L 202.359375 63.089844 L 202.359375 79.503906 L 185.945312 79.503906 Z M 185.945312 63.089844 " clip-rule="nonzero"/></clipPath><clipPath id="deae6410e7"><path d="M 195 72 L 202.359375 72 L 202.359375 79.503906 L 195 79.503906 Z M 195 72 " clip-rule="nonzero"/></clipPath><clipPath id="899fbdeb0f"><path d="M 186 63.089844 L 194 63.089844 L 194 71 L 186 71 Z M 186 63.089844 " clip-rule="nonzero"/></clipPath><clipPath id="82825d9f4e"><path d="M 167.046875 81.667969 L 183.460938 81.667969 L 183.460938 98.085938 L 167.046875 98.085938 Z M 167.046875 81.667969 " clip-rule="nonzero"/></clipPath><clipPath id="d6166532cf"><path d="M 222.351562 81.667969 L 238.765625 81.667969 L 238.765625 98 L 222.351562 98 Z M 222.351562 81.667969 " clip-rule="nonzero"/></clipPath><clipPath id="6fe8066f0c"><path d="M 132.679688 98.371094 L 150.589844 98.371094 L 150.589844 114.042969 L 132.679688 114.042969 Z M 132.679688 98.371094 " clip-rule="nonzero"/></clipPath><clipPath id="30357ea544"><path d="M 87 81.183594 L 90 81.183594 L 90 86 L 87 86 Z M 87 81.183594 " clip-rule="nonzero"/></clipPath><clipPath id="c10236b578"><path d="M 87 92 L 90 92 L 90 97.597656 L 87 97.597656 Z M 87 92 " clip-rule="nonzero"/></clipPath><clipPath id="9c02267905"><path d="M 80.003906 88 L 85 88 L 85 91 L 80.003906 91 Z M 80.003906 88 " clip-rule="nonzero"/></clipPath><clipPath id="20d589b0f6"><path d="M 91 88 L 96.417969 88 L 96.417969 91 L 91 91 Z M 91 88 " clip-rule="nonzero"/></clipPath></defs><g clip-path="url(#baf0eb62c2)"><path fill="#c7b9ff" d="M 199.703125 28.980469 L 202.003906 28.980469 L 201.234375 35.695312 L 200.46875 35.695312 Z M 199.703125 28.980469 " fill-opacity="1" fill-rule="nonzero"/></g><g clip-path="url(#413157fa6f)"><path fill="#c7b9ff" d="M 202.003906 42.410156 L 199.703125 42.410156 L 200.46875 35.695312 L 201.238281 35.695312 Z M 202.003906 42.410156 " fill-opacity="1" fill-rule="nonzero"/></g><path fill="#c7b9ff" d="M 196.789062 41.234375 L 195.164062 39.652344 L 200.582031 35.429688 L 201.125 35.960938 Z M 196.789062 41.234375 " fill-opacity="1" fill-rule="nonzero"/><path fill="#c7b9ff" d="M 204.917969 30.15625 L 206.542969 31.738281 L 201.125 35.960938 L 200.582031 35.429688 Z M 204.917969 30.15625 " fill-opacity="1" fill-rule="nonzero"/><path fill="#c7b9ff" d="M 195.167969 31.738281 L 196.792969 30.15625 L 201.125 35.429688 L 200.582031 35.960938 Z M 195.167969 31.738281 " fill-opacity="1" fill-rule="nonzero"/><path fill="#c7b9ff" d="M 206.542969 39.652344 L 204.917969 41.234375 L 200.582031 35.960938 L 201.125 35.429688 Z M 206.542969 39.652344 " fill-opacity="1" fill-rule="nonzero"/><g clip-path="url(#1c03adae9c)"><path fill="#c7b9ff" d="M 193.960938 36.816406 L 193.960938 34.574219 L 200.855469 35.320312 L 200.855469 36.066406 Z M 193.960938 36.816406 " fill-opacity="1" fill-rule="nonzero"/></g><g clip-path="url(#2ca18fd5f5)"><path fill="#c7b9ff" d="M 207.75 34.574219 L 207.75 36.816406 L 200.855469 36.070312 L 200.855469 35.320312 Z M 207.75 34.574219 " fill-opacity="1" fill-rule="nonzero"/></g><g clip-path="url(#daafe5bc4f)"><path fill="#f24e1e" d="M 199.671875 48.316406 L 199.671875 46.730469 L 214.242188 46.730469 L 214.242188 48.316406 C 211.003906 48.316406 208.578125 50.691406 208.578125 53.070312 C 208.578125 55.449219 211.003906 57.828125 214.242188 57.828125 L 214.242188 59.414062 L 199.671875 59.414062 L 199.671875 57.828125 C 202.910156 57.828125 205.339844 55.449219 205.339844 53.070312 C 205.339844 50.691406 202.910156 48.316406 199.671875 48.316406 Z M 199.671875 48.316406 " fill-opacity="1" fill-rule="nonzero"/></g><g clip-path="url(#b54be8b102)"><path fill="#f24e1e" d="M 131.082031 64.429688 L 137.535156 64.429688 L 143.179688 68.574219 L 135.113281 74.378906 L 140.761719 79.351562 L 134.308594 79.351562 L 128.660156 74.378906 L 136.726562 68.574219 Z M 131.082031 64.429688 " fill-opacity="1" fill-rule="nonzero"/></g><g clip-path="url(#c922bc8e19)"><path stroke-linecap="butt" transform="matrix(0.420238, 0, 0, 0.431995, 185.957292, 63.087933)" fill="none" stroke-linejoin="miter" d="M 36.297628 8.440933 C 36.297628 9.281872 36.139607 10.095683 35.814271 10.864283 C 35.488935 11.641924 35.033464 12.329143 34.438563 12.925938 C 33.843662 13.51369 33.165103 13.97485 32.384296 14.291332 C 31.612784 14.616857 30.80409 14.779619 29.967511 14.779619 C 29.121636 14.779619 28.312943 14.616857 27.541431 14.291332 C 26.760623 13.97485 26.082065 13.51369 25.487164 12.925938 C 24.892263 12.329143 24.436792 11.641924 24.111456 10.864283 C 23.786119 10.095683 23.628099 9.281872 23.628099 8.440933 C 23.628099 7.599995 23.786119 6.795226 24.111456 6.017584 C 24.436792 5.248985 24.892263 4.561766 25.487164 3.964971 C 26.082065 3.368177 26.760623 2.916059 27.541431 2.590535 C 28.312943 2.274053 29.121636 2.11129 29.967511 2.11129 C 30.80409 2.11129 31.612784 2.274053 32.384296 2.590535 C 33.165103 2.916059 33.843662 3.368177 34.438563 3.964971 C 35.033464 4.561766 35.488935 5.248985 35.814271 6.017584 C 36.139607 6.795226 36.297628 7.599995 36.297628 8.440933 Z M 36.297628 8.440933 " stroke="#0fa958" stroke-width="4.222" stroke-opacity="1" stroke-miterlimit="4"/><path stroke-linecap="butt" transform="matrix(0.420238, 0, 0, 0.431995, 185.957292, 63.087933)" fill="none" stroke-linejoin="miter" d="M 15.187943 29.554815 C 15.187943 30.395753 15.029922 31.200522 14.704586 31.978164 C 14.379249 32.755806 13.923778 33.443024 13.328877 34.030777 C 12.733976 34.627572 12.055418 35.088731 11.27461 35.405213 C 10.503098 35.730738 9.694405 35.8935 8.857825 35.8935 C 8.011951 35.8935 7.203257 35.730738 6.431745 35.405213 C 5.650938 35.088731 4.972379 34.627572 4.377478 34.030777 C 3.782577 33.443024 3.327106 32.755806 3.00177 31.978164 C 2.685729 31.200522 2.518413 30.395753 2.518413 29.554815 C 2.518413 28.713876 2.685729 27.909107 3.00177 27.131466 C 3.327106 26.353824 3.782577 25.675648 4.377478 25.078853 C 4.972379 24.482058 5.650938 24.02994 6.431745 23.704416 C 7.203257 23.387934 8.011951 23.225172 8.857825 23.225172 C 9.694405 23.225172 10.503098 23.387934 11.27461 23.704416 C 12.055418 24.02994 12.733976 24.482058 13.328877 25.078853 C 13.923778 25.675648 14.379249 26.353824 14.704586 27.131466 C 15.029922 27.909107 15.187943 28.713876 15.187943 29.554815 Z M 15.187943 29.554815 " stroke="#0fa958" stroke-width="4.222" stroke-opacity="1" stroke-miterlimit="4"/></g><g clip-path="url(#deae6410e7)"><path stroke-linecap="butt" transform="matrix(0.420238, 0, 0, 0.431995, 185.957292, 63.087933)" fill="none" stroke-linejoin="miter" d="M 23.628099 23.225172 L 36.297628 23.225172 L 36.297628 35.8935 L 23.628099 35.8935 Z M 23.628099 23.225172 " stroke="#0fa958" stroke-width="4.222" stroke-opacity="1" stroke-miterlimit="4"/></g><g clip-path="url(#899fbdeb0f)"><path stroke-linecap="butt" transform="matrix(0.420238, 0, 0, 0.431995, 185.957292, 63.087933)" fill="none" stroke-linejoin="miter" d="M 2.518413 2.11129 L 15.187943 2.11129 L 15.187943 14.779619 L 2.518413 14.779619 Z M 2.518413 2.11129 " stroke="#0fa958" stroke-width="4.222" stroke-opacity="1" stroke-miterlimit="4"/></g><g clip-path="url(#82825d9f4e)"><path stroke-linecap="butt" transform="matrix(0.443671, 0, 0, 0.443671, 167.045454, 81.668393)" fill="none" stroke-linejoin="miter" d="M 28.908016 3.291885 L 8.332156 18.012826 C 4.37018 20.847839 3.903548 26.570693 7.354869 30.004405 C 10.797385 33.438118 16.50263 32.971485 19.328839 29.018314 L 34.067389 8.451258 C 35.115111 6.989729 34.956632 4.991132 33.706409 3.705691 C 32.429772 2.402642 30.387154 2.226554 28.908016 3.291885 Z M 28.908016 3.291885 " stroke="#c7b9ff" stroke-width="4.132" stroke-opacity="1" stroke-miterlimit="4"/></g><g clip-path="url(#d6166532cf)"><path fill="#ffc700" d="M 230.546875 90.769531 C 227.941406 90.769531 227.070312 92.859375 227.070312 94.339844 C 227.070312 95.816406 227.941406 97.90625 230.546875 97.90625 L 236.625 97.90625 L 236.625 95.230469 L 230.546875 95.230469 C 230.066406 95.230469 229.675781 94.832031 229.675781 94.339844 C 229.675781 93.84375 230.066406 93.445312 230.546875 93.445312 L 234.886719 93.445312 C 236.625 93.445312 238.363281 92.554688 238.363281 89.875 C 238.363281 87.199219 236.539062 86.304688 234.886719 86.304688 L 226.203125 86.304688 C 225.722656 86.304688 225.335938 85.90625 225.335938 85.414062 C 225.335938 84.921875 225.722656 84.523438 226.203125 84.523438 L 232.71875 84.523438 C 233.4375 84.523438 234.019531 83.921875 234.019531 83.183594 C 234.019531 82.445312 233.4375 81.84375 232.71875 81.84375 L 226.203125 81.84375 C 223.597656 81.84375 222.730469 83.9375 222.730469 85.414062 C 222.730469 86.894531 223.597656 88.984375 226.203125 88.984375 L 234.886719 88.984375 C 235.367188 88.984375 235.757812 89.382812 235.757812 89.875 C 235.757812 90.371094 235.367188 90.769531 234.886719 90.769531 Z M 230.546875 90.769531 " fill-opacity="1" fill-rule="nonzero"/></g><g clip-path="url(#6fe8066f0c)"><path stroke-linecap="butt" transform="matrix(0.471048, 0, 0, 0.460872, 132.683935, 98.373029)" fill="none" stroke-linejoin="miter" d="M 18.649524 4.691386 L 33.70904 31.457912 L 3.590009 31.457912 Z M 18.649524 4.691386 " stroke="#0fa958" stroke-width="4.132" stroke-opacity="1" stroke-miterlimit="4"/></g><path fill="#0fa958" d="M 143.609375 110.015625 L 139.328125 110.015625 L 141.46875 106.207031 Z M 143.609375 110.015625 " fill-opacity="1" fill-rule="nonzero"/><g clip-path="url(#30357ea544)"><path fill="#ffc700" d="M 87.320312 81.359375 L 89.105469 81.359375 L 89.105469 85.820312 L 87.320312 85.820312 Z M 87.320312 81.359375 " fill-opacity="1" fill-rule="nonzero"/></g><g clip-path="url(#c10236b578)"><path fill="#ffc700" d="M 87.320312 92.960938 L 89.105469 92.960938 L 89.105469 97.421875 L 87.320312 97.421875 Z M 87.320312 92.960938 " fill-opacity="1" fill-rule="nonzero"/></g><path fill="#ffc700" d="M 81.789062 84.21875 L 83.039062 82.96875 L 86.371094 86.300781 L 85.121094 87.550781 Z M 81.789062 84.21875 " fill-opacity="1" fill-rule="nonzero"/><path fill="#ffc700" d="M 89.996094 92.421875 L 91.242188 91.175781 L 94.574219 94.507812 L 93.328125 95.753906 Z M 89.996094 92.421875 " fill-opacity="1" fill-rule="nonzero"/><path fill="#ffc700" d="M 94.578125 84.21875 L 93.328125 82.96875 L 89.996094 86.300781 L 91.246094 87.550781 Z M 94.578125 84.21875 " fill-opacity="1" fill-rule="nonzero"/><path fill="#ffc700" d="M 86.371094 92.421875 L 85.125 91.175781 L 81.789062 94.507812 L 83.039062 95.757812 Z M 86.371094 92.421875 " fill-opacity="1" fill-rule="nonzero"/><g clip-path="url(#9c02267905)"><path fill="#ffc700" d="M 80.179688 90.28125 L 80.179688 88.496094 L 84.640625 88.496094 L 84.640625 90.28125 Z M 80.179688 90.28125 " fill-opacity="1" fill-rule="nonzero"/></g><g clip-path="url(#20d589b0f6)"><path fill="#ffc700" d="M 91.78125 90.28125 L 91.78125 88.496094 L 96.242188 88.496094 L 96.242188 90.28125 Z M 91.78125 90.28125 " fill-opacity="1" fill-rule="nonzero"/></g><g fill="#000000" fill-opacity="1"><g transform="translate(137.48422, 39.826449)"><g><path d="M 0.34375 -2.40625 L 2.046875 -2.96875 C 2.148438 -2.488281 2.378906 -2.082031 2.734375 -1.75 C 3.097656 -1.425781 3.578125 -1.265625 4.171875 -1.265625 C 4.710938 -1.265625 5.117188 -1.359375 5.390625 -1.546875 C 5.671875 -1.742188 5.8125 -2.007812 5.8125 -2.34375 C 5.8125 -2.894531 5.359375 -3.238281 4.453125 -3.375 L 3.40625 -3.515625 C 1.632812 -3.765625 0.75 -4.601562 0.75 -6.03125 C 0.75 -6.757812 1.046875 -7.367188 1.640625 -7.859375 C 2.242188 -8.347656 3.054688 -8.59375 4.078125 -8.59375 C 5.054688 -8.59375 5.835938 -8.382812 6.421875 -7.96875 C 7.015625 -7.5625 7.414062 -7.019531 7.625 -6.34375 L 5.953125 -5.765625 C 5.660156 -6.679688 5.035156 -7.140625 4.078125 -7.140625 C 3.609375 -7.140625 3.253906 -7.039062 3.015625 -6.84375 C 2.773438 -6.65625 2.65625 -6.410156 2.65625 -6.109375 C 2.65625 -5.609375 3.015625 -5.304688 3.734375 -5.203125 L 4.78125 -5.0625 C 5.71875 -4.9375 6.441406 -4.648438 6.953125 -4.203125 C 7.460938 -3.765625 7.71875 -3.179688 7.71875 -2.453125 C 7.71875 -1.679688 7.410156 -1.046875 6.796875 -0.546875 C 6.191406 -0.0546875 5.316406 0.1875 4.171875 0.1875 C 3.097656 0.1875 2.234375 -0.0507812 1.578125 -0.53125 C 0.921875 -1.007812 0.507812 -1.632812 0.34375 -2.40625 Z M 0.34375 -2.40625 "/></g></g></g><g fill="#000000" fill-opacity="1"><g transform="translate(145.707632, 39.826449)"><g><path d="M 1.015625 0 L 1.015625 -8.40625 L 2.828125 -8.40625 L 2.828125 -5.078125 L 6.4375 -5.078125 L 6.4375 -8.40625 L 8.25 -8.40625 L 8.25 0 L 6.4375 0 L 6.4375 -3.5625 L 2.828125 -3.5625 L 2.828125 0 Z M 1.015625 0 "/></g></g></g><g fill="#000000" fill-opacity="1"><g transform="translate(154.975478, 39.826449)"><g><path d="M 0.5 -4.171875 C 0.5 -5.453125 0.910156 -6.507812 1.734375 -7.34375 C 2.554688 -8.175781 3.640625 -8.59375 4.984375 -8.59375 C 6.335938 -8.59375 7.425781 -8.175781 8.25 -7.34375 C 9.070312 -6.507812 9.484375 -5.453125 9.484375 -4.171875 C 9.492188 -2.898438 9.085938 -1.851562 8.265625 -1.03125 C 7.441406 -0.207031 6.347656 0.195312 4.984375 0.1875 C 3.628906 0.195312 2.539062 -0.207031 1.71875 -1.03125 C 0.894531 -1.851562 0.488281 -2.898438 0.5 -4.171875 Z M 7.578125 -4.1875 C 7.578125 -5.039062 7.34375 -5.734375 6.875 -6.265625 C 6.414062 -6.804688 5.789062 -7.078125 5 -7.078125 C 4.195312 -7.078125 3.5625 -6.804688 3.09375 -6.265625 C 2.632812 -5.734375 2.40625 -5.039062 2.40625 -4.1875 C 2.40625 -3.34375 2.632812 -2.648438 3.09375 -2.109375 C 3.5625 -1.578125 4.195312 -1.3125 5 -1.3125 C 5.789062 -1.3125 6.414062 -1.578125 6.875 -2.109375 C 7.34375 -2.648438 7.578125 -3.34375 7.578125 -4.1875 Z M 7.578125 -4.1875 "/></g></g></g><g fill="#000000" fill-opacity="1"><g transform="translate(164.963624, 39.826449)"><g><path d="M 1.015625 0 L 1.015625 -8.40625 L 4.78125 -8.40625 C 5.675781 -8.40625 6.40625 -8.15625 6.96875 -7.65625 C 7.53125 -7.164062 7.8125 -6.507812 7.8125 -5.6875 C 7.8125 -4.863281 7.53125 -4.203125 6.96875 -3.703125 C 6.40625 -3.203125 5.675781 -2.953125 4.78125 -2.953125 L 2.828125 -2.953125 L 2.828125 0 Z M 2.828125 -4.46875 L 4.453125 -4.46875 C 4.890625 -4.46875 5.242188 -4.578125 5.515625 -4.796875 C 5.785156 -5.015625 5.921875 -5.3125 5.921875 -5.6875 C 5.921875 -6.050781 5.78125 -6.34375 5.5 -6.5625 C 5.226562 -6.78125 4.878906 -6.890625 4.453125 -6.890625 L 2.828125 -6.890625 Z M 2.828125 -4.46875 "/></g></g></g><g fill="#000000" fill-opacity="1"><g transform="translate(173.066987, 39.826449)"><g><path d="M 1.015625 0 L 1.015625 -8.40625 L 2.828125 -8.40625 L 2.828125 -1.546875 L 7.359375 -1.546875 L 7.359375 0 Z M 1.015625 0 "/></g></g></g><g fill="#000000" fill-opacity="1"><g transform="translate(180.54609, 39.826449)"><g><path d="M 3.15625 0 L 3.15625 -3.421875 L 0.109375 -8.40625 L 2.21875 -8.40625 L 3.171875 -6.765625 C 3.347656 -6.472656 3.476562 -6.191406 3.5625 -5.921875 C 3.6875 -5.566406 3.753906 -5.015625 3.765625 -4.265625 L 4.421875 -4.265625 C 4.429688 -4.828125 4.472656 -5.269531 4.546875 -5.59375 C 4.617188 -5.925781 4.785156 -6.328125 5.046875 -6.796875 L 5.921875 -8.40625 L 7.96875 -8.40625 L 4.984375 -3.421875 L 4.984375 0 Z M 3.15625 0 "/></g></g></g><g fill="#000000" fill-opacity="1"><g transform="translate(110.736126, 57.562348)"><g><path d="M 0.484375 -4.21875 C 0.472656 -5.445312 0.882812 -6.484375 1.71875 -7.328125 C 2.550781 -8.179688 3.597656 -8.601562 4.859375 -8.59375 C 5.828125 -8.59375 6.65625 -8.351562 7.34375 -7.875 C 8.039062 -7.394531 8.503906 -6.769531 8.734375 -6 L 7.09375 -5.359375 C 6.6875 -6.503906 5.9375 -7.078125 4.84375 -7.078125 C 4.082031 -7.078125 3.484375 -6.820312 3.046875 -6.3125 C 2.617188 -5.8125 2.40625 -5.113281 2.40625 -4.21875 C 2.40625 -3.300781 2.617188 -2.585938 3.046875 -2.078125 C 3.472656 -1.578125 4.070312 -1.328125 4.84375 -1.328125 C 5.957031 -1.328125 6.722656 -1.90625 7.140625 -3.0625 L 8.75 -2.40625 C 8.4375 -1.570312 7.945312 -0.929688 7.28125 -0.484375 C 6.625 -0.0351562 5.8125 0.1875 4.84375 0.1875 C 3.539062 0.1875 2.488281 -0.222656 1.6875 -1.046875 C 0.882812 -1.867188 0.484375 -2.925781 0.484375 -4.21875 Z M 0.484375 -4.21875 "/></g></g></g><g fill="#000000" fill-opacity="1"><g transform="translate(119.799887, 57.562348)"><g><path d="M 0.5 -4.171875 C 0.5 -5.453125 0.910156 -6.507812 1.734375 -7.34375 C 2.554688 -8.175781 3.640625 -8.59375 4.984375 -8.59375 C 6.335938 -8.59375 7.425781 -8.175781 8.25 -7.34375 C 9.070312 -6.507812 9.484375 -5.453125 9.484375 -4.171875 C 9.492188 -2.898438 9.085938 -1.851562 8.265625 -1.03125 C 7.441406 -0.207031 6.347656 0.195312 4.984375 0.1875 C 3.628906 0.195312 2.539062 -0.207031 1.71875 -1.03125 C 0.894531 -1.851562 0.488281 -2.898438 0.5 -4.171875 Z M 7.578125 -4.1875 C 7.578125 -5.039062 7.34375 -5.734375 6.875 -6.265625 C 6.414062 -6.804688 5.789062 -7.078125 5 -7.078125 C 4.195312 -7.078125 3.5625 -6.804688 3.09375 -6.265625 C 2.632812 -5.734375 2.40625 -5.039062 2.40625 -4.1875 C 2.40625 -3.34375 2.632812 -2.648438 3.09375 -2.109375 C 3.5625 -1.578125 4.195312 -1.3125 5 -1.3125 C 5.789062 -1.3125 6.414062 -1.578125 6.875 -2.109375 C 7.34375 -2.648438 7.578125 -3.34375 7.578125 -4.1875 Z M 7.578125 -4.1875 "/></g></g></g><g fill="#000000" fill-opacity="1"><g transform="translate(129.788032, 57.562348)"><g><path d="M 1.015625 0 L 1.015625 -8.40625 L 2.828125 -8.40625 L 2.828125 -1.546875 L 7.359375 -1.546875 L 7.359375 0 Z M 1.015625 0 "/></g></g></g><g fill="#000000" fill-opacity="1"><g transform="translate(137.267135, 57.562348)"><g><path d="M 1.015625 0 L 1.015625 -8.40625 L 2.828125 -8.40625 L 2.828125 -1.546875 L 7.359375 -1.546875 L 7.359375 0 Z M 1.015625 0 "/></g></g></g><g fill="#000000" fill-opacity="1"><g transform="translate(144.746239, 57.562348)"><g><path d="M 1.015625 0 L 1.015625 -8.40625 L 7.359375 -8.40625 L 7.359375 -6.890625 L 2.828125 -6.890625 L 2.828125 -5.0625 L 6.25 -5.0625 L 6.25 -3.578125 L 2.828125 -3.578125 L 2.828125 -1.515625 L 7.359375 -1.515625 L 7.359375 0 Z M 1.015625 0 "/></g></g></g><g fill="#000000" fill-opacity="1"><g transform="translate(152.669526, 57.562348)"><g><path d="M 0.484375 -4.21875 C 0.472656 -5.445312 0.882812 -6.484375 1.71875 -7.328125 C 2.550781 -8.179688 3.597656 -8.601562 4.859375 -8.59375 C 5.828125 -8.59375 6.65625 -8.351562 7.34375 -7.875 C 8.039062 -7.394531 8.503906 -6.769531 8.734375 -6 L 7.09375 -5.359375 C 6.6875 -6.503906 5.9375 -7.078125 4.84375 -7.078125 C 4.082031 -7.078125 3.484375 -6.820312 3.046875 -6.3125 C 2.617188 -5.8125 2.40625 -5.113281 2.40625 -4.21875 C 2.40625 -3.300781 2.617188 -2.585938 3.046875 -2.078125 C 3.472656 -1.578125 4.070312 -1.328125 4.84375 -1.328125 C 5.957031 -1.328125 6.722656 -1.90625 7.140625 -3.0625 L 8.75 -2.40625 C 8.4375 -1.570312 7.945312 -0.929688 7.28125 -0.484375 C 6.625 -0.0351562 5.8125 0.1875 4.84375 0.1875 C 3.539062 0.1875 2.488281 -0.222656 1.6875 -1.046875 C 0.882812 -1.867188 0.484375 -2.925781 0.484375 -4.21875 Z M 0.484375 -4.21875 "/></g></g></g><g fill="#000000" fill-opacity="1"><g transform="translate(161.733286, 57.562348)"><g><path d="M 3 0 L 3 -6.890625 L 0.125 -6.890625 L 0.125 -8.40625 L 7.703125 -8.40625 L 7.703125 -6.890625 L 4.828125 -6.890625 L 4.828125 0 Z M 3 0 "/></g></g></g><g fill="#000000" fill-opacity="1"><g transform="translate(169.560534, 57.562348)"><g><path d="M 1.015625 0 L 1.015625 -8.40625 L 2.828125 -8.40625 L 2.828125 0 Z M 1.015625 0 "/></g></g></g><g fill="#000000" fill-opacity="1"><g transform="translate(173.402128, 57.562348)"><g><path d="M 0.5 -4.171875 C 0.5 -5.453125 0.910156 -6.507812 1.734375 -7.34375 C 2.554688 -8.175781 3.640625 -8.59375 4.984375 -8.59375 C 6.335938 -8.59375 7.425781 -8.175781 8.25 -7.34375 C 9.070312 -6.507812 9.484375 -5.453125 9.484375 -4.171875 C 9.492188 -2.898438 9.085938 -1.851562 8.265625 -1.03125 C 7.441406 -0.207031 6.347656 0.195312 4.984375 0.1875 C 3.628906 0.195312 2.539062 -0.207031 1.71875 -1.03125 C 0.894531 -1.851562 0.488281 -2.898438 0.5 -4.171875 Z M 7.578125 -4.1875 C 7.578125 -5.039062 7.34375 -5.734375 6.875 -6.265625 C 6.414062 -6.804688 5.789062 -7.078125 5 -7.078125 C 4.195312 -7.078125 3.5625 -6.804688 3.09375 -6.265625 C 2.632812 -5.734375 2.40625 -5.039062 2.40625 -4.1875 C 2.40625 -3.34375 2.632812 -2.648438 3.09375 -2.109375 C 3.5625 -1.578125 4.195312 -1.3125 5 -1.3125 C 5.789062 -1.3125 6.414062 -1.578125 6.875 -2.109375 C 7.34375 -2.648438 7.578125 -3.34375 7.578125 -4.1875 Z M 7.578125 -4.1875 "/></g></g></g><g fill="#000000" fill-opacity="1"><g transform="translate(183.390274, 57.562348)"><g><path d="M 1.015625 0 L 1.015625 -8.40625 L 3.8125 -8.40625 L 7.546875 -2.15625 L 8.09375 -2.53125 C 7.757812 -3.082031 7.546875 -3.507812 7.453125 -3.8125 C 7.359375 -4.113281 7.3125 -4.585938 7.3125 -5.234375 L 7.3125 -8.40625 L 9.125 -8.40625 L 9.125 0 L 6.9375 0 L 2.578125 -7.296875 L 2.03125 -6.953125 C 2.320312 -6.398438 2.523438 -5.925781 2.640625 -5.53125 C 2.765625 -5.132812 2.828125 -4.628906 2.828125 -4.015625 L 2.828125 0 Z M 1.015625 0 "/></g></g></g><g fill="#000000" fill-opacity="1"><g transform="translate(220.015065, 57.562348)"><g><path d="M 0.5 -4.171875 C 0.5 -5.453125 0.910156 -6.507812 1.734375 -7.34375 C 2.554688 -8.175781 3.640625 -8.59375 4.984375 -8.59375 C 6.335938 -8.59375 7.425781 -8.175781 8.25 -7.34375 C 9.070312 -6.507812 9.484375 -5.453125 9.484375 -4.171875 C 9.492188 -2.898438 9.085938 -1.851562 8.265625 -1.03125 C 7.441406 -0.207031 6.347656 0.195312 4.984375 0.1875 C 3.628906 0.195312 2.539062 -0.207031 1.71875 -1.03125 C 0.894531 -1.851562 0.488281 -2.898438 0.5 -4.171875 Z M 7.578125 -4.1875 C 7.578125 -5.039062 7.34375 -5.734375 6.875 -6.265625 C 6.414062 -6.804688 5.789062 -7.078125 5 -7.078125 C 4.195312 -7.078125 3.5625 -6.804688 3.09375 -6.265625 C 2.632812 -5.734375 2.40625 -5.039062 2.40625 -4.1875 C 2.40625 -3.34375 2.632812 -2.648438 3.09375 -2.109375 C 3.5625 -1.578125 4.195312 -1.3125 5 -1.3125 C 5.789062 -1.3125 6.414062 -1.578125 6.875 -2.109375 C 7.34375 -2.648438 7.578125 -3.34375 7.578125 -4.1875 Z M 7.578125 -4.1875 "/></g></g></g><g fill="#000000" fill-opacity="1"><g transform="translate(230.003211, 57.562348)"><g><path d="M 1.015625 0 L 1.015625 -8.40625 L 7.46875 -8.40625 L 7.46875 -6.890625 L 2.828125 -6.890625 L 2.828125 -4.703125 L 6.546875 -4.703125 L 6.546875 -3.1875 L 2.828125 -3.1875 L 2.828125 0 Z M 1.015625 0 "/></g></g></g><g fill="#000000" fill-opacity="1"><g transform="translate(148.37073, 76.008903)"><g><path d="M 6.796875 0 L 6.125 -1.96875 L 2.71875 -1.96875 L 2.015625 0 L 0.0625 0 L 3.265625 -8.40625 L 5.625 -8.40625 L 8.8125 0 Z M 3.234375 -3.484375 L 5.609375 -3.484375 L 4.984375 -5.296875 C 4.835938 -5.703125 4.757812 -6.394531 4.75 -7.375 L 4.109375 -7.375 C 4.085938 -6.75 4.066406 -6.332031 4.046875 -6.125 C 4.023438 -5.851562 3.96875 -5.578125 3.875 -5.296875 Z M 3.234375 -3.484375 "/></g></g></g><g fill="#000000" fill-opacity="1"><g transform="translate(157.254419, 76.008903)"><g><path d="M 1.015625 0 L 1.015625 -8.40625 L 3.8125 -8.40625 L 7.546875 -2.15625 L 8.09375 -2.53125 C 7.757812 -3.082031 7.546875 -3.507812 7.453125 -3.8125 C 7.359375 -4.113281 7.3125 -4.585938 7.3125 -5.234375 L 7.3125 -8.40625 L 9.125 -8.40625 L 9.125 0 L 6.9375 0 L 2.578125 -7.296875 L 2.03125 -6.953125 C 2.320312 -6.398438 2.523438 -5.925781 2.640625 -5.53125 C 2.765625 -5.132812 2.828125 -4.628906 2.828125 -4.015625 L 2.828125 0 Z M 1.015625 0 "/></g></g></g><g fill="#000000" fill-opacity="1"><g transform="translate(167.398631, 76.008903)"><g><path d="M 1.015625 0 L 1.015625 -8.40625 L 4.171875 -8.40625 C 5.410156 -8.414062 6.460938 -8.035156 7.328125 -7.265625 C 8.203125 -6.503906 8.628906 -5.503906 8.609375 -4.265625 C 8.628906 -2.992188 8.203125 -1.957031 7.328125 -1.15625 C 6.460938 -0.363281 5.410156 0.0195312 4.171875 0 Z M 2.828125 -1.515625 L 4.09375 -1.515625 C 5.851562 -1.515625 6.734375 -2.414062 6.734375 -4.21875 C 6.734375 -5.039062 6.507812 -5.691406 6.0625 -6.171875 C 5.625 -6.648438 4.988281 -6.890625 4.15625 -6.890625 L 2.828125 -6.890625 Z M 2.828125 -1.515625 "/></g></g></g><g fill="#000000" fill-opacity="1"><g transform="translate(101.021495, 93.553997)"><g><path d="M 1.015625 0 L 1.015625 -8.40625 L 7.46875 -8.40625 L 7.46875 -6.890625 L 2.828125 -6.890625 L 2.828125 -4.703125 L 6.546875 -4.703125 L 6.546875 -3.1875 L 2.828125 -3.1875 L 2.828125 0 Z M 1.015625 0 "/></g></g></g><g fill="#000000" fill-opacity="1"><g transform="translate(108.776713, 93.553997)"><g><path d="M 0.5 -4.171875 C 0.5 -5.453125 0.910156 -6.507812 1.734375 -7.34375 C 2.554688 -8.175781 3.640625 -8.59375 4.984375 -8.59375 C 6.335938 -8.59375 7.425781 -8.175781 8.25 -7.34375 C 9.070312 -6.507812 9.484375 -5.453125 9.484375 -4.171875 C 9.492188 -2.898438 9.085938 -1.851562 8.265625 -1.03125 C 7.441406 -0.207031 6.347656 0.195312 4.984375 0.1875 C 3.628906 0.195312 2.539062 -0.207031 1.71875 -1.03125 C 0.894531 -1.851562 0.488281 -2.898438 0.5 -4.171875 Z M 7.578125 -4.1875 C 7.578125 -5.039062 7.34375 -5.734375 6.875 -6.265625 C 6.414062 -6.804688 5.789062 -7.078125 5 -7.078125 C 4.195312 -7.078125 3.5625 -6.804688 3.09375 -6.265625 C 2.632812 -5.734375 2.40625 -5.039062 2.40625 -4.1875 C 2.40625 -3.34375 2.632812 -2.648438 3.09375 -2.109375 C 3.5625 -1.578125 4.195312 -1.3125 5 -1.3125 C 5.789062 -1.3125 6.414062 -1.578125 6.875 -2.109375 C 7.34375 -2.648438 7.578125 -3.34375 7.578125 -4.1875 Z M 7.578125 -4.1875 "/></g></g></g><g fill="#000000" fill-opacity="1"><g transform="translate(118.764859, 93.553997)"><g><path d="M 1.015625 0 L 1.015625 -8.40625 L 5.15625 -8.40625 C 6.039062 -8.40625 6.738281 -8.203125 7.25 -7.796875 C 7.769531 -7.398438 8.03125 -6.863281 8.03125 -6.1875 C 8.03125 -5.632812 7.894531 -5.21875 7.625 -4.9375 C 7.382812 -4.675781 7.097656 -4.5 6.765625 -4.40625 C 6.429688 -4.3125 5.988281 -4.25 5.4375 -4.21875 L 5.4375 -3.59375 C 6.21875 -3.570312 6.78125 -3.457031 7.125 -3.25 C 7.46875 -3.039062 7.703125 -2.628906 7.828125 -2.015625 L 8.171875 0 L 6.234375 0 L 5.96875 -1.859375 C 5.90625 -2.347656 5.75 -2.691406 5.5 -2.890625 C 5.257812 -3.085938 4.878906 -3.1875 4.359375 -3.1875 L 2.828125 -3.1875 L 2.828125 0 Z M 2.828125 -4.671875 L 4.8125 -4.671875 C 5.21875 -4.671875 5.535156 -4.765625 5.765625 -4.953125 C 6.003906 -5.148438 6.125 -5.425781 6.125 -5.78125 C 6.125 -6.132812 6.003906 -6.40625 5.765625 -6.59375 C 5.535156 -6.789062 5.21875 -6.890625 4.8125 -6.890625 L 2.828125 -6.890625 Z M 2.828125 -4.671875 "/></g></g></g><g fill="#000000" fill-opacity="1"><g transform="translate(135.742723, 93.884718)"><g><path d="M 3.15625 0 L 3.15625 -3.421875 L 0.109375 -8.40625 L 2.21875 -8.40625 L 3.171875 -6.765625 C 3.347656 -6.472656 3.476562 -6.191406 3.5625 -5.921875 C 3.6875 -5.566406 3.753906 -5.015625 3.765625 -4.265625 L 4.421875 -4.265625 C 4.429688 -4.828125 4.472656 -5.269531 4.546875 -5.59375 C 4.617188 -5.925781 4.785156 -6.328125 5.046875 -6.796875 L 5.921875 -8.40625 L 7.96875 -8.40625 L 4.984375 -3.421875 L 4.984375 0 Z M 3.15625 0 "/></g></g></g><g fill="#000000" fill-opacity="1"><g transform="translate(143.858093, 93.884718)"><g><path d="M 0.5 -4.171875 C 0.5 -5.453125 0.910156 -6.507812 1.734375 -7.34375 C 2.554688 -8.175781 3.640625 -8.59375 4.984375 -8.59375 C 6.335938 -8.59375 7.425781 -8.175781 8.25 -7.34375 C 9.070312 -6.507812 9.484375 -5.453125 9.484375 -4.171875 C 9.492188 -2.898438 9.085938 -1.851562 8.265625 -1.03125 C 7.441406 -0.207031 6.347656 0.195312 4.984375 0.1875 C 3.628906 0.195312 2.539062 -0.207031 1.71875 -1.03125 C 0.894531 -1.851562 0.488281 -2.898438 0.5 -4.171875 Z M 7.578125 -4.1875 C 7.578125 -5.039062 7.34375 -5.734375 6.875 -6.265625 C 6.414062 -6.804688 5.789062 -7.078125 5 -7.078125 C 4.195312 -7.078125 3.5625 -6.804688 3.09375 -6.265625 C 2.632812 -5.734375 2.40625 -5.039062 2.40625 -4.1875 C 2.40625 -3.34375 2.632812 -2.648438 3.09375 -2.109375 C 3.5625 -1.578125 4.195312 -1.3125 5 -1.3125 C 5.789062 -1.3125 6.414062 -1.578125 6.875 -2.109375 C 7.34375 -2.648438 7.578125 -3.34375 7.578125 -4.1875 Z M 7.578125 -4.1875 "/></g></g></g><g fill="#000000" fill-opacity="1"><g transform="translate(153.846238, 93.884718)"><g><path d="M 0.90625 -3.28125 L 0.90625 -8.40625 L 2.734375 -8.40625 L 2.734375 -3.5625 C 2.734375 -2.84375 2.894531 -2.296875 3.21875 -1.921875 C 3.550781 -1.554688 4.039062 -1.375 4.6875 -1.375 C 5.976562 -1.375 6.625 -2.101562 6.625 -3.5625 L 6.625 -8.40625 L 8.453125 -8.40625 L 8.453125 -3.28125 C 8.453125 -2.21875 8.101562 -1.375 7.40625 -0.75 C 6.707031 -0.125 5.800781 0.1875 4.6875 0.1875 C 3.539062 0.1875 2.625 -0.125 1.9375 -0.75 C 1.25 -1.375 0.90625 -2.21875 0.90625 -3.28125 Z M 0.90625 -3.28125 "/></g></g></g><g fill="#000000" fill-opacity="1"><g transform="translate(187.581619, 92.999379)"><g><path d="M 6.796875 0 L 6.125 -1.96875 L 2.71875 -1.96875 L 2.015625 0 L 0.0625 0 L 3.265625 -8.40625 L 5.625 -8.40625 L 8.8125 0 Z M 3.234375 -3.484375 L 5.609375 -3.484375 L 4.984375 -5.296875 C 4.835938 -5.703125 4.757812 -6.394531 4.75 -7.375 L 4.109375 -7.375 C 4.085938 -6.75 4.066406 -6.332031 4.046875 -6.125 C 4.023438 -5.851562 3.96875 -5.578125 3.875 -5.296875 Z M 3.234375 -3.484375 "/></g></g></g><g fill="#000000" fill-opacity="1"><g transform="translate(196.465309, 92.999379)"><g><path d="M 1.015625 0 L 1.015625 -8.40625 L 3.8125 -8.40625 L 7.546875 -2.15625 L 8.09375 -2.53125 C 7.757812 -3.082031 7.546875 -3.507812 7.453125 -3.8125 C 7.359375 -4.113281 7.3125 -4.585938 7.3125 -5.234375 L 7.3125 -8.40625 L 9.125 -8.40625 L 9.125 0 L 6.9375 0 L 2.578125 -7.296875 L 2.03125 -6.953125 C 2.320312 -6.398438 2.523438 -5.925781 2.640625 -5.53125 C 2.765625 -5.132812 2.828125 -4.628906 2.828125 -4.015625 L 2.828125 0 Z M 1.015625 0 "/></g></g></g><g fill="#000000" fill-opacity="1"><g transform="translate(206.60952, 92.999379)"><g><path d="M 1.015625 0 L 1.015625 -8.40625 L 4.171875 -8.40625 C 5.410156 -8.414062 6.460938 -8.035156 7.328125 -7.265625 C 8.203125 -6.503906 8.628906 -5.503906 8.609375 -4.265625 C 8.628906 -2.992188 8.203125 -1.957031 7.328125 -1.15625 C 6.460938 -0.363281 5.410156 0.0195312 4.171875 0 Z M 2.828125 -1.515625 L 4.09375 -1.515625 C 5.851562 -1.515625 6.734375 -2.414062 6.734375 -4.21875 C 6.734375 -5.039062 6.507812 -5.691406 6.0625 -6.171875 C 5.625 -6.648438 4.988281 -6.890625 4.15625 -6.890625 L 2.828125 -6.890625 Z M 2.828125 -1.515625 "/></g></g></g><g fill="#000000" fill-opacity="1"><g transform="translate(244.573368, 92.999379)"><g><path d="M 3.15625 0 L 3.15625 -3.421875 L 0.109375 -8.40625 L 2.21875 -8.40625 L 3.171875 -6.765625 C 3.347656 -6.472656 3.476562 -6.191406 3.5625 -5.921875 C 3.6875 -5.566406 3.753906 -5.015625 3.765625 -4.265625 L 4.421875 -4.265625 C 4.429688 -4.828125 4.472656 -5.269531 4.546875 -5.59375 C 4.617188 -5.925781 4.785156 -6.328125 5.046875 -6.796875 L 5.921875 -8.40625 L 7.96875 -8.40625 L 4.984375 -3.421875 L 4.984375 0 Z M 3.15625 0 "/></g></g></g><g fill="#000000" fill-opacity="1"><g transform="translate(252.688738, 92.999379)"><g><path d="M 0.5 -4.171875 C 0.5 -5.453125 0.910156 -6.507812 1.734375 -7.34375 C 2.554688 -8.175781 3.640625 -8.59375 4.984375 -8.59375 C 6.335938 -8.59375 7.425781 -8.175781 8.25 -7.34375 C 9.070312 -6.507812 9.484375 -5.453125 9.484375 -4.171875 C 9.492188 -2.898438 9.085938 -1.851562 8.265625 -1.03125 C 7.441406 -0.207031 6.347656 0.195312 4.984375 0.1875 C 3.628906 0.195312 2.539062 -0.207031 1.71875 -1.03125 C 0.894531 -1.851562 0.488281 -2.898438 0.5 -4.171875 Z M 7.578125 -4.1875 C 7.578125 -5.039062 7.34375 -5.734375 6.875 -6.265625 C 6.414062 -6.804688 5.789062 -7.078125 5 -7.078125 C 4.195312 -7.078125 3.5625 -6.804688 3.09375 -6.265625 C 2.632812 -5.734375 2.40625 -5.039062 2.40625 -4.1875 C 2.40625 -3.34375 2.632812 -2.648438 3.09375 -2.109375 C 3.5625 -1.578125 4.195312 -1.3125 5 -1.3125 C 5.789062 -1.3125 6.414062 -1.578125 6.875 -2.109375 C 7.34375 -2.648438 7.578125 -3.34375 7.578125 -4.1875 Z M 7.578125 -4.1875 "/></g></g></g><g fill="#000000" fill-opacity="1"><g transform="translate(262.676883, 92.999379)"><g><path d="M 0.90625 -3.28125 L 0.90625 -8.40625 L 2.734375 -8.40625 L 2.734375 -3.5625 C 2.734375 -2.84375 2.894531 -2.296875 3.21875 -1.921875 C 3.550781 -1.554688 4.039062 -1.375 4.6875 -1.375 C 5.976562 -1.375 6.625 -2.101562 6.625 -3.5625 L 6.625 -8.40625 L 8.453125 -8.40625 L 8.453125 -3.28125 C 8.453125 -2.21875 8.101562 -1.375 7.40625 -0.75 C 6.707031 -0.125 5.800781 0.1875 4.6875 0.1875 C 3.539062 0.1875 2.625 -0.125 1.9375 -0.75 C 1.25 -1.375 0.90625 -2.21875 0.90625 -3.28125 Z M 0.90625 -3.28125 "/></g></g></g><g fill="#000000" fill-opacity="1"><g transform="translate(272.040769, 92.999379)"><g><path d="M 1.015625 0 L 1.015625 -8.40625 L 5.15625 -8.40625 C 6.039062 -8.40625 6.738281 -8.203125 7.25 -7.796875 C 7.769531 -7.398438 8.03125 -6.863281 8.03125 -6.1875 C 8.03125 -5.632812 7.894531 -5.21875 7.625 -4.9375 C 7.382812 -4.675781 7.097656 -4.5 6.765625 -4.40625 C 6.429688 -4.3125 5.988281 -4.25 5.4375 -4.21875 L 5.4375 -3.59375 C 6.21875 -3.570312 6.78125 -3.457031 7.125 -3.25 C 7.46875 -3.039062 7.703125 -2.628906 7.828125 -2.015625 L 8.171875 0 L 6.234375 0 L 5.96875 -1.859375 C 5.90625 -2.347656 5.75 -2.691406 5.5 -2.890625 C 5.257812 -3.085938 4.878906 -3.1875 4.359375 -3.1875 L 2.828125 -3.1875 L 2.828125 0 Z M 2.828125 -4.671875 L 4.8125 -4.671875 C 5.21875 -4.671875 5.535156 -4.765625 5.765625 -4.953125 C 6.003906 -5.148438 6.125 -5.425781 6.125 -5.78125 C 6.125 -6.132812 6.003906 -6.40625 5.765625 -6.59375 C 5.535156 -6.789062 5.21875 -6.890625 4.8125 -6.890625 L 2.828125 -6.890625 Z M 2.828125 -4.671875 "/></g></g></g><g fill="#000000" fill-opacity="1"><g transform="translate(156.445221, 111.150485)"><g><path d="M 1.015625 0 L 1.015625 -8.40625 L 7.46875 -8.40625 L 7.46875 -6.890625 L 2.828125 -6.890625 L 2.828125 -4.703125 L 6.546875 -4.703125 L 6.546875 -3.1875 L 2.828125 -3.1875 L 2.828125 0 Z M 1.015625 0 "/></g></g></g><g fill="#000000" fill-opacity="1"><g transform="translate(164.200439, 111.150485)"><g><path d="M 1.015625 0 L 1.015625 -8.40625 L 5.15625 -8.40625 C 6.039062 -8.40625 6.738281 -8.203125 7.25 -7.796875 C 7.769531 -7.398438 8.03125 -6.863281 8.03125 -6.1875 C 8.03125 -5.632812 7.894531 -5.21875 7.625 -4.9375 C 7.382812 -4.675781 7.097656 -4.5 6.765625 -4.40625 C 6.429688 -4.3125 5.988281 -4.25 5.4375 -4.21875 L 5.4375 -3.59375 C 6.21875 -3.570312 6.78125 -3.457031 7.125 -3.25 C 7.46875 -3.039062 7.703125 -2.628906 7.828125 -2.015625 L 8.171875 0 L 6.234375 0 L 5.96875 -1.859375 C 5.90625 -2.347656 5.75 -2.691406 5.5 -2.890625 C 5.257812 -3.085938 4.878906 -3.1875 4.359375 -3.1875 L 2.828125 -3.1875 L 2.828125 0 Z M 2.828125 -4.671875 L 4.8125 -4.671875 C 5.21875 -4.671875 5.535156 -4.765625 5.765625 -4.953125 C 6.003906 -5.148438 6.125 -5.425781 6.125 -5.78125 C 6.125 -6.132812 6.003906 -6.40625 5.765625 -6.59375 C 5.535156 -6.789062 5.21875 -6.890625 4.8125 -6.890625 L 2.828125 -6.890625 Z M 2.828125 -4.671875 "/></g></g></g><g fill="#000000" fill-opacity="1"><g transform="translate(172.916055, 111.150485)"><g><path d="M 1.015625 0 L 1.015625 -8.40625 L 2.828125 -8.40625 L 2.828125 0 Z M 1.015625 0 "/></g></g></g><g fill="#000000" fill-opacity="1"><g transform="translate(176.757649, 111.150485)"><g><path d="M 1.015625 0 L 1.015625 -8.40625 L 7.359375 -8.40625 L 7.359375 -6.890625 L 2.828125 -6.890625 L 2.828125 -5.0625 L 6.25 -5.0625 L 6.25 -3.578125 L 2.828125 -3.578125 L 2.828125 -1.515625 L 7.359375 -1.515625 L 7.359375 0 Z M 1.015625 0 "/></g></g></g><g fill="#000000" fill-opacity="1"><g transform="translate(184.680937, 111.150485)"><g><path d="M 1.015625 0 L 1.015625 -8.40625 L 3.8125 -8.40625 L 7.546875 -2.15625 L 8.09375 -2.53125 C 7.757812 -3.082031 7.546875 -3.507812 7.453125 -3.8125 C 7.359375 -4.113281 7.3125 -4.585938 7.3125 -5.234375 L 7.3125 -8.40625 L 9.125 -8.40625 L 9.125 0 L 6.9375 0 L 2.578125 -7.296875 L 2.03125 -6.953125 C 2.320312 -6.398438 2.523438 -5.925781 2.640625 -5.53125 C 2.765625 -5.132812 2.828125 -4.628906 2.828125 -4.015625 L 2.828125 0 Z M 1.015625 0 "/></g></g></g><g fill="#000000" fill-opacity="1"><g transform="translate(194.825148, 111.150485)"><g><path d="M 1.015625 0 L 1.015625 -8.40625 L 4.171875 -8.40625 C 5.410156 -8.414062 6.460938 -8.035156 7.328125 -7.265625 C 8.203125 -6.503906 8.628906 -5.503906 8.609375 -4.265625 C 8.628906 -2.992188 8.203125 -1.957031 7.328125 -1.15625 C 6.460938 -0.363281 5.410156 0.0195312 4.171875 0 Z M 2.828125 -1.515625 L 4.09375 -1.515625 C 5.851562 -1.515625 6.734375 -2.414062 6.734375 -4.21875 C 6.734375 -5.039062 6.507812 -5.691406 6.0625 -6.171875 C 5.625 -6.648438 4.988281 -6.890625 4.15625 -6.890625 L 2.828125 -6.890625 Z M 2.828125 -1.515625 "/></g></g></g><g fill="#000000" fill-opacity="1"><g transform="translate(203.948935, 111.150485)"><g><path d="M 0.34375 -2.40625 L 2.046875 -2.96875 C 2.148438 -2.488281 2.378906 -2.082031 2.734375 -1.75 C 3.097656 -1.425781 3.578125 -1.265625 4.171875 -1.265625 C 4.710938 -1.265625 5.117188 -1.359375 5.390625 -1.546875 C 5.671875 -1.742188 5.8125 -2.007812 5.8125 -2.34375 C 5.8125 -2.894531 5.359375 -3.238281 4.453125 -3.375 L 3.40625 -3.515625 C 1.632812 -3.765625 0.75 -4.601562 0.75 -6.03125 C 0.75 -6.757812 1.046875 -7.367188 1.640625 -7.859375 C 2.242188 -8.347656 3.054688 -8.59375 4.078125 -8.59375 C 5.054688 -8.59375 5.835938 -8.382812 6.421875 -7.96875 C 7.015625 -7.5625 7.414062 -7.019531 7.625 -6.34375 L 5.953125 -5.765625 C 5.660156 -6.679688 5.035156 -7.140625 4.078125 -7.140625 C 3.609375 -7.140625 3.253906 -7.039062 3.015625 -6.84375 C 2.773438 -6.65625 2.65625 -6.410156 2.65625 -6.109375 C 2.65625 -5.609375 3.015625 -5.304688 3.734375 -5.203125 L 4.78125 -5.0625 C 5.71875 -4.9375 6.441406 -4.648438 6.953125 -4.203125 C 7.460938 -3.765625 7.71875 -3.179688 7.71875 -2.453125 C 7.71875 -1.679688 7.410156 -1.046875 6.796875 -0.546875 C 6.191406 -0.0546875 5.316406 0.1875 4.171875 0.1875 C 3.097656 0.1875 2.234375 -0.0507812 1.578125 -0.53125 C 0.921875 -1.007812 0.507812 -1.632812 0.34375 -2.40625 Z M 0.34375 -2.40625 "/></g></g></g><g fill="#000000" fill-opacity="1"><g transform="translate(78.519728, 76.294737)"><g><path d="M 0.34375 -2.40625 L 2.046875 -2.96875 C 2.148438 -2.488281 2.378906 -2.082031 2.734375 -1.75 C 3.097656 -1.425781 3.578125 -1.265625 4.171875 -1.265625 C 4.710938 -1.265625 5.117188 -1.359375 5.390625 -1.546875 C 5.671875 -1.742188 5.8125 -2.007812 5.8125 -2.34375 C 5.8125 -2.894531 5.359375 -3.238281 4.453125 -3.375 L 3.40625 -3.515625 C 1.632812 -3.765625 0.75 -4.601562 0.75 -6.03125 C 0.75 -6.757812 1.046875 -7.367188 1.640625 -7.859375 C 2.242188 -8.347656 3.054688 -8.59375 4.078125 -8.59375 C 5.054688 -8.59375 5.835938 -8.382812 6.421875 -7.96875 C 7.015625 -7.5625 7.414062 -7.019531 7.625 -6.34375 L 5.953125 -5.765625 C 5.660156 -6.679688 5.035156 -7.140625 4.078125 -7.140625 C 3.609375 -7.140625 3.253906 -7.039062 3.015625 -6.84375 C 2.773438 -6.65625 2.65625 -6.410156 2.65625 -6.109375 C 2.65625 -5.609375 3.015625 -5.304688 3.734375 -5.203125 L 4.78125 -5.0625 C 5.71875 -4.9375 6.441406 -4.648438 6.953125 -4.203125 C 7.460938 -3.765625 7.71875 -3.179688 7.71875 -2.453125 C 7.71875 -1.679688 7.410156 -1.046875 6.796875 -0.546875 C 6.191406 -0.0546875 5.316406 0.1875 4.171875 0.1875 C 3.097656 0.1875 2.234375 -0.0507812 1.578125 -0.53125 C 0.921875 -1.007812 0.507812 -1.632812 0.34375 -2.40625 Z M 0.34375 -2.40625 "/></g></g></g><g fill="#000000" fill-opacity="1"><g transform="translate(86.74314, 76.294737)"><g><path d="M 1.015625 0 L 1.015625 -8.40625 L 2.828125 -8.40625 L 2.828125 -5.078125 L 6.4375 -5.078125 L 6.4375 -8.40625 L 8.25 -8.40625 L 8.25 0 L 6.4375 0 L 6.4375 -3.5625 L 2.828125 -3.5625 L 2.828125 0 Z M 1.015625 0 "/></g></g></g><g fill="#000000" fill-opacity="1"><g transform="translate(96.010986, 76.294737)"><g><path d="M 0.5 -4.171875 C 0.5 -5.453125 0.910156 -6.507812 1.734375 -7.34375 C 2.554688 -8.175781 3.640625 -8.59375 4.984375 -8.59375 C 6.335938 -8.59375 7.425781 -8.175781 8.25 -7.34375 C 9.070312 -6.507812 9.484375 -5.453125 9.484375 -4.171875 C 9.492188 -2.898438 9.085938 -1.851562 8.265625 -1.03125 C 7.441406 -0.207031 6.347656 0.195312 4.984375 0.1875 C 3.628906 0.195312 2.539062 -0.207031 1.71875 -1.03125 C 0.894531 -1.851562 0.488281 -2.898438 0.5 -4.171875 Z M 7.578125 -4.1875 C 7.578125 -5.039062 7.34375 -5.734375 6.875 -6.265625 C 6.414062 -6.804688 5.789062 -7.078125 5 -7.078125 C 4.195312 -7.078125 3.5625 -6.804688 3.09375 -6.265625 C 2.632812 -5.734375 2.40625 -5.039062 2.40625 -4.1875 C 2.40625 -3.34375 2.632812 -2.648438 3.09375 -2.109375 C 3.5625 -1.578125 4.195312 -1.3125 5 -1.3125 C 5.789062 -1.3125 6.414062 -1.578125 6.875 -2.109375 C 7.34375 -2.648438 7.578125 -3.34375 7.578125 -4.1875 Z M 7.578125 -4.1875 "/></g></g></g><g fill="#000000" fill-opacity="1"><g transform="translate(105.999132, 76.294737)"><g><path d="M 1.015625 0 L 1.015625 -8.40625 L 7.359375 -8.40625 L 7.359375 -6.890625 L 2.828125 -6.890625 L 2.828125 -5.0625 L 6.25 -5.0625 L 6.25 -3.578125 L 2.828125 -3.578125 L 2.828125 -1.515625 L 7.359375 -1.515625 L 7.359375 0 Z M 1.015625 0 "/></g></g></g><g fill="#000000" fill-opacity="1"><g transform="translate(113.922419, 76.294737)"><g><path d="M 0.34375 -2.40625 L 2.046875 -2.96875 C 2.148438 -2.488281 2.378906 -2.082031 2.734375 -1.75 C 3.097656 -1.425781 3.578125 -1.265625 4.171875 -1.265625 C 4.710938 -1.265625 5.117188 -1.359375 5.390625 -1.546875 C 5.671875 -1.742188 5.8125 -2.007812 5.8125 -2.34375 C 5.8125 -2.894531 5.359375 -3.238281 4.453125 -3.375 L 3.40625 -3.515625 C 1.632812 -3.765625 0.75 -4.601562 0.75 -6.03125 C 0.75 -6.757812 1.046875 -7.367188 1.640625 -7.859375 C 2.242188 -8.347656 3.054688 -8.59375 4.078125 -8.59375 C 5.054688 -8.59375 5.835938 -8.382812 6.421875 -7.96875 C 7.015625 -7.5625 7.414062 -7.019531 7.625 -6.34375 L 5.953125 -5.765625 C 5.660156 -6.679688 5.035156 -7.140625 4.078125 -7.140625 C 3.609375 -7.140625 3.253906 -7.039062 3.015625 -6.84375 C 2.773438 -6.65625 2.65625 -6.410156 2.65625 -6.109375 C 2.65625 -5.609375 3.015625 -5.304688 3.734375 -5.203125 L 4.78125 -5.0625 C 5.71875 -4.9375 6.441406 -4.648438 6.953125 -4.203125 C 7.460938 -3.765625 7.71875 -3.179688 7.71875 -2.453125 C 7.71875 -1.679688 7.410156 -1.046875 6.796875 -0.546875 C 6.191406 -0.0546875 5.316406 0.1875 4.171875 0.1875 C 3.097656 0.1875 2.234375 -0.0507812 1.578125 -0.53125 C 0.921875 -1.007812 0.507812 -1.632812 0.34375 -2.40625 Z M 0.34375 -2.40625 "/></g></g></g><g fill="#000000" fill-opacity="1"><g transform="translate(208.714872, 75.158774)"><g><path d="M 0.484375 -4.21875 C 0.472656 -5.445312 0.882812 -6.484375 1.71875 -7.328125 C 2.550781 -8.179688 3.597656 -8.601562 4.859375 -8.59375 C 5.828125 -8.59375 6.65625 -8.351562 7.34375 -7.875 C 8.039062 -7.394531 8.503906 -6.769531 8.734375 -6 L 7.09375 -5.359375 C 6.6875 -6.503906 5.9375 -7.078125 4.84375 -7.078125 C 4.082031 -7.078125 3.484375 -6.820312 3.046875 -6.3125 C 2.617188 -5.8125 2.40625 -5.113281 2.40625 -4.21875 C 2.40625 -3.300781 2.617188 -2.585938 3.046875 -2.078125 C 3.472656 -1.578125 4.070312 -1.328125 4.84375 -1.328125 C 5.957031 -1.328125 6.722656 -1.90625 7.140625 -3.0625 L 8.75 -2.40625 C 8.4375 -1.570312 7.945312 -0.929688 7.28125 -0.484375 C 6.625 -0.0351562 5.8125 0.1875 4.84375 0.1875 C 3.539062 0.1875 2.488281 -0.222656 1.6875 -1.046875 C 0.882812 -1.867188 0.484375 -2.925781 0.484375 -4.21875 Z M 0.484375 -4.21875 "/></g></g></g><g fill="#000000" fill-opacity="1"><g transform="translate(217.778632, 75.158774)"><g><path d="M 1.015625 0 L 1.015625 -8.40625 L 2.828125 -8.40625 L 2.828125 -1.546875 L 7.359375 -1.546875 L 7.359375 0 Z M 1.015625 0 "/></g></g></g><g fill="#000000" fill-opacity="1"><g transform="translate(225.257735, 75.158774)"><g><path d="M 0.5 -4.171875 C 0.5 -5.453125 0.910156 -6.507812 1.734375 -7.34375 C 2.554688 -8.175781 3.640625 -8.59375 4.984375 -8.59375 C 6.335938 -8.59375 7.425781 -8.175781 8.25 -7.34375 C 9.070312 -6.507812 9.484375 -5.453125 9.484375 -4.171875 C 9.492188 -2.898438 9.085938 -1.851562 8.265625 -1.03125 C 7.441406 -0.207031 6.347656 0.195312 4.984375 0.1875 C 3.628906 0.195312 2.539062 -0.207031 1.71875 -1.03125 C 0.894531 -1.851562 0.488281 -2.898438 0.5 -4.171875 Z M 7.578125 -4.1875 C 7.578125 -5.039062 7.34375 -5.734375 6.875 -6.265625 C 6.414062 -6.804688 5.789062 -7.078125 5 -7.078125 C 4.195312 -7.078125 3.5625 -6.804688 3.09375 -6.265625 C 2.632812 -5.734375 2.40625 -5.039062 2.40625 -4.1875 C 2.40625 -3.34375 2.632812 -2.648438 3.09375 -2.109375 C 3.5625 -1.578125 4.195312 -1.3125 5 -1.3125 C 5.789062 -1.3125 6.414062 -1.578125 6.875 -2.109375 C 7.34375 -2.648438 7.578125 -3.34375 7.578125 -4.1875 Z M 7.578125 -4.1875 "/></g></g></g><g fill="#000000" fill-opacity="1"><g transform="translate(235.245881, 75.158774)"><g><path d="M 3 0 L 3 -6.890625 L 0.125 -6.890625 L 0.125 -8.40625 L 7.703125 -8.40625 L 7.703125 -6.890625 L 4.828125 -6.890625 L 4.828125 0 Z M 3 0 "/></g></g></g><g fill="#000000" fill-opacity="1"><g transform="translate(243.073129, 75.158774)"><g><path d="M 1.015625 0 L 1.015625 -8.40625 L 2.828125 -8.40625 L 2.828125 -5.078125 L 6.4375 -5.078125 L 6.4375 -8.40625 L 8.25 -8.40625 L 8.25 0 L 6.4375 0 L 6.4375 -3.5625 L 2.828125 -3.5625 L 2.828125 0 Z M 1.015625 0 "/></g></g></g><g fill="#000000" fill-opacity="1"><g transform="translate(252.340975, 75.158774)"><g><path d="M 1.015625 0 L 1.015625 -8.40625 L 7.359375 -8.40625 L 7.359375 -6.890625 L 2.828125 -6.890625 L 2.828125 -5.0625 L 6.25 -5.0625 L 6.25 -3.578125 L 2.828125 -3.578125 L 2.828125 -1.515625 L 7.359375 -1.515625 L 7.359375 0 Z M 1.015625 0 "/></g></g></g><g fill="#000000" fill-opacity="1"><g transform="translate(260.264262, 75.158774)"><g><path d="M 0.34375 -2.40625 L 2.046875 -2.96875 C 2.148438 -2.488281 2.378906 -2.082031 2.734375 -1.75 C 3.097656 -1.425781 3.578125 -1.265625 4.171875 -1.265625 C 4.710938 -1.265625 5.117188 -1.359375 5.390625 -1.546875 C 5.671875 -1.742188 5.8125 -2.007812 5.8125 -2.34375 C 5.8125 -2.894531 5.359375 -3.238281 4.453125 -3.375 L 3.40625 -3.515625 C 1.632812 -3.765625 0.75 -4.601562 0.75 -6.03125 C 0.75 -6.757812 1.046875 -7.367188 1.640625 -7.859375 C 2.242188 -8.347656 3.054688 -8.59375 4.078125 -8.59375 C 5.054688 -8.59375 5.835938 -8.382812 6.421875 -7.96875 C 7.015625 -7.5625 7.414062 -7.019531 7.625 -6.34375 L 5.953125 -5.765625 C 5.660156 -6.679688 5.035156 -7.140625 4.078125 -7.140625 C 3.609375 -7.140625 3.253906 -7.039062 3.015625 -6.84375 C 2.773438 -6.65625 2.65625 -6.410156 2.65625 -6.109375 C 2.65625 -5.609375 3.015625 -5.304688 3.734375 -5.203125 L 4.78125 -5.0625 C 5.71875 -4.9375 6.441406 -4.648438 6.953125 -4.203125 C 7.460938 -3.765625 7.71875 -3.179688 7.71875 -2.453125 C 7.71875 -1.679688 7.410156 -1.046875 6.796875 -0.546875 C 6.191406 -0.0546875 5.316406 0.1875 4.171875 0.1875 C 3.097656 0.1875 2.234375 -0.0507812 1.578125 -0.53125 C 0.921875 -1.007812 0.507812 -1.632812 0.34375 -2.40625 Z M 0.34375 -2.40625 "/></g></g></g></svg>