<svg xmlns="http://www.w3.org/2000/svg" xmlns:xlink="http://www.w3.org/1999/xlink" width="1240" zoomAndPan="magnify" viewBox="0 0 930 221.249992" height="295" preserveAspectRatio="xMidYMid meet" version="1.0"><defs><g/><clipPath id="d8d98502ac"><path d="M 300 43.71875 L 307 43.71875 L 307 62 L 300 62 Z M 300 43.71875 " clip-rule="nonzero"/></clipPath><clipPath id="9dbf61df0b"><path d="M 300 61 L 307 61 L 307 79.597656 L 300 79.597656 Z M 300 61 " clip-rule="nonzero"/></clipPath><clipPath id="855536a9c9"><path d="M 285.542969 58 L 304 58 L 304 65 L 285.542969 65 Z M 285.542969 58 " clip-rule="nonzero"/></clipPath><clipPath id="039fda59da"><path d="M 581 45.113281 L 618.671875 45.113281 L 618.671875 78 L 581 78 Z M 581 45.113281 " clip-rule="nonzero"/></clipPath><clipPath id="ae54657ef4"><path d="M 177 89.101562 L 216 89.101562 L 216 127.96875 L 177 127.96875 Z M 177 89.101562 " clip-rule="nonzero"/></clipPath><clipPath id="b3db33ee70"><path d="M 325.121094 87.148438 L 368.476562 87.148438 L 368.476562 129.753906 L 325.121094 129.753906 Z M 325.121094 87.148438 " clip-rule="nonzero"/></clipPath><clipPath id="f50f9e1e49"><path d="M 349 110 L 368 110 L 368 129.753906 L 349 129.753906 Z M 349 110 " clip-rule="nonzero"/></clipPath><clipPath id="958f32be52"><path d="M 325.121094 87.148438 L 345 87.148438 L 345 107 L 325.121094 107 Z M 325.121094 87.148438 " clip-rule="nonzero"/></clipPath><clipPath id="c0726c3069"><path d="M 256.460938 136.546875 L 299.8125 136.546875 L 299.8125 179.902344 L 256.460938 179.902344 Z M 256.460938 136.546875 " clip-rule="nonzero"/></clipPath><clipPath id="38bd41978c"><path d="M 402 136.546875 L 444 136.546875 L 444 178 L 402 178 Z M 402 136.546875 " clip-rule="nonzero"/></clipPath><clipPath id="100f244151"><path d="M 570.269531 132.765625 L 618.105469 132.765625 L 618.105469 175.371094 L 570.269531 175.371094 Z M 570.269531 132.765625 " clip-rule="nonzero"/></clipPath><clipPath id="1fd0aeb26f"><path d="M 567 86.136719 L 573 86.136719 L 573 99 L 567 99 Z M 567 86.136719 " clip-rule="nonzero"/></clipPath><clipPath id="8008bb5982"><path d="M 567 117 L 573 117 L 573 129.488281 L 567 129.488281 Z M 567 117 " clip-rule="nonzero"/></clipPath><clipPath id="62d2a4348a"><path d="M 548.09375 105 L 561 105 L 561 111 L 548.09375 111 Z M 548.09375 105 " clip-rule="nonzero"/></clipPath></defs><g clip-path="url(#d8d98502ac)"><path fill="#c7b9ff" d="M 300.824219 43.71875 L 306.761719 43.71875 L 304.785156 61.660156 L 302.804688 61.660156 Z M 300.824219 43.71875 " fill-opacity="1" fill-rule="nonzero"/></g><g clip-path="url(#9dbf61df0b)"><path fill="#c7b9ff" d="M 306.765625 79.597656 L 300.828125 79.597656 L 302.804688 61.660156 L 304.785156 61.660156 Z M 306.765625 79.597656 " fill-opacity="1" fill-rule="nonzero"/></g><path fill="#c7b9ff" d="M 293.300781 76.457031 L 289.101562 72.230469 L 303.097656 60.953125 L 304.496094 62.363281 Z M 293.300781 76.457031 " fill-opacity="1" fill-rule="nonzero"/><path fill="#c7b9ff" d="M 314.292969 46.859375 L 318.492188 51.089844 L 304.496094 62.363281 L 303.09375 60.953125 Z M 314.292969 46.859375 " fill-opacity="1" fill-rule="nonzero"/><path fill="#c7b9ff" d="M 289.101562 51.085938 L 293.300781 46.859375 L 304.496094 60.953125 L 303.097656 62.363281 Z M 289.101562 51.085938 " fill-opacity="1" fill-rule="nonzero"/><path fill="#c7b9ff" d="M 318.492188 72.230469 L 314.292969 76.457031 L 303.097656 62.363281 L 304.496094 60.953125 Z M 318.492188 72.230469 " fill-opacity="1" fill-rule="nonzero"/><g clip-path="url(#855536a9c9)"><path fill="#c7b9ff" d="M 285.984375 64.648438 L 285.984375 58.667969 L 303.796875 60.660156 L 303.796875 62.65625 Z M 285.984375 64.648438 " fill-opacity="1" fill-rule="nonzero"/></g><path fill="#c7b9ff" d="M 321.609375 58.667969 L 321.609375 64.648438 L 303.796875 62.65625 L 303.796875 60.664062 Z M 321.609375 58.667969 " fill-opacity="1" fill-rule="nonzero"/><g clip-path="url(#039fda59da)"><path fill="#f24e1e" d="M 581.019531 49.222656 L 581.019531 45.113281 L 618.207031 45.113281 L 618.207031 49.222656 C 609.941406 49.222656 603.746094 55.390625 603.746094 61.558594 C 603.746094 67.722656 609.941406 73.890625 618.207031 73.890625 L 618.207031 78 L 581.019531 78 L 581.019531 73.890625 C 589.28125 73.890625 595.480469 67.722656 595.480469 61.558594 C 595.480469 55.390625 589.28125 49.222656 581.019531 49.222656 Z M 581.019531 49.222656 " fill-opacity="1" fill-rule="nonzero"/></g><g clip-path="url(#ae54657ef4)"><path fill="#f24e1e" d="M 183.710938 89.101562 L 200.835938 89.101562 L 215.820312 99.898438 L 194.414062 115.011719 L 209.398438 127.96875 L 192.273438 127.96875 L 177.289062 115.011719 L 198.695312 99.898438 Z M 183.710938 89.101562 " fill-opacity="1" fill-rule="nonzero"/></g><g clip-path="url(#b3db33ee70)"><path stroke-linecap="butt" transform="matrix(1.109771, 0, 0, 1.121199, 325.158814, 87.147254)" fill="none" stroke-linejoin="miter" d="M 36.294581 8.44277 C 36.294581 8.860849 36.255863 9.27196 36.174906 9.679587 C 36.093949 10.087215 35.974273 10.48439 35.812359 10.867629 C 35.653965 11.250868 35.460372 11.616687 35.228061 11.961603 C 34.999269 12.306518 34.735279 12.627045 34.43961 12.923185 C 34.147461 13.21584 33.827153 13.47714 33.482206 13.710567 C 33.137259 13.940511 32.771192 14.135614 32.387526 14.295878 C 32.003861 14.452657 31.606115 14.574597 31.197811 14.654729 C 30.789506 14.734861 30.377681 14.776669 29.962337 14.776669 C 29.546992 14.776669 29.135167 14.734861 28.726862 14.654729 C 28.318558 14.574597 27.924332 14.452657 27.540666 14.295878 C 27.157001 14.135614 26.790934 13.940511 26.445987 13.710567 C 26.09752 13.47714 25.777212 13.21584 25.485063 12.923185 C 25.189394 12.627045 24.928923 12.306518 24.696612 11.961603 C 24.467821 11.616687 24.270708 11.250868 24.112314 10.867629 C 23.95392 10.48439 23.834244 10.087215 23.753287 9.679587 C 23.66881 9.27196 23.630092 8.860849 23.630092 8.44277 C 23.630092 8.028175 23.66881 7.617064 23.753287 7.209437 C 23.834244 6.801809 23.95392 6.404634 24.112314 6.021395 C 24.270708 5.634672 24.467821 5.272337 24.696612 4.923937 C 24.928923 4.579022 25.189394 4.258495 25.485063 3.965839 C 25.777212 3.673184 26.09752 3.4084 26.445987 3.178457 C 26.790934 2.948513 27.157001 2.75341 27.540666 2.593146 C 27.924332 2.432883 28.318558 2.314427 28.726862 2.234295 C 29.135167 2.150679 29.546992 2.112355 29.962337 2.112355 C 30.377681 2.112355 30.789506 2.150679 31.197811 2.234295 C 31.606115 2.314427 32.003861 2.432883 32.387526 2.593146 C 32.771192 2.75341 33.137259 2.948513 33.482206 3.178457 C 33.827153 3.4084 34.147461 3.673184 34.43961 3.965839 C 34.735279 4.258495 34.999269 4.579022 35.228061 4.923937 C 35.460372 5.272337 35.653965 5.634672 35.812359 6.021395 C 35.974273 6.404634 36.093949 6.801809 36.174906 7.209437 C 36.255863 7.617064 36.294581 8.028175 36.294581 8.44277 Z M 36.294581 8.44277 " stroke="#0fa958" stroke-width="4.222" stroke-opacity="1" stroke-miterlimit="4"/><path stroke-linecap="butt" transform="matrix(1.109771, 0, 0, 1.121199, 325.158814, 87.147254)" fill="none" stroke-linejoin="miter" d="M 15.185925 29.555766 C 15.185925 29.970361 15.147207 30.384956 15.06625 30.792583 C 14.985293 31.200211 14.865617 31.593902 14.703703 31.980625 C 14.545309 32.363864 14.351716 32.729683 14.119405 33.074599 C 13.887094 33.419514 13.626623 33.740041 13.330954 34.032697 C 13.038805 34.328836 12.718497 34.590135 12.37355 34.820079 C 12.025083 35.053507 11.662536 35.24861 11.27887 35.40539 C 10.891685 35.565653 10.497459 35.687593 10.089155 35.767725 C 9.68085 35.847857 9.269025 35.889665 8.85368 35.889665 C 8.438336 35.889665 8.026511 35.847857 7.618206 35.767725 C 7.209902 35.687593 6.815676 35.565653 6.43201 35.40539 C 6.044825 35.24861 5.682278 35.053507 5.337331 34.820079 C 4.988864 34.590135 4.668556 34.328836 4.376407 34.032697 C 4.080738 33.740041 3.820267 33.419514 3.587956 33.074599 C 3.355645 32.729683 3.162052 32.363864 3.003658 31.980625 C 2.845264 31.593902 2.722068 31.200211 2.641111 30.792583 C 2.560154 30.384956 2.521436 29.970361 2.521436 29.555766 C 2.521436 29.141171 2.560154 28.73006 2.641111 28.318949 C 2.722068 27.911321 2.845264 27.51763 3.003658 27.130907 C 3.162052 26.747668 3.355645 26.381849 3.587956 26.036933 C 3.820267 25.692018 4.080738 25.371491 4.376407 25.078835 C 4.668556 24.782696 4.988864 24.521396 5.337331 24.291453 C 5.682278 24.058025 6.044825 23.862922 6.43201 23.706142 C 6.815676 23.545879 7.209902 23.427423 7.618206 23.343807 C 8.026511 23.263675 8.438336 23.221867 8.85368 23.221867 C 9.269025 23.221867 9.68085 23.263675 10.089155 23.343807 C 10.497459 23.427423 10.891685 23.545879 11.27887 23.706142 C 11.662536 23.862922 12.025083 24.058025 12.37355 24.291453 C 12.718497 24.521396 13.038805 24.782696 13.330954 25.078835 C 13.626623 25.371491 13.887094 25.692018 14.119405 26.036933 C 14.351716 26.381849 14.545309 26.747668 14.703703 27.130907 C 14.865617 27.51763 14.985293 27.911321 15.06625 28.318949 C 15.147207 28.73006 15.185925 29.141171 15.185925 29.555766 Z M 15.185925 29.555766 " stroke="#0fa958" stroke-width="4.222" stroke-opacity="1" stroke-miterlimit="4"/></g><g clip-path="url(#f50f9e1e49)"><path stroke-linecap="butt" transform="matrix(1.109771, 0, 0, 1.121199, 325.158814, 87.147254)" fill="none" stroke-linejoin="miter" d="M 23.630092 23.221867 L 36.298101 23.221867 L 36.298101 35.889665 L 23.630092 35.889665 Z M 23.630092 23.221867 " stroke="#0fa958" stroke-width="4.222" stroke-opacity="1" stroke-miterlimit="4"/></g><g clip-path="url(#958f32be52)"><path stroke-linecap="butt" transform="matrix(1.109771, 0, 0, 1.121199, 325.158814, 87.147254)" fill="none" stroke-linejoin="miter" d="M 2.521436 2.112355 L 15.185925 2.112355 L 15.185925 14.776669 L 2.521436 14.776669 Z M 2.521436 2.112355 " stroke="#0fa958" stroke-width="4.222" stroke-opacity="1" stroke-miterlimit="4"/></g><g clip-path="url(#c0726c3069)"><path stroke-linecap="butt" transform="matrix(1.171704, 0, 0, 1.171704, 256.459812, 136.548053)" fill="none" stroke-linejoin="miter" d="M 28.905185 3.286142 L 8.332178 18.011627 C 4.368266 20.848709 3.901531 26.566211 7.355369 30.006714 C 10.799205 33.440549 16.500039 32.97048 19.330452 29.016569 L 34.065939 8.453564 C 35.112759 6.99335 34.959403 4.993058 33.705887 3.709537 C 32.429034 2.402679 30.388735 2.225987 28.905185 3.286142 Z M 28.905185 3.286142 " stroke="#c7b9ff" stroke-width="4.132" stroke-opacity="1" stroke-miterlimit="4"/></g><g clip-path="url(#38bd41978c)"><path fill="#ffc700" d="M 422.730469 159.753906 C 415.851562 159.753906 413.558594 165.085938 413.558594 168.855469 C 413.558594 172.625 415.851562 177.957031 422.730469 177.957031 L 438.777344 177.957031 L 438.777344 171.128906 L 422.730469 171.128906 C 421.460938 171.128906 420.4375 170.113281 420.4375 168.855469 C 420.4375 167.597656 421.460938 166.578125 422.730469 166.578125 L 434.191406 166.578125 C 438.777344 166.578125 443.359375 164.304688 443.359375 157.476562 C 443.359375 150.652344 438.546875 148.375 434.191406 148.375 L 411.265625 148.375 C 410 148.375 408.976562 147.355469 408.976562 146.097656 C 408.976562 144.84375 410 143.824219 411.265625 143.824219 L 428.460938 143.824219 C 430.359375 143.824219 431.898438 142.296875 431.898438 140.410156 C 431.898438 138.527344 430.359375 136.996094 428.460938 136.996094 L 411.265625 136.996094 C 404.390625 136.996094 402.097656 142.328125 402.097656 146.097656 C 402.097656 149.871094 404.390625 155.203125 411.265625 155.203125 L 434.191406 155.203125 C 435.457031 155.203125 436.484375 156.21875 436.484375 157.476562 C 436.484375 158.734375 435.457031 159.753906 434.191406 159.753906 Z M 422.730469 159.753906 " fill-opacity="1" fill-rule="nonzero"/></g><g clip-path="url(#100f244151)"><path stroke-linecap="butt" transform="matrix(1.258692, 0, 0, 1.253105, 570.271655, 132.765465)" fill="none" stroke-linejoin="miter" d="M 18.652968 4.688481 L 33.710761 31.45948 L 3.592073 31.45948 Z M 18.652968 4.688481 " stroke="#0fa958" stroke-width="4.132" stroke-opacity="1" stroke-miterlimit="4"/></g><path fill="#0fa958" d="M 599.46875 164.421875 L 588.027344 164.421875 L 593.746094 154.070312 Z M 599.46875 164.421875 " fill-opacity="1" fill-rule="nonzero"/><g clip-path="url(#1fd0aeb26f)"><path fill="#ffc700" d="M 567.414062 86.601562 L 572.125 86.601562 L 572.125 98.386719 L 567.414062 98.386719 Z M 567.414062 86.601562 " fill-opacity="1" fill-rule="nonzero"/></g><g clip-path="url(#8008bb5982)"><path fill="#ffc700" d="M 567.414062 117.242188 L 572.125 117.242188 L 572.125 129.023438 L 567.414062 129.023438 Z M 567.414062 117.242188 " fill-opacity="1" fill-rule="nonzero"/></g><path fill="#ffc700" d="M 552.808594 94.152344 L 556.105469 90.855469 L 564.90625 99.65625 L 561.609375 102.953125 Z M 552.808594 94.152344 " fill-opacity="1" fill-rule="nonzero"/><path fill="#ffc700" d="M 574.480469 115.820312 L 577.773438 112.527344 L 586.578125 121.328125 L 583.28125 124.625 Z M 574.480469 115.820312 " fill-opacity="1" fill-rule="nonzero"/><path fill="#ffc700" d="M 586.578125 94.152344 L 583.285156 90.855469 L 574.484375 99.65625 L 577.777344 102.953125 Z M 586.578125 94.152344 " fill-opacity="1" fill-rule="nonzero"/><path fill="#ffc700" d="M 564.910156 115.824219 L 561.613281 112.527344 L 552.8125 121.328125 L 556.105469 124.625 Z M 564.910156 115.824219 " fill-opacity="1" fill-rule="nonzero"/><g clip-path="url(#62d2a4348a)"><path fill="#ffc700" d="M 548.554688 110.171875 L 548.554688 105.457031 L 560.339844 105.457031 L 560.339844 110.171875 Z M 548.554688 110.171875 " fill-opacity="1" fill-rule="nonzero"/></g><path fill="#ffc700" d="M 579.195312 110.171875 L 579.195312 105.457031 L 590.980469 105.457031 L 590.980469 110.171875 Z M 579.195312 110.171875 " fill-opacity="1" fill-rule="nonzero"/><g fill="#000000" fill-opacity="1"><g transform="translate(138.305399, 72.084347)"><g><path d="M 0.875 -6.28125 L 5.375 -7.78125 C 5.644531 -6.507812 6.25 -5.441406 7.1875 -4.578125 C 8.125 -3.722656 9.367188 -3.296875 10.921875 -3.296875 C 12.347656 -3.296875 13.421875 -3.546875 14.140625 -4.046875 C 14.859375 -4.546875 15.21875 -5.238281 15.21875 -6.125 C 15.21875 -7.5625 14.023438 -8.460938 11.640625 -8.828125 L 8.921875 -9.203125 C 4.296875 -9.847656 1.984375 -12.046875 1.984375 -15.796875 C 1.984375 -17.691406 2.757812 -19.273438 4.3125 -20.546875 C 5.875 -21.828125 7.992188 -22.46875 10.671875 -22.46875 C 13.222656 -22.46875 15.269531 -21.929688 16.8125 -20.859375 C 18.363281 -19.785156 19.414062 -18.367188 19.96875 -16.609375 L 15.5625 -15.0625 C 14.789062 -17.46875 13.160156 -18.671875 10.671875 -18.671875 C 9.441406 -18.671875 8.507812 -18.421875 7.875 -17.921875 C 7.25 -17.421875 6.9375 -16.773438 6.9375 -15.984375 C 6.9375 -14.679688 7.878906 -13.894531 9.765625 -13.625 L 12.5 -13.25 C 14.945312 -12.914062 16.835938 -12.171875 18.171875 -11.015625 C 19.515625 -9.867188 20.1875 -8.34375 20.1875 -6.4375 C 20.1875 -4.40625 19.390625 -2.738281 17.796875 -1.4375 C 16.203125 -0.144531 13.910156 0.5 10.921875 0.5 C 8.117188 0.5 5.859375 -0.125 4.140625 -1.375 C 2.421875 -2.632812 1.332031 -4.269531 0.875 -6.28125 Z M 0.875 -6.28125 "/></g></g></g><g fill="#000000" fill-opacity="1"><g transform="translate(159.810027, 72.084347)"><g><path d="M 2.640625 0 L 2.640625 -21.96875 L 7.40625 -21.96875 L 7.40625 -13.28125 L 16.828125 -13.28125 L 16.828125 -21.96875 L 21.59375 -21.96875 L 21.59375 0 L 16.828125 0 L 16.828125 -9.328125 L 7.40625 -9.328125 L 7.40625 0 Z M 2.640625 0 "/></g></g></g><g fill="#000000" fill-opacity="1"><g transform="translate(184.045901, 72.084347)"><g><path d="M 1.3125 -10.921875 C 1.3125 -14.273438 2.382812 -17.035156 4.53125 -19.203125 C 6.675781 -21.378906 9.515625 -22.46875 13.046875 -22.46875 C 16.585938 -22.46875 19.429688 -21.378906 21.578125 -19.203125 C 23.722656 -17.035156 24.796875 -14.273438 24.796875 -10.921875 C 24.835938 -7.597656 23.78125 -4.859375 21.625 -2.703125 C 19.46875 -0.546875 16.613281 0.519531 13.0625 0.5 C 9.5 0.519531 6.640625 -0.546875 4.484375 -2.703125 C 2.328125 -4.859375 1.269531 -7.597656 1.3125 -10.921875 Z M 19.8125 -10.953125 C 19.8125 -13.191406 19.203125 -15.007812 17.984375 -16.40625 C 16.773438 -17.8125 15.144531 -18.515625 13.09375 -18.515625 C 11 -18.515625 9.34375 -17.8125 8.125 -16.40625 C 6.914062 -15.007812 6.3125 -13.191406 6.3125 -10.953125 C 6.3125 -8.734375 6.914062 -6.925781 8.125 -5.53125 C 9.34375 -4.144531 11 -3.453125 13.09375 -3.453125 C 15.144531 -3.453125 16.773438 -4.144531 17.984375 -5.53125 C 19.203125 -6.925781 19.8125 -8.734375 19.8125 -10.953125 Z M 19.8125 -10.953125 "/></g></g></g><g fill="#000000" fill-opacity="1"><g transform="translate(210.165393, 72.084347)"><g><path d="M 2.640625 0 L 2.640625 -21.96875 L 12.5 -21.96875 C 14.863281 -21.96875 16.773438 -21.320312 18.234375 -20.03125 C 19.703125 -18.75 20.4375 -17.03125 20.4375 -14.875 C 20.4375 -12.71875 19.703125 -10.984375 18.234375 -9.671875 C 16.773438 -8.367188 14.875 -7.71875 12.53125 -7.71875 L 7.40625 -7.71875 L 7.40625 0 Z M 7.40625 -11.671875 L 11.640625 -11.671875 C 12.796875 -11.671875 13.722656 -11.957031 14.421875 -12.53125 C 15.117188 -13.113281 15.46875 -13.894531 15.46875 -14.875 C 15.46875 -15.820312 15.113281 -16.582031 14.40625 -17.15625 C 13.695312 -17.726562 12.773438 -18.015625 11.640625 -18.015625 L 7.40625 -18.015625 Z M 7.40625 -11.671875 "/></g></g></g><g fill="#000000" fill-opacity="1"><g transform="translate(231.356086, 72.084347)"><g><path d="M 2.640625 0 L 2.640625 -21.96875 L 7.40625 -21.96875 L 7.40625 -4.046875 L 19.25 -4.046875 L 19.25 0 Z M 2.640625 0 "/></g></g></g><g fill="#000000" fill-opacity="1"><g transform="translate(250.914308, 72.084347)"><g><path d="M 8.25 0 L 8.25 -8.953125 L 0.28125 -21.96875 L 5.8125 -21.96875 L 8.28125 -17.703125 C 8.75 -16.929688 9.097656 -16.1875 9.328125 -15.46875 C 9.660156 -14.550781 9.835938 -13.109375 9.859375 -11.140625 L 11.546875 -11.140625 C 11.585938 -12.628906 11.703125 -13.800781 11.890625 -14.65625 C 12.078125 -15.519531 12.507812 -16.554688 13.1875 -17.765625 L 15.46875 -21.96875 L 20.84375 -21.96875 L 13.03125 -8.953125 L 13.03125 0 Z M 8.25 0 "/></g></g></g><g fill="#000000" fill-opacity="1"><g transform="translate(341.356612, 72.084347)"><g><path d="M 1.28125 -11.015625 C 1.238281 -14.242188 2.3125 -16.96875 4.5 -19.1875 C 6.6875 -21.414062 9.425781 -22.507812 12.71875 -22.46875 C 15.25 -22.46875 17.414062 -21.84375 19.21875 -20.59375 C 21.03125 -19.351562 22.242188 -17.722656 22.859375 -15.703125 L 18.546875 -14.03125 C 17.503906 -17.019531 15.539062 -18.515625 12.65625 -18.515625 C 10.664062 -18.515625 9.101562 -17.851562 7.96875 -16.53125 C 6.84375 -15.21875 6.28125 -13.378906 6.28125 -11.015625 C 6.28125 -8.628906 6.835938 -6.773438 7.953125 -5.453125 C 9.078125 -4.140625 10.644531 -3.484375 12.65625 -3.484375 C 15.582031 -3.484375 17.585938 -4.988281 18.671875 -8 L 22.890625 -6.3125 C 22.066406 -4.113281 20.789062 -2.425781 19.0625 -1.25 C 17.34375 -0.0820312 15.207031 0.5 12.65625 0.5 C 9.257812 0.5 6.515625 -0.578125 4.421875 -2.734375 C 2.328125 -4.890625 1.28125 -7.648438 1.28125 -11.015625 Z M 1.28125 -11.015625 "/></g></g></g><g fill="#000000" fill-opacity="1"><g transform="translate(365.058791, 72.084347)"><g><path d="M 1.3125 -10.921875 C 1.3125 -14.273438 2.382812 -17.035156 4.53125 -19.203125 C 6.675781 -21.378906 9.515625 -22.46875 13.046875 -22.46875 C 16.585938 -22.46875 19.429688 -21.378906 21.578125 -19.203125 C 23.722656 -17.035156 24.796875 -14.273438 24.796875 -10.921875 C 24.835938 -7.597656 23.78125 -4.859375 21.625 -2.703125 C 19.46875 -0.546875 16.613281 0.519531 13.0625 0.5 C 9.5 0.519531 6.640625 -0.546875 4.484375 -2.703125 C 2.328125 -4.859375 1.269531 -7.597656 1.3125 -10.921875 Z M 19.8125 -10.953125 C 19.8125 -13.191406 19.203125 -15.007812 17.984375 -16.40625 C 16.773438 -17.8125 15.144531 -18.515625 13.09375 -18.515625 C 11 -18.515625 9.34375 -17.8125 8.125 -16.40625 C 6.914062 -15.007812 6.3125 -13.191406 6.3125 -10.953125 C 6.3125 -8.734375 6.914062 -6.925781 8.125 -5.53125 C 9.34375 -4.144531 11 -3.453125 13.09375 -3.453125 C 15.144531 -3.453125 16.773438 -4.144531 17.984375 -5.53125 C 19.203125 -6.925781 19.8125 -8.734375 19.8125 -10.953125 Z M 19.8125 -10.953125 "/></g></g></g><g fill="#000000" fill-opacity="1"><g transform="translate(391.178283, 72.084347)"><g><path d="M 2.640625 0 L 2.640625 -21.96875 L 7.40625 -21.96875 L 7.40625 -4.046875 L 19.25 -4.046875 L 19.25 0 Z M 2.640625 0 "/></g></g></g><g fill="#000000" fill-opacity="1"><g transform="translate(410.736506, 72.084347)"><g><path d="M 2.640625 0 L 2.640625 -21.96875 L 7.40625 -21.96875 L 7.40625 -4.046875 L 19.25 -4.046875 L 19.25 0 Z M 2.640625 0 "/></g></g></g><g fill="#000000" fill-opacity="1"><g transform="translate(430.294728, 72.084347)"><g><path d="M 2.640625 0 L 2.640625 -21.96875 L 19.25 -21.96875 L 19.25 -18.015625 L 7.40625 -18.015625 L 7.40625 -13.25 L 16.359375 -13.25 L 16.359375 -9.359375 L 7.40625 -9.359375 L 7.40625 -3.953125 L 19.25 -3.953125 L 19.25 0 Z M 2.640625 0 "/></g></g></g><g fill="#000000" fill-opacity="1"><g transform="translate(451.014514, 72.084347)"><g><path d="M 1.28125 -11.015625 C 1.238281 -14.242188 2.3125 -16.96875 4.5 -19.1875 C 6.6875 -21.414062 9.425781 -22.507812 12.71875 -22.46875 C 15.25 -22.46875 17.414062 -21.84375 19.21875 -20.59375 C 21.03125 -19.351562 22.242188 -17.722656 22.859375 -15.703125 L 18.546875 -14.03125 C 17.503906 -17.019531 15.539062 -18.515625 12.65625 -18.515625 C 10.664062 -18.515625 9.101562 -17.851562 7.96875 -16.53125 C 6.84375 -15.21875 6.28125 -13.378906 6.28125 -11.015625 C 6.28125 -8.628906 6.835938 -6.773438 7.953125 -5.453125 C 9.078125 -4.140625 10.644531 -3.484375 12.65625 -3.484375 C 15.582031 -3.484375 17.585938 -4.988281 18.671875 -8 L 22.890625 -6.3125 C 22.066406 -4.113281 20.789062 -2.425781 19.0625 -1.25 C 17.34375 -0.0820312 15.207031 0.5 12.65625 0.5 C 9.257812 0.5 6.515625 -0.578125 4.421875 -2.734375 C 2.328125 -4.890625 1.28125 -7.648438 1.28125 -11.015625 Z M 1.28125 -11.015625 "/></g></g></g><g fill="#000000" fill-opacity="1"><g transform="translate(474.716694, 72.084347)"><g><path d="M 7.84375 0 L 7.84375 -18.015625 L 0.3125 -18.015625 L 0.3125 -21.96875 L 20.15625 -21.96875 L 20.15625 -18.015625 L 12.625 -18.015625 L 12.625 0 Z M 7.84375 0 "/></g></g></g><g fill="#000000" fill-opacity="1"><g transform="translate(495.185332, 72.084347)"><g><path d="M 2.640625 0 L 2.640625 -21.96875 L 7.40625 -21.96875 L 7.40625 0 Z M 2.640625 0 "/></g></g></g><g fill="#000000" fill-opacity="1"><g transform="translate(505.23129, 72.084347)"><g><path d="M 1.3125 -10.921875 C 1.3125 -14.273438 2.382812 -17.035156 4.53125 -19.203125 C 6.675781 -21.378906 9.515625 -22.46875 13.046875 -22.46875 C 16.585938 -22.46875 19.429688 -21.378906 21.578125 -19.203125 C 23.722656 -17.035156 24.796875 -14.273438 24.796875 -10.921875 C 24.835938 -7.597656 23.78125 -4.859375 21.625 -2.703125 C 19.46875 -0.546875 16.613281 0.519531 13.0625 0.5 C 9.5 0.519531 6.640625 -0.546875 4.484375 -2.703125 C 2.328125 -4.859375 1.269531 -7.597656 1.3125 -10.921875 Z M 19.8125 -10.953125 C 19.8125 -13.191406 19.203125 -15.007812 17.984375 -16.40625 C 16.773438 -17.8125 15.144531 -18.515625 13.09375 -18.515625 C 11 -18.515625 9.34375 -17.8125 8.125 -16.40625 C 6.914062 -15.007812 6.3125 -13.191406 6.3125 -10.953125 C 6.3125 -8.734375 6.914062 -6.925781 8.125 -5.53125 C 9.34375 -4.144531 11 -3.453125 13.09375 -3.453125 C 15.144531 -3.453125 16.773438 -4.144531 17.984375 -5.53125 C 19.203125 -6.925781 19.8125 -8.734375 19.8125 -10.953125 Z M 19.8125 -10.953125 "/></g></g></g><g fill="#000000" fill-opacity="1"><g transform="translate(531.350782, 72.084347)"><g><path d="M 2.640625 0 L 2.640625 -21.96875 L 9.984375 -21.96875 L 19.75 -5.65625 L 21.15625 -6.625 C 20.300781 -8.070312 19.75 -9.1875 19.5 -9.96875 C 19.257812 -10.75 19.128906 -11.988281 19.109375 -13.6875 L 19.109375 -21.96875 L 23.890625 -21.96875 L 23.890625 0 L 18.140625 0 L 6.75 -19.078125 L 5.3125 -18.171875 C 6.082031 -16.734375 6.625 -15.5 6.9375 -14.46875 C 7.25 -13.445312 7.40625 -12.117188 7.40625 -10.484375 L 7.40625 0 Z M 2.640625 0 "/></g></g></g><g fill="#000000" fill-opacity="1"><g transform="translate(637.927149, 72.084347)"><g><path d="M 1.3125 -10.921875 C 1.3125 -14.273438 2.382812 -17.035156 4.53125 -19.203125 C 6.675781 -21.378906 9.515625 -22.46875 13.046875 -22.46875 C 16.585938 -22.46875 19.429688 -21.378906 21.578125 -19.203125 C 23.722656 -17.035156 24.796875 -14.273438 24.796875 -10.921875 C 24.835938 -7.597656 23.78125 -4.859375 21.625 -2.703125 C 19.46875 -0.546875 16.613281 0.519531 13.0625 0.5 C 9.5 0.519531 6.640625 -0.546875 4.484375 -2.703125 C 2.328125 -4.859375 1.269531 -7.597656 1.3125 -10.921875 Z M 19.8125 -10.953125 C 19.8125 -13.191406 19.203125 -15.007812 17.984375 -16.40625 C 16.773438 -17.8125 15.144531 -18.515625 13.09375 -18.515625 C 11 -18.515625 9.34375 -17.8125 8.125 -16.40625 C 6.914062 -15.007812 6.3125 -13.191406 6.3125 -10.953125 C 6.3125 -8.734375 6.914062 -6.925781 8.125 -5.53125 C 9.34375 -4.144531 11 -3.453125 13.09375 -3.453125 C 15.144531 -3.453125 16.773438 -4.144531 17.984375 -5.53125 C 19.203125 -6.925781 19.8125 -8.734375 19.8125 -10.953125 Z M 19.8125 -10.953125 "/></g></g></g><g fill="#000000" fill-opacity="1"><g transform="translate(664.046641, 72.084347)"><g><path d="M 2.640625 0 L 2.640625 -21.96875 L 19.53125 -21.96875 L 19.53125 -18.015625 L 7.40625 -18.015625 L 7.40625 -12.3125 L 17.109375 -12.3125 L 17.109375 -8.34375 L 7.40625 -8.34375 L 7.40625 0 Z M 2.640625 0 "/></g></g></g><g fill="#000000" fill-opacity="1"><g transform="translate(228.818076, 120.131374)"><g><path d="M 17.765625 0 L 16.015625 -5.140625 L 7.09375 -5.140625 L 5.28125 0 L 0.15625 0 L 8.53125 -21.96875 L 14.71875 -21.96875 L 23.046875 0 Z M 8.46875 -9.109375 L 14.65625 -9.109375 L 13.03125 -13.875 C 12.65625 -14.914062 12.457031 -16.726562 12.4375 -19.3125 L 10.734375 -19.3125 C 10.691406 -17.675781 10.640625 -16.578125 10.578125 -16.015625 C 10.515625 -15.296875 10.367188 -14.570312 10.140625 -13.84375 Z M 8.46875 -9.109375 "/></g></g></g><g fill="#000000" fill-opacity="1"><g transform="translate(252.04936, 120.131374)"><g><path d="M 2.640625 0 L 2.640625 -21.96875 L 9.984375 -21.96875 L 19.75 -5.65625 L 21.15625 -6.625 C 20.300781 -8.070312 19.75 -9.1875 19.5 -9.96875 C 19.257812 -10.75 19.128906 -11.988281 19.109375 -13.6875 L 19.109375 -21.96875 L 23.890625 -21.96875 L 23.890625 0 L 18.140625 0 L 6.75 -19.078125 L 5.3125 -18.171875 C 6.082031 -16.734375 6.625 -15.5 6.9375 -14.46875 C 7.25 -13.445312 7.40625 -12.117188 7.40625 -10.484375 L 7.40625 0 Z M 2.640625 0 "/></g></g></g><g fill="#000000" fill-opacity="1"><g transform="translate(278.576972, 120.131374)"><g><path d="M 2.640625 0 L 2.640625 -21.96875 L 10.921875 -21.96875 C 14.171875 -22.007812 16.925781 -21.023438 19.1875 -19.015625 C 21.457031 -17.015625 22.570312 -14.390625 22.53125 -11.140625 C 22.570312 -7.816406 21.457031 -5.117188 19.1875 -3.046875 C 16.925781 -0.972656 14.171875 0.0390625 10.921875 0 Z M 7.40625 -3.953125 L 10.703125 -3.953125 C 15.304688 -3.953125 17.609375 -6.316406 17.609375 -11.046875 C 17.609375 -13.203125 17.03125 -14.898438 15.875 -16.140625 C 14.726562 -17.390625 13.066406 -18.015625 10.890625 -18.015625 L 7.40625 -18.015625 Z M 7.40625 -3.953125 "/></g></g></g><g fill="#000000" fill-opacity="1"><g transform="translate(599.590316, 117.965642)"><g><path d="M 2.640625 0 L 2.640625 -21.96875 L 19.53125 -21.96875 L 19.53125 -18.015625 L 7.40625 -18.015625 L 7.40625 -12.3125 L 17.109375 -12.3125 L 17.109375 -8.34375 L 7.40625 -8.34375 L 7.40625 0 Z M 2.640625 0 "/></g></g></g><g fill="#000000" fill-opacity="1"><g transform="translate(619.870593, 117.965642)"><g><path d="M 1.3125 -10.921875 C 1.3125 -14.273438 2.382812 -17.035156 4.53125 -19.203125 C 6.675781 -21.378906 9.515625 -22.46875 13.046875 -22.46875 C 16.585938 -22.46875 19.429688 -21.378906 21.578125 -19.203125 C 23.722656 -17.035156 24.796875 -14.273438 24.796875 -10.921875 C 24.835938 -7.597656 23.78125 -4.859375 21.625 -2.703125 C 19.46875 -0.546875 16.613281 0.519531 13.0625 0.5 C 9.5 0.519531 6.640625 -0.546875 4.484375 -2.703125 C 2.328125 -4.859375 1.269531 -7.597656 1.3125 -10.921875 Z M 19.8125 -10.953125 C 19.8125 -13.191406 19.203125 -15.007812 17.984375 -16.40625 C 16.773438 -17.8125 15.144531 -18.515625 13.09375 -18.515625 C 11 -18.515625 9.34375 -17.8125 8.125 -16.40625 C 6.914062 -15.007812 6.3125 -13.191406 6.3125 -10.953125 C 6.3125 -8.734375 6.914062 -6.925781 8.125 -5.53125 C 9.34375 -4.144531 11 -3.453125 13.09375 -3.453125 C 15.144531 -3.453125 16.773438 -4.144531 17.984375 -5.53125 C 19.203125 -6.925781 19.8125 -8.734375 19.8125 -10.953125 Z M 19.8125 -10.953125 "/></g></g></g><g fill="#000000" fill-opacity="1"><g transform="translate(645.990085, 117.965642)"><g><path d="M 2.640625 0 L 2.640625 -21.96875 L 13.5 -21.96875 C 15.820312 -21.96875 17.648438 -21.441406 18.984375 -20.390625 C 20.328125 -19.347656 21 -17.953125 21 -16.203125 C 21 -14.753906 20.644531 -13.664062 19.9375 -12.9375 C 19.300781 -12.238281 18.550781 -11.765625 17.6875 -11.515625 C 16.820312 -11.265625 15.664062 -11.109375 14.21875 -11.046875 L 14.21875 -9.421875 C 16.269531 -9.359375 17.742188 -9.050781 18.640625 -8.5 C 19.546875 -7.957031 20.15625 -6.882812 20.46875 -5.28125 L 21.375 0 L 16.296875 0 L 15.625 -4.859375 C 15.4375 -6.140625 15.03125 -7.039062 14.40625 -7.5625 C 13.78125 -8.082031 12.773438 -8.34375 11.390625 -8.34375 L 7.40625 -8.34375 L 7.40625 0 Z M 7.40625 -12.21875 L 12.59375 -12.21875 C 13.65625 -12.21875 14.492188 -12.46875 15.109375 -12.96875 C 15.734375 -13.46875 16.046875 -14.1875 16.046875 -15.125 C 16.046875 -16.050781 15.734375 -16.765625 15.109375 -17.265625 C 14.492188 -17.765625 13.65625 -18.015625 12.59375 -18.015625 L 7.40625 -18.015625 Z M 7.40625 -12.21875 "/></g></g></g><g fill="#000000" fill-opacity="1"><g transform="translate(174.601669, 168.494362)"><g><path d="M 8.25 0 L 8.25 -8.953125 L 0.28125 -21.96875 L 5.8125 -21.96875 L 8.28125 -17.703125 C 8.75 -16.929688 9.097656 -16.1875 9.328125 -15.46875 C 9.660156 -14.550781 9.835938 -13.109375 9.859375 -11.140625 L 11.546875 -11.140625 C 11.585938 -12.628906 11.703125 -13.800781 11.890625 -14.65625 C 12.078125 -15.519531 12.507812 -16.554688 13.1875 -17.765625 L 15.46875 -21.96875 L 20.84375 -21.96875 L 13.03125 -8.953125 L 13.03125 0 Z M 8.25 0 "/></g></g></g><g fill="#000000" fill-opacity="1"><g transform="translate(195.823761, 168.494362)"><g><path d="M 1.3125 -10.921875 C 1.3125 -14.273438 2.382812 -17.035156 4.53125 -19.203125 C 6.675781 -21.378906 9.515625 -22.46875 13.046875 -22.46875 C 16.585938 -22.46875 19.429688 -21.378906 21.578125 -19.203125 C 23.722656 -17.035156 24.796875 -14.273438 24.796875 -10.921875 C 24.835938 -7.597656 23.78125 -4.859375 21.625 -2.703125 C 19.46875 -0.546875 16.613281 0.519531 13.0625 0.5 C 9.5 0.519531 6.640625 -0.546875 4.484375 -2.703125 C 2.328125 -4.859375 1.269531 -7.597656 1.3125 -10.921875 Z M 19.8125 -10.953125 C 19.8125 -13.191406 19.203125 -15.007812 17.984375 -16.40625 C 16.773438 -17.8125 15.144531 -18.515625 13.09375 -18.515625 C 11 -18.515625 9.34375 -17.8125 8.125 -16.40625 C 6.914062 -15.007812 6.3125 -13.191406 6.3125 -10.953125 C 6.3125 -8.734375 6.914062 -6.925781 8.125 -5.53125 C 9.34375 -4.144531 11 -3.453125 13.09375 -3.453125 C 15.144531 -3.453125 16.773438 -4.144531 17.984375 -5.53125 C 19.203125 -6.925781 19.8125 -8.734375 19.8125 -10.953125 Z M 19.8125 -10.953125 "/></g></g></g><g fill="#000000" fill-opacity="1"><g transform="translate(221.943253, 168.494362)"><g><path d="M 2.390625 -8.5625 L 2.390625 -21.96875 L 7.15625 -21.96875 L 7.15625 -9.328125 C 7.15625 -7.441406 7.582031 -6.007812 8.4375 -5.03125 C 9.300781 -4.0625 10.570312 -3.578125 12.25 -3.578125 C 15.632812 -3.578125 17.328125 -5.492188 17.328125 -9.328125 L 17.328125 -21.96875 L 22.09375 -21.96875 L 22.09375 -8.5625 C 22.09375 -5.78125 21.179688 -3.570312 19.359375 -1.9375 C 17.546875 -0.3125 15.175781 0.5 12.25 0.5 C 9.25 0.5 6.851562 -0.3125 5.0625 -1.9375 C 3.28125 -3.570312 2.390625 -5.78125 2.390625 -8.5625 Z M 2.390625 -8.5625 "/></g></g></g><g fill="#000000" fill-opacity="1"><g transform="translate(310.162892, 166.179128)"><g><path d="M 17.765625 0 L 16.015625 -5.140625 L 7.09375 -5.140625 L 5.28125 0 L 0.15625 0 L 8.53125 -21.96875 L 14.71875 -21.96875 L 23.046875 0 Z M 8.46875 -9.109375 L 14.65625 -9.109375 L 13.03125 -13.875 C 12.65625 -14.914062 12.457031 -16.726562 12.4375 -19.3125 L 10.734375 -19.3125 C 10.691406 -17.675781 10.640625 -16.578125 10.578125 -16.015625 C 10.515625 -15.296875 10.367188 -14.570312 10.140625 -13.84375 Z M 8.46875 -9.109375 "/></g></g></g><g fill="#000000" fill-opacity="1"><g transform="translate(333.394176, 166.179128)"><g><path d="M 2.640625 0 L 2.640625 -21.96875 L 9.984375 -21.96875 L 19.75 -5.65625 L 21.15625 -6.625 C 20.300781 -8.070312 19.75 -9.1875 19.5 -9.96875 C 19.257812 -10.75 19.128906 -11.988281 19.109375 -13.6875 L 19.109375 -21.96875 L 23.890625 -21.96875 L 23.890625 0 L 18.140625 0 L 6.75 -19.078125 L 5.3125 -18.171875 C 6.082031 -16.734375 6.625 -15.5 6.9375 -14.46875 C 7.25 -13.445312 7.40625 -12.117188 7.40625 -10.484375 L 7.40625 0 Z M 2.640625 0 "/></g></g></g><g fill="#000000" fill-opacity="1"><g transform="translate(359.921788, 166.179128)"><g><path d="M 2.640625 0 L 2.640625 -21.96875 L 10.921875 -21.96875 C 14.171875 -22.007812 16.925781 -21.023438 19.1875 -19.015625 C 21.457031 -17.015625 22.570312 -14.390625 22.53125 -11.140625 C 22.570312 -7.816406 21.457031 -5.117188 19.1875 -3.046875 C 16.925781 -0.972656 14.171875 0.0390625 10.921875 0 Z M 7.40625 -3.953125 L 10.703125 -3.953125 C 15.304688 -3.953125 17.609375 -6.316406 17.609375 -11.046875 C 17.609375 -13.203125 17.03125 -14.898438 15.875 -16.140625 C 14.726562 -17.390625 13.066406 -18.015625 10.890625 -18.015625 L 7.40625 -18.015625 Z M 7.40625 -3.953125 "/></g></g></g><g fill="#000000" fill-opacity="1"><g transform="translate(459.199093, 166.179128)"><g><path d="M 8.25 0 L 8.25 -8.953125 L 0.28125 -21.96875 L 5.8125 -21.96875 L 8.28125 -17.703125 C 8.75 -16.929688 9.097656 -16.1875 9.328125 -15.46875 C 9.660156 -14.550781 9.835938 -13.109375 9.859375 -11.140625 L 11.546875 -11.140625 C 11.585938 -12.628906 11.703125 -13.800781 11.890625 -14.65625 C 12.078125 -15.519531 12.507812 -16.554688 13.1875 -17.765625 L 15.46875 -21.96875 L 20.84375 -21.96875 L 13.03125 -8.953125 L 13.03125 0 Z M 8.25 0 "/></g></g></g><g fill="#000000" fill-opacity="1"><g transform="translate(480.421185, 166.179128)"><g><path d="M 1.3125 -10.921875 C 1.3125 -14.273438 2.382812 -17.035156 4.53125 -19.203125 C 6.675781 -21.378906 9.515625 -22.46875 13.046875 -22.46875 C 16.585938 -22.46875 19.429688 -21.378906 21.578125 -19.203125 C 23.722656 -17.035156 24.796875 -14.273438 24.796875 -10.921875 C 24.835938 -7.597656 23.78125 -4.859375 21.625 -2.703125 C 19.46875 -0.546875 16.613281 0.519531 13.0625 0.5 C 9.5 0.519531 6.640625 -0.546875 4.484375 -2.703125 C 2.328125 -4.859375 1.269531 -7.597656 1.3125 -10.921875 Z M 19.8125 -10.953125 C 19.8125 -13.191406 19.203125 -15.007812 17.984375 -16.40625 C 16.773438 -17.8125 15.144531 -18.515625 13.09375 -18.515625 C 11 -18.515625 9.34375 -17.8125 8.125 -16.40625 C 6.914062 -15.007812 6.3125 -13.191406 6.3125 -10.953125 C 6.3125 -8.734375 6.914062 -6.925781 8.125 -5.53125 C 9.34375 -4.144531 11 -3.453125 13.09375 -3.453125 C 15.144531 -3.453125 16.773438 -4.144531 17.984375 -5.53125 C 19.203125 -6.925781 19.8125 -8.734375 19.8125 -10.953125 Z M 19.8125 -10.953125 "/></g></g></g><g fill="#000000" fill-opacity="1"><g transform="translate(506.540677, 166.179128)"><g><path d="M 2.390625 -8.5625 L 2.390625 -21.96875 L 7.15625 -21.96875 L 7.15625 -9.328125 C 7.15625 -7.441406 7.582031 -6.007812 8.4375 -5.03125 C 9.300781 -4.0625 10.570312 -3.578125 12.25 -3.578125 C 15.632812 -3.578125 17.328125 -5.492188 17.328125 -9.328125 L 17.328125 -21.96875 L 22.09375 -21.96875 L 22.09375 -8.5625 C 22.09375 -5.78125 21.179688 -3.570312 19.359375 -1.9375 C 17.546875 -0.3125 15.175781 0.5 12.25 0.5 C 9.25 0.5 6.851562 -0.3125 5.0625 -1.9375 C 3.28125 -3.570312 2.390625 -5.78125 2.390625 -8.5625 Z M 2.390625 -8.5625 "/></g></g></g><g fill="#000000" fill-opacity="1"><g transform="translate(531.027698, 166.179128)"><g><path d="M 2.640625 0 L 2.640625 -21.96875 L 13.5 -21.96875 C 15.820312 -21.96875 17.648438 -21.441406 18.984375 -20.390625 C 20.328125 -19.347656 21 -17.953125 21 -16.203125 C 21 -14.753906 20.644531 -13.664062 19.9375 -12.9375 C 19.300781 -12.238281 18.550781 -11.765625 17.6875 -11.515625 C 16.820312 -11.265625 15.664062 -11.109375 14.21875 -11.046875 L 14.21875 -9.421875 C 16.269531 -9.359375 17.742188 -9.050781 18.640625 -8.5 C 19.546875 -7.957031 20.15625 -6.882812 20.46875 -5.28125 L 21.375 0 L 16.296875 0 L 15.625 -4.859375 C 15.4375 -6.140625 15.03125 -7.039062 14.40625 -7.5625 C 13.78125 -8.082031 12.773438 -8.34375 11.390625 -8.34375 L 7.40625 -8.34375 L 7.40625 0 Z M 7.40625 -12.21875 L 12.59375 -12.21875 C 13.65625 -12.21875 14.492188 -12.46875 15.109375 -12.96875 C 15.734375 -13.46875 16.046875 -14.1875 16.046875 -15.125 C 16.046875 -16.050781 15.734375 -16.765625 15.109375 -17.265625 C 14.492188 -17.765625 13.65625 -18.015625 12.59375 -18.015625 L 7.40625 -18.015625 Z M 7.40625 -12.21875 "/></g></g></g><g fill="#000000" fill-opacity="1"><g transform="translate(641.94478, 166.179128)"><g><path d="M 2.640625 0 L 2.640625 -21.96875 L 19.53125 -21.96875 L 19.53125 -18.015625 L 7.40625 -18.015625 L 7.40625 -12.3125 L 17.109375 -12.3125 L 17.109375 -8.34375 L 7.40625 -8.34375 L 7.40625 0 Z M 2.640625 0 "/></g></g></g><g fill="#000000" fill-opacity="1"><g transform="translate(662.225057, 166.179128)"><g><path d="M 2.640625 0 L 2.640625 -21.96875 L 13.5 -21.96875 C 15.820312 -21.96875 17.648438 -21.441406 18.984375 -20.390625 C 20.328125 -19.347656 21 -17.953125 21 -16.203125 C 21 -14.753906 20.644531 -13.664062 19.9375 -12.9375 C 19.300781 -12.238281 18.550781 -11.765625 17.6875 -11.515625 C 16.820312 -11.265625 15.664062 -11.109375 14.21875 -11.046875 L 14.21875 -9.421875 C 16.269531 -9.359375 17.742188 -9.050781 18.640625 -8.5 C 19.546875 -7.957031 20.15625 -6.882812 20.46875 -5.28125 L 21.375 0 L 16.296875 0 L 15.625 -4.859375 C 15.4375 -6.140625 15.03125 -7.039062 14.40625 -7.5625 C 13.78125 -8.082031 12.773438 -8.34375 11.390625 -8.34375 L 7.40625 -8.34375 L 7.40625 0 Z M 7.40625 -12.21875 L 12.59375 -12.21875 C 13.65625 -12.21875 14.492188 -12.46875 15.109375 -12.96875 C 15.734375 -13.46875 16.046875 -14.1875 16.046875 -15.125 C 16.046875 -16.050781 15.734375 -16.765625 15.109375 -17.265625 C 14.492188 -17.765625 13.65625 -18.015625 12.59375 -18.015625 L 7.40625 -18.015625 Z M 7.40625 -12.21875 "/></g></g></g><g fill="#000000" fill-opacity="1"><g transform="translate(685.016821, 166.179128)"><g><path d="M 2.640625 0 L 2.640625 -21.96875 L 7.40625 -21.96875 L 7.40625 0 Z M 2.640625 0 "/></g></g></g><g fill="#000000" fill-opacity="1"><g transform="translate(695.06278, 166.179128)"><g><path d="M 2.640625 0 L 2.640625 -21.96875 L 19.25 -21.96875 L 19.25 -18.015625 L 7.40625 -18.015625 L 7.40625 -13.25 L 16.359375 -13.25 L 16.359375 -9.359375 L 7.40625 -9.359375 L 7.40625 -3.953125 L 19.25 -3.953125 L 19.25 0 Z M 2.640625 0 "/></g></g></g><g fill="#000000" fill-opacity="1"><g transform="translate(715.782566, 166.179128)"><g><path d="M 2.640625 0 L 2.640625 -21.96875 L 9.984375 -21.96875 L 19.75 -5.65625 L 21.15625 -6.625 C 20.300781 -8.070312 19.75 -9.1875 19.5 -9.96875 C 19.257812 -10.75 19.128906 -11.988281 19.109375 -13.6875 L 19.109375 -21.96875 L 23.890625 -21.96875 L 23.890625 0 L 18.140625 0 L 6.75 -19.078125 L 5.3125 -18.171875 C 6.082031 -16.734375 6.625 -15.5 6.9375 -14.46875 C 7.25 -13.445312 7.40625 -12.117188 7.40625 -10.484375 L 7.40625 0 Z M 2.640625 0 "/></g></g></g><g fill="#000000" fill-opacity="1"><g transform="translate(742.310178, 166.179128)"><g><path d="M 2.640625 0 L 2.640625 -21.96875 L 10.921875 -21.96875 C 14.171875 -22.007812 16.925781 -21.023438 19.1875 -19.015625 C 21.457031 -17.015625 22.570312 -14.390625 22.53125 -11.140625 C 22.570312 -7.816406 21.457031 -5.117188 19.1875 -3.046875 C 16.925781 -0.972656 14.171875 0.0390625 10.921875 0 Z M 7.40625 -3.953125 L 10.703125 -3.953125 C 15.304688 -3.953125 17.609375 -6.316406 17.609375 -11.046875 C 17.609375 -13.203125 17.03125 -14.898438 15.875 -16.140625 C 14.726562 -17.390625 13.066406 -18.015625 10.890625 -18.015625 L 7.40625 -18.015625 Z M 7.40625 -3.953125 "/></g></g></g><g fill="#000000" fill-opacity="1"><g transform="translate(766.16933, 166.179128)"><g><path d="M 0.875 -6.28125 L 5.375 -7.78125 C 5.644531 -6.507812 6.25 -5.441406 7.1875 -4.578125 C 8.125 -3.722656 9.367188 -3.296875 10.921875 -3.296875 C 12.347656 -3.296875 13.421875 -3.546875 14.140625 -4.046875 C 14.859375 -4.546875 15.21875 -5.238281 15.21875 -6.125 C 15.21875 -7.5625 14.023438 -8.460938 11.640625 -8.828125 L 8.921875 -9.203125 C 4.296875 -9.847656 1.984375 -12.046875 1.984375 -15.796875 C 1.984375 -17.691406 2.757812 -19.273438 4.3125 -20.546875 C 5.875 -21.828125 7.992188 -22.46875 10.671875 -22.46875 C 13.222656 -22.46875 15.269531 -21.929688 16.8125 -20.859375 C 18.363281 -19.785156 19.414062 -18.367188 19.96875 -16.609375 L 15.5625 -15.0625 C 14.789062 -17.46875 13.160156 -18.671875 10.671875 -18.671875 C 9.441406 -18.671875 8.507812 -18.421875 7.875 -17.921875 C 7.25 -17.421875 6.9375 -16.773438 6.9375 -15.984375 C 6.9375 -14.679688 7.878906 -13.894531 9.765625 -13.625 L 12.5 -13.25 C 14.945312 -12.914062 16.835938 -12.171875 18.171875 -11.015625 C 19.515625 -9.867188 20.1875 -8.34375 20.1875 -6.4375 C 20.1875 -4.40625 19.390625 -2.738281 17.796875 -1.4375 C 16.203125 -0.144531 13.910156 0.5 10.921875 0.5 C 8.117188 0.5 5.859375 -0.125 4.140625 -1.375 C 2.421875 -2.632812 1.332031 -4.269531 0.875 -6.28125 Z M 0.875 -6.28125 "/></g></g></g></svg>